<mxfile host="Electron" agent="Mozilla/5.0 (X11; Linux x86_64) AppleWebKit/537.36 (KHTML, like Gecko) draw.io/24.7.17 Chrome/128.0.6613.36 Electron/32.0.1 Safari/537.36" version="24.7.17" pages="4">
  <diagram name="P1.31" id="fnceqUjb2KjwQgPFzNpk">
    <mxGraphModel dx="1380" dy="843" grid="1" gridSize="10" guides="1" tooltips="1" connect="1" arrows="1" fold="1" page="1" pageScale="1" pageWidth="850" pageHeight="1100" math="0" shadow="0">
      <root>
        <mxCell id="0" />
        <mxCell id="1" parent="0" />
        <mxCell id="xuuhESyIxA1c5PKOS_76-1" value="" style="rounded=1;whiteSpace=wrap;html=1;" parent="1" vertex="1">
          <mxGeometry x="50" y="240" width="280" height="120" as="geometry" />
        </mxCell>
        <mxCell id="xuuhESyIxA1c5PKOS_76-2" value="" style="ellipse;whiteSpace=wrap;html=1;aspect=fixed;" parent="1" vertex="1">
          <mxGeometry x="80" y="280" width="40" height="40" as="geometry" />
        </mxCell>
        <mxCell id="xuuhESyIxA1c5PKOS_76-6" value="" style="group" parent="1" vertex="1" connectable="0">
          <mxGeometry x="260" y="250" width="40" height="40" as="geometry" />
        </mxCell>
        <mxCell id="xuuhESyIxA1c5PKOS_76-4" value="" style="ellipse;whiteSpace=wrap;html=1;aspect=fixed;" parent="xuuhESyIxA1c5PKOS_76-6" vertex="1">
          <mxGeometry width="40" height="40" as="geometry" />
        </mxCell>
        <mxCell id="xuuhESyIxA1c5PKOS_76-5" value="" style="ellipse;whiteSpace=wrap;html=1;aspect=fixed;" parent="xuuhESyIxA1c5PKOS_76-6" vertex="1">
          <mxGeometry x="10" y="10" width="20" height="20" as="geometry" />
        </mxCell>
        <mxCell id="xuuhESyIxA1c5PKOS_76-7" value="" style="group" parent="1" vertex="1" connectable="0">
          <mxGeometry x="260" y="310" width="40" height="40" as="geometry" />
        </mxCell>
        <mxCell id="xuuhESyIxA1c5PKOS_76-8" value="" style="ellipse;whiteSpace=wrap;html=1;aspect=fixed;" parent="xuuhESyIxA1c5PKOS_76-7" vertex="1">
          <mxGeometry width="40" height="40" as="geometry" />
        </mxCell>
        <mxCell id="xuuhESyIxA1c5PKOS_76-9" value="" style="ellipse;whiteSpace=wrap;html=1;aspect=fixed;" parent="xuuhESyIxA1c5PKOS_76-7" vertex="1">
          <mxGeometry x="10" y="10" width="20" height="20" as="geometry" />
        </mxCell>
        <mxCell id="xuuhESyIxA1c5PKOS_76-11" value="" style="ellipse;whiteSpace=wrap;html=1;aspect=fixed;" parent="1" vertex="1">
          <mxGeometry x="175" y="250" width="20" height="20" as="geometry" />
        </mxCell>
        <mxCell id="xuuhESyIxA1c5PKOS_76-12" value="" style="ellipse;whiteSpace=wrap;html=1;aspect=fixed;" parent="1" vertex="1">
          <mxGeometry x="200" y="300" width="20" height="20" as="geometry" />
        </mxCell>
        <mxCell id="xuuhESyIxA1c5PKOS_76-14" value="" style="ellipse;whiteSpace=wrap;html=1;aspect=fixed;" parent="1" vertex="1">
          <mxGeometry x="155" y="320" width="20" height="20" as="geometry" />
        </mxCell>
        <mxCell id="xuuhESyIxA1c5PKOS_76-15" value="" style="endArrow=classic;html=1;rounded=0;" parent="1" target="xuuhESyIxA1c5PKOS_76-2" edge="1">
          <mxGeometry width="50" height="50" relative="1" as="geometry">
            <mxPoint x="10" y="300" as="sourcePoint" />
            <mxPoint x="20" y="300" as="targetPoint" />
          </mxGeometry>
        </mxCell>
        <mxCell id="xuuhESyIxA1c5PKOS_76-16" value="" style="rounded=1;whiteSpace=wrap;html=1;" parent="1" vertex="1">
          <mxGeometry x="410" y="240" width="280" height="120" as="geometry" />
        </mxCell>
        <mxCell id="xuuhESyIxA1c5PKOS_76-17" value="" style="ellipse;whiteSpace=wrap;html=1;aspect=fixed;" parent="1" vertex="1">
          <mxGeometry x="620" y="250" width="40" height="40" as="geometry" />
        </mxCell>
        <mxCell id="xuuhESyIxA1c5PKOS_76-18" value="" style="group" parent="1" vertex="1" connectable="0">
          <mxGeometry x="440" y="280" width="40" height="40" as="geometry" />
        </mxCell>
        <mxCell id="xuuhESyIxA1c5PKOS_76-19" value="" style="ellipse;whiteSpace=wrap;html=1;aspect=fixed;" parent="xuuhESyIxA1c5PKOS_76-18" vertex="1">
          <mxGeometry width="40" height="40" as="geometry" />
        </mxCell>
        <mxCell id="xuuhESyIxA1c5PKOS_76-20" value="" style="ellipse;whiteSpace=wrap;html=1;aspect=fixed;" parent="xuuhESyIxA1c5PKOS_76-18" vertex="1">
          <mxGeometry x="10" y="10" width="20" height="20" as="geometry" />
        </mxCell>
        <mxCell id="xuuhESyIxA1c5PKOS_76-21" value="" style="group" parent="1" vertex="1" connectable="0">
          <mxGeometry x="620" y="310" width="40" height="40" as="geometry" />
        </mxCell>
        <mxCell id="xuuhESyIxA1c5PKOS_76-22" value="" style="ellipse;whiteSpace=wrap;html=1;aspect=fixed;" parent="xuuhESyIxA1c5PKOS_76-21" vertex="1">
          <mxGeometry width="40" height="40" as="geometry" />
        </mxCell>
        <mxCell id="xuuhESyIxA1c5PKOS_76-24" value="" style="ellipse;whiteSpace=wrap;html=1;aspect=fixed;" parent="1" vertex="1">
          <mxGeometry x="535" y="250" width="20" height="20" as="geometry" />
        </mxCell>
        <mxCell id="xuuhESyIxA1c5PKOS_76-25" value="" style="ellipse;whiteSpace=wrap;html=1;aspect=fixed;" parent="1" vertex="1">
          <mxGeometry x="560" y="300" width="20" height="20" as="geometry" />
        </mxCell>
        <mxCell id="xuuhESyIxA1c5PKOS_76-26" value="" style="ellipse;whiteSpace=wrap;html=1;aspect=fixed;" parent="1" vertex="1">
          <mxGeometry x="515" y="320" width="20" height="20" as="geometry" />
        </mxCell>
        <mxCell id="xuuhESyIxA1c5PKOS_76-30" value="" style="ellipse;whiteSpace=wrap;html=1;aspect=fixed;" parent="1" vertex="1">
          <mxGeometry x="730" y="280" width="40" height="40" as="geometry" />
        </mxCell>
        <mxCell id="xuuhESyIxA1c5PKOS_76-32" value="" style="endArrow=classic;html=1;rounded=0;" parent="1" source="xuuhESyIxA1c5PKOS_76-30" target="xuuhESyIxA1c5PKOS_76-17" edge="1">
          <mxGeometry width="50" height="50" relative="1" as="geometry">
            <mxPoint x="20" y="310" as="sourcePoint" />
            <mxPoint x="90" y="310" as="targetPoint" />
          </mxGeometry>
        </mxCell>
        <mxCell id="xuuhESyIxA1c5PKOS_76-33" value="" style="endArrow=classic;html=1;rounded=0;" parent="1" source="xuuhESyIxA1c5PKOS_76-30" target="xuuhESyIxA1c5PKOS_76-22" edge="1">
          <mxGeometry width="50" height="50" relative="1" as="geometry">
            <mxPoint x="741" y="305" as="sourcePoint" />
            <mxPoint x="669" y="285" as="targetPoint" />
          </mxGeometry>
        </mxCell>
        <mxCell id="xuuhESyIxA1c5PKOS_76-34" value="" style="endArrow=classic;html=1;rounded=0;" parent="1" target="xuuhESyIxA1c5PKOS_76-30" edge="1">
          <mxGeometry width="50" height="50" relative="1" as="geometry">
            <mxPoint x="840" y="300" as="sourcePoint" />
            <mxPoint x="890" y="310" as="targetPoint" />
            <Array as="points">
              <mxPoint x="820" y="300" />
            </Array>
          </mxGeometry>
        </mxCell>
        <mxCell id="xuuhESyIxA1c5PKOS_76-37" value="&lt;font style=&quot;font-size: 18px;&quot;&gt;𝜖&lt;/font&gt;" style="text;html=1;align=center;verticalAlign=middle;whiteSpace=wrap;rounded=0;" parent="1" vertex="1">
          <mxGeometry x="700" y="267" width="20" height="20" as="geometry" />
        </mxCell>
        <mxCell id="xuuhESyIxA1c5PKOS_76-39" value="&lt;font style=&quot;font-size: 18px;&quot;&gt;𝜖&lt;/font&gt;" style="text;html=1;align=center;verticalAlign=middle;whiteSpace=wrap;rounded=0;" parent="1" vertex="1">
          <mxGeometry x="700" y="310" width="20" height="20" as="geometry" />
        </mxCell>
      </root>
    </mxGraphModel>
  </diagram>
  <diagram id="y77KDg8ClLF4qjjTYf4D" name="P1.32">
    <mxGraphModel dx="1380" dy="843" grid="1" gridSize="10" guides="1" tooltips="1" connect="0" arrows="0" fold="1" page="1" pageScale="1" pageWidth="850" pageHeight="1100" math="0" shadow="0">
      <root>
        <mxCell id="0" />
        <mxCell id="1" parent="0" />
        <mxCell id="svwvXT8_LUP5L41M4OUA-1" value="Problem 1.32" style="swimlane;" parent="1" vertex="1">
          <mxGeometry x="10" y="10" width="465" height="410" as="geometry">
            <mxRectangle x="10" y="10" width="90" height="30" as="alternateBounds" />
          </mxGeometry>
        </mxCell>
        <mxCell id="svwvXT8_LUP5L41M4OUA-2" value="" style="ellipse;whiteSpace=wrap;html=1;aspect=fixed;" parent="svwvXT8_LUP5L41M4OUA-1" vertex="1">
          <mxGeometry x="331.5" y="120" width="40" height="40" as="geometry" />
        </mxCell>
        <mxCell id="svwvXT8_LUP5L41M4OUA-3" value="" style="group" parent="svwvXT8_LUP5L41M4OUA-1" vertex="1" connectable="0">
          <mxGeometry x="91.5" y="120" width="40" height="40" as="geometry" />
        </mxCell>
        <mxCell id="svwvXT8_LUP5L41M4OUA-4" value="" style="ellipse;whiteSpace=wrap;html=1;aspect=fixed;" parent="svwvXT8_LUP5L41M4OUA-3" vertex="1">
          <mxGeometry width="40" height="40" as="geometry" />
        </mxCell>
        <mxCell id="svwvXT8_LUP5L41M4OUA-5" value="" style="ellipse;whiteSpace=wrap;html=1;aspect=fixed;" parent="svwvXT8_LUP5L41M4OUA-3" vertex="1">
          <mxGeometry x="10" y="10" width="20" height="20" as="geometry" />
        </mxCell>
        <mxCell id="svwvXT8_LUP5L41M4OUA-6" value="" style="curved=1;endArrow=classic;html=1;rounded=0;entryX=0.354;entryY=0.021;entryDx=0;entryDy=0;entryPerimeter=0;exitX=0.67;exitY=0.025;exitDx=0;exitDy=0;exitPerimeter=0;endSize=8;" parent="svwvXT8_LUP5L41M4OUA-3" source="svwvXT8_LUP5L41M4OUA-4" target="svwvXT8_LUP5L41M4OUA-4" edge="1">
          <mxGeometry width="50" height="50" relative="1" as="geometry">
            <mxPoint x="20" y="-50" as="sourcePoint" />
            <mxPoint x="10" y="80" as="targetPoint" />
            <Array as="points">
              <mxPoint x="20" y="-80" />
            </Array>
          </mxGeometry>
        </mxCell>
        <mxCell id="svwvXT8_LUP5L41M4OUA-7" value="" style="ellipse;whiteSpace=wrap;html=1;aspect=fixed;" parent="svwvXT8_LUP5L41M4OUA-1" vertex="1">
          <mxGeometry x="211.5" y="280" width="40" height="40" as="geometry" />
        </mxCell>
        <mxCell id="svwvXT8_LUP5L41M4OUA-8" value="" style="endArrow=classic;html=1;rounded=0;strokeWidth=1;endSize=8;" parent="svwvXT8_LUP5L41M4OUA-1" target="svwvXT8_LUP5L41M4OUA-4" edge="1">
          <mxGeometry width="50" height="50" relative="1" as="geometry">
            <mxPoint x="51.5" y="140" as="sourcePoint" />
            <mxPoint x="71.5" y="140" as="targetPoint" />
          </mxGeometry>
        </mxCell>
        <mxCell id="svwvXT8_LUP5L41M4OUA-9" value="" style="endArrow=classic;html=1;rounded=0;endSize=8;" parent="svwvXT8_LUP5L41M4OUA-1" source="svwvXT8_LUP5L41M4OUA-4" target="svwvXT8_LUP5L41M4OUA-7" edge="1">
          <mxGeometry width="50" height="50" relative="1" as="geometry">
            <mxPoint x="71.5" y="370" as="sourcePoint" />
            <mxPoint x="121.5" y="320" as="targetPoint" />
          </mxGeometry>
        </mxCell>
        <mxCell id="svwvXT8_LUP5L41M4OUA-10" value="" style="endArrow=classic;html=1;rounded=0;endSize=8;" parent="svwvXT8_LUP5L41M4OUA-1" source="svwvXT8_LUP5L41M4OUA-2" target="svwvXT8_LUP5L41M4OUA-7" edge="1">
          <mxGeometry width="50" height="50" relative="1" as="geometry">
            <mxPoint x="133.5" y="166" as="sourcePoint" />
            <mxPoint x="229.5" y="294" as="targetPoint" />
          </mxGeometry>
        </mxCell>
        <mxCell id="svwvXT8_LUP5L41M4OUA-11" value="" style="curved=1;endArrow=classic;html=1;rounded=0;endSize=8;" parent="svwvXT8_LUP5L41M4OUA-1" source="svwvXT8_LUP5L41M4OUA-2" target="svwvXT8_LUP5L41M4OUA-4" edge="1">
          <mxGeometry width="50" height="50" relative="1" as="geometry">
            <mxPoint x="331.5" y="158" as="sourcePoint" />
            <mxPoint x="123.5" y="160" as="targetPoint" />
            <Array as="points">
              <mxPoint x="231.5" y="190" />
            </Array>
          </mxGeometry>
        </mxCell>
        <mxCell id="svwvXT8_LUP5L41M4OUA-12" value="" style="group" parent="svwvXT8_LUP5L41M4OUA-1" vertex="1" connectable="0">
          <mxGeometry x="221.5" y="180" width="20" height="40" as="geometry" />
        </mxCell>
        <mxCell id="svwvXT8_LUP5L41M4OUA-13" value="&lt;div&gt;0&lt;/div&gt;&lt;div&gt;0&lt;/div&gt;&lt;div&gt;1&lt;/div&gt;" style="shape=partialRectangle;whiteSpace=wrap;html=1;bottom=0;top=0;fillColor=none;" parent="svwvXT8_LUP5L41M4OUA-12" vertex="1">
          <mxGeometry width="20" height="40" as="geometry" />
        </mxCell>
        <mxCell id="svwvXT8_LUP5L41M4OUA-14" value="" style="endArrow=none;html=1;rounded=0;" parent="svwvXT8_LUP5L41M4OUA-12" edge="1">
          <mxGeometry width="50" height="50" relative="1" as="geometry">
            <mxPoint as="sourcePoint" />
            <mxPoint as="targetPoint" />
            <Array as="points">
              <mxPoint />
              <mxPoint x="3" />
            </Array>
          </mxGeometry>
        </mxCell>
        <mxCell id="svwvXT8_LUP5L41M4OUA-15" value="" style="endArrow=none;html=1;rounded=0;" parent="svwvXT8_LUP5L41M4OUA-12" edge="1">
          <mxGeometry width="50" height="50" relative="1" as="geometry">
            <mxPoint x="17" as="sourcePoint" />
            <mxPoint x="17" as="targetPoint" />
            <Array as="points">
              <mxPoint x="17" />
              <mxPoint x="20" />
            </Array>
          </mxGeometry>
        </mxCell>
        <mxCell id="svwvXT8_LUP5L41M4OUA-16" value="" style="endArrow=none;html=1;rounded=0;" parent="svwvXT8_LUP5L41M4OUA-12" edge="1">
          <mxGeometry width="50" height="50" relative="1" as="geometry">
            <mxPoint x="17" y="40" as="sourcePoint" />
            <mxPoint x="17" y="40" as="targetPoint" />
            <Array as="points">
              <mxPoint x="17" y="40" />
              <mxPoint x="20" y="40" />
            </Array>
          </mxGeometry>
        </mxCell>
        <mxCell id="svwvXT8_LUP5L41M4OUA-17" value="" style="endArrow=none;html=1;rounded=0;" parent="svwvXT8_LUP5L41M4OUA-12" edge="1">
          <mxGeometry width="50" height="50" relative="1" as="geometry">
            <mxPoint y="40" as="sourcePoint" />
            <mxPoint y="40" as="targetPoint" />
            <Array as="points">
              <mxPoint y="40" />
              <mxPoint x="3" y="40" />
            </Array>
          </mxGeometry>
        </mxCell>
        <mxCell id="svwvXT8_LUP5L41M4OUA-18" value="" style="group" parent="svwvXT8_LUP5L41M4OUA-1" vertex="1" connectable="0">
          <mxGeometry x="221.5" y="60" width="20" height="40" as="geometry" />
        </mxCell>
        <mxCell id="svwvXT8_LUP5L41M4OUA-19" value="&lt;div&gt;1&lt;/div&gt;&lt;div&gt;1&lt;/div&gt;&lt;div&gt;0&lt;/div&gt;" style="shape=partialRectangle;whiteSpace=wrap;html=1;bottom=0;top=0;fillColor=none;" parent="svwvXT8_LUP5L41M4OUA-18" vertex="1">
          <mxGeometry width="20" height="40" as="geometry" />
        </mxCell>
        <mxCell id="svwvXT8_LUP5L41M4OUA-20" value="" style="endArrow=none;html=1;rounded=0;" parent="svwvXT8_LUP5L41M4OUA-18" edge="1">
          <mxGeometry width="50" height="50" relative="1" as="geometry">
            <mxPoint as="sourcePoint" />
            <mxPoint as="targetPoint" />
            <Array as="points">
              <mxPoint />
              <mxPoint x="3" />
            </Array>
          </mxGeometry>
        </mxCell>
        <mxCell id="svwvXT8_LUP5L41M4OUA-21" value="" style="endArrow=none;html=1;rounded=0;" parent="svwvXT8_LUP5L41M4OUA-18" edge="1">
          <mxGeometry width="50" height="50" relative="1" as="geometry">
            <mxPoint x="17" as="sourcePoint" />
            <mxPoint x="17" as="targetPoint" />
            <Array as="points">
              <mxPoint x="17" />
              <mxPoint x="20" />
            </Array>
          </mxGeometry>
        </mxCell>
        <mxCell id="svwvXT8_LUP5L41M4OUA-22" value="" style="endArrow=none;html=1;rounded=0;" parent="svwvXT8_LUP5L41M4OUA-18" edge="1">
          <mxGeometry width="50" height="50" relative="1" as="geometry">
            <mxPoint x="17" y="40" as="sourcePoint" />
            <mxPoint x="17" y="40" as="targetPoint" />
            <Array as="points">
              <mxPoint x="17" y="40" />
              <mxPoint x="20" y="40" />
            </Array>
          </mxGeometry>
        </mxCell>
        <mxCell id="svwvXT8_LUP5L41M4OUA-23" value="" style="endArrow=none;html=1;rounded=0;" parent="svwvXT8_LUP5L41M4OUA-18" edge="1">
          <mxGeometry width="50" height="50" relative="1" as="geometry">
            <mxPoint y="40" as="sourcePoint" />
            <mxPoint y="40" as="targetPoint" />
            <Array as="points">
              <mxPoint y="40" />
              <mxPoint x="3" y="40" />
            </Array>
          </mxGeometry>
        </mxCell>
        <mxCell id="svwvXT8_LUP5L41M4OUA-24" value="" style="group" parent="svwvXT8_LUP5L41M4OUA-1" vertex="1" connectable="0">
          <mxGeometry x="291.5" y="240" width="20" height="40" as="geometry" />
        </mxCell>
        <mxCell id="svwvXT8_LUP5L41M4OUA-25" value="&lt;div&gt;0&lt;/div&gt;&lt;div&gt;0&lt;/div&gt;&lt;div&gt;0&lt;/div&gt;" style="shape=partialRectangle;whiteSpace=wrap;html=1;bottom=0;top=0;fillColor=none;" parent="svwvXT8_LUP5L41M4OUA-24" vertex="1">
          <mxGeometry width="20" height="40" as="geometry" />
        </mxCell>
        <mxCell id="svwvXT8_LUP5L41M4OUA-26" value="" style="endArrow=none;html=1;rounded=0;" parent="svwvXT8_LUP5L41M4OUA-24" edge="1">
          <mxGeometry width="50" height="50" relative="1" as="geometry">
            <mxPoint as="sourcePoint" />
            <mxPoint as="targetPoint" />
            <Array as="points">
              <mxPoint />
              <mxPoint x="3" />
            </Array>
          </mxGeometry>
        </mxCell>
        <mxCell id="svwvXT8_LUP5L41M4OUA-27" value="" style="endArrow=none;html=1;rounded=0;" parent="svwvXT8_LUP5L41M4OUA-24" edge="1">
          <mxGeometry width="50" height="50" relative="1" as="geometry">
            <mxPoint x="17" as="sourcePoint" />
            <mxPoint x="17" as="targetPoint" />
            <Array as="points">
              <mxPoint x="17" />
              <mxPoint x="20" />
            </Array>
          </mxGeometry>
        </mxCell>
        <mxCell id="svwvXT8_LUP5L41M4OUA-28" value="" style="endArrow=none;html=1;rounded=0;" parent="svwvXT8_LUP5L41M4OUA-24" edge="1">
          <mxGeometry width="50" height="50" relative="1" as="geometry">
            <mxPoint x="17" y="40" as="sourcePoint" />
            <mxPoint x="17" y="40" as="targetPoint" />
            <Array as="points">
              <mxPoint x="17" y="40" />
              <mxPoint x="20" y="40" />
            </Array>
          </mxGeometry>
        </mxCell>
        <mxCell id="svwvXT8_LUP5L41M4OUA-29" value="" style="endArrow=none;html=1;rounded=0;" parent="svwvXT8_LUP5L41M4OUA-24" edge="1">
          <mxGeometry width="50" height="50" relative="1" as="geometry">
            <mxPoint y="40" as="sourcePoint" />
            <mxPoint y="40" as="targetPoint" />
            <Array as="points">
              <mxPoint y="40" />
              <mxPoint x="3" y="40" />
            </Array>
          </mxGeometry>
        </mxCell>
        <mxCell id="svwvXT8_LUP5L41M4OUA-30" value="" style="group" parent="svwvXT8_LUP5L41M4OUA-1" vertex="1" connectable="0">
          <mxGeometry x="321.5" y="240" width="20" height="40" as="geometry" />
        </mxCell>
        <mxCell id="svwvXT8_LUP5L41M4OUA-31" value="&lt;div&gt;0&lt;/div&gt;&lt;div&gt;1&lt;/div&gt;&lt;div&gt;1&lt;/div&gt;" style="shape=partialRectangle;whiteSpace=wrap;html=1;bottom=0;top=0;fillColor=none;" parent="svwvXT8_LUP5L41M4OUA-30" vertex="1">
          <mxGeometry width="20" height="40" as="geometry" />
        </mxCell>
        <mxCell id="svwvXT8_LUP5L41M4OUA-32" value="" style="endArrow=none;html=1;rounded=0;" parent="svwvXT8_LUP5L41M4OUA-30" edge="1">
          <mxGeometry width="50" height="50" relative="1" as="geometry">
            <mxPoint as="sourcePoint" />
            <mxPoint as="targetPoint" />
            <Array as="points">
              <mxPoint />
              <mxPoint x="3" />
            </Array>
          </mxGeometry>
        </mxCell>
        <mxCell id="svwvXT8_LUP5L41M4OUA-33" value="" style="endArrow=none;html=1;rounded=0;" parent="svwvXT8_LUP5L41M4OUA-30" edge="1">
          <mxGeometry width="50" height="50" relative="1" as="geometry">
            <mxPoint x="17" as="sourcePoint" />
            <mxPoint x="17" as="targetPoint" />
            <Array as="points">
              <mxPoint x="17" />
              <mxPoint x="20" />
            </Array>
          </mxGeometry>
        </mxCell>
        <mxCell id="svwvXT8_LUP5L41M4OUA-34" value="" style="endArrow=none;html=1;rounded=0;" parent="svwvXT8_LUP5L41M4OUA-30" edge="1">
          <mxGeometry width="50" height="50" relative="1" as="geometry">
            <mxPoint x="17" y="40" as="sourcePoint" />
            <mxPoint x="17" y="40" as="targetPoint" />
            <Array as="points">
              <mxPoint x="17" y="40" />
              <mxPoint x="20" y="40" />
            </Array>
          </mxGeometry>
        </mxCell>
        <mxCell id="svwvXT8_LUP5L41M4OUA-35" value="" style="endArrow=none;html=1;rounded=0;" parent="svwvXT8_LUP5L41M4OUA-30" edge="1">
          <mxGeometry width="50" height="50" relative="1" as="geometry">
            <mxPoint y="40" as="sourcePoint" />
            <mxPoint y="40" as="targetPoint" />
            <Array as="points">
              <mxPoint y="40" />
              <mxPoint x="3" y="40" />
            </Array>
          </mxGeometry>
        </mxCell>
        <mxCell id="svwvXT8_LUP5L41M4OUA-36" value="" style="group" parent="svwvXT8_LUP5L41M4OUA-1" vertex="1" connectable="0">
          <mxGeometry x="351.5" y="240" width="20" height="40" as="geometry" />
        </mxCell>
        <mxCell id="svwvXT8_LUP5L41M4OUA-37" value="&lt;div&gt;1&lt;/div&gt;&lt;div&gt;0&lt;/div&gt;&lt;div&gt;1&lt;/div&gt;" style="shape=partialRectangle;whiteSpace=wrap;html=1;bottom=0;top=0;fillColor=none;" parent="svwvXT8_LUP5L41M4OUA-36" vertex="1">
          <mxGeometry width="20" height="40" as="geometry" />
        </mxCell>
        <mxCell id="svwvXT8_LUP5L41M4OUA-38" value="" style="endArrow=none;html=1;rounded=0;" parent="svwvXT8_LUP5L41M4OUA-36" edge="1">
          <mxGeometry width="50" height="50" relative="1" as="geometry">
            <mxPoint as="sourcePoint" />
            <mxPoint as="targetPoint" />
            <Array as="points">
              <mxPoint />
              <mxPoint x="3" />
            </Array>
          </mxGeometry>
        </mxCell>
        <mxCell id="svwvXT8_LUP5L41M4OUA-39" value="" style="endArrow=none;html=1;rounded=0;" parent="svwvXT8_LUP5L41M4OUA-36" edge="1">
          <mxGeometry width="50" height="50" relative="1" as="geometry">
            <mxPoint x="17" as="sourcePoint" />
            <mxPoint x="17" as="targetPoint" />
            <Array as="points">
              <mxPoint x="17" />
              <mxPoint x="20" />
            </Array>
          </mxGeometry>
        </mxCell>
        <mxCell id="svwvXT8_LUP5L41M4OUA-40" value="" style="endArrow=none;html=1;rounded=0;" parent="svwvXT8_LUP5L41M4OUA-36" edge="1">
          <mxGeometry width="50" height="50" relative="1" as="geometry">
            <mxPoint x="17" y="40" as="sourcePoint" />
            <mxPoint x="17" y="40" as="targetPoint" />
            <Array as="points">
              <mxPoint x="17" y="40" />
              <mxPoint x="20" y="40" />
            </Array>
          </mxGeometry>
        </mxCell>
        <mxCell id="svwvXT8_LUP5L41M4OUA-41" value="" style="endArrow=none;html=1;rounded=0;" parent="svwvXT8_LUP5L41M4OUA-36" edge="1">
          <mxGeometry width="50" height="50" relative="1" as="geometry">
            <mxPoint y="40" as="sourcePoint" />
            <mxPoint y="40" as="targetPoint" />
            <Array as="points">
              <mxPoint y="40" />
              <mxPoint x="3" y="40" />
            </Array>
          </mxGeometry>
        </mxCell>
        <mxCell id="svwvXT8_LUP5L41M4OUA-42" value="" style="group" parent="svwvXT8_LUP5L41M4OUA-1" vertex="1" connectable="0">
          <mxGeometry x="16.5" y="60" width="20" height="40" as="geometry" />
        </mxCell>
        <mxCell id="svwvXT8_LUP5L41M4OUA-43" value="&lt;div&gt;0&lt;/div&gt;&lt;div&gt;0&lt;/div&gt;&lt;div&gt;0&lt;/div&gt;" style="shape=partialRectangle;whiteSpace=wrap;html=1;bottom=0;top=0;fillColor=none;" parent="svwvXT8_LUP5L41M4OUA-42" vertex="1">
          <mxGeometry width="20" height="40" as="geometry" />
        </mxCell>
        <mxCell id="svwvXT8_LUP5L41M4OUA-44" value="" style="endArrow=none;html=1;rounded=0;" parent="svwvXT8_LUP5L41M4OUA-42" edge="1">
          <mxGeometry width="50" height="50" relative="1" as="geometry">
            <mxPoint as="sourcePoint" />
            <mxPoint as="targetPoint" />
            <Array as="points">
              <mxPoint />
              <mxPoint x="3" />
            </Array>
          </mxGeometry>
        </mxCell>
        <mxCell id="svwvXT8_LUP5L41M4OUA-45" value="" style="endArrow=none;html=1;rounded=0;" parent="svwvXT8_LUP5L41M4OUA-42" edge="1">
          <mxGeometry width="50" height="50" relative="1" as="geometry">
            <mxPoint x="17" as="sourcePoint" />
            <mxPoint x="17" as="targetPoint" />
            <Array as="points">
              <mxPoint x="17" />
              <mxPoint x="20" />
            </Array>
          </mxGeometry>
        </mxCell>
        <mxCell id="svwvXT8_LUP5L41M4OUA-46" value="" style="endArrow=none;html=1;rounded=0;" parent="svwvXT8_LUP5L41M4OUA-42" edge="1">
          <mxGeometry width="50" height="50" relative="1" as="geometry">
            <mxPoint x="17" y="40" as="sourcePoint" />
            <mxPoint x="17" y="40" as="targetPoint" />
            <Array as="points">
              <mxPoint x="17" y="40" />
              <mxPoint x="20" y="40" />
            </Array>
          </mxGeometry>
        </mxCell>
        <mxCell id="svwvXT8_LUP5L41M4OUA-47" value="" style="endArrow=none;html=1;rounded=0;" parent="svwvXT8_LUP5L41M4OUA-42" edge="1">
          <mxGeometry width="50" height="50" relative="1" as="geometry">
            <mxPoint y="40" as="sourcePoint" />
            <mxPoint y="40" as="targetPoint" />
            <Array as="points">
              <mxPoint y="40" />
              <mxPoint x="3" y="40" />
            </Array>
          </mxGeometry>
        </mxCell>
        <mxCell id="svwvXT8_LUP5L41M4OUA-48" value="" style="group" parent="svwvXT8_LUP5L41M4OUA-1" vertex="1" connectable="0">
          <mxGeometry x="46.5" y="60" width="20" height="40" as="geometry" />
        </mxCell>
        <mxCell id="svwvXT8_LUP5L41M4OUA-49" value="&lt;div&gt;0&lt;/div&gt;&lt;div&gt;1&lt;/div&gt;&lt;div&gt;1&lt;/div&gt;" style="shape=partialRectangle;whiteSpace=wrap;html=1;bottom=0;top=0;fillColor=none;" parent="svwvXT8_LUP5L41M4OUA-48" vertex="1">
          <mxGeometry width="20" height="40" as="geometry" />
        </mxCell>
        <mxCell id="svwvXT8_LUP5L41M4OUA-50" value="" style="endArrow=none;html=1;rounded=0;" parent="svwvXT8_LUP5L41M4OUA-48" edge="1">
          <mxGeometry width="50" height="50" relative="1" as="geometry">
            <mxPoint as="sourcePoint" />
            <mxPoint as="targetPoint" />
            <Array as="points">
              <mxPoint />
              <mxPoint x="3" />
            </Array>
          </mxGeometry>
        </mxCell>
        <mxCell id="svwvXT8_LUP5L41M4OUA-51" value="" style="endArrow=none;html=1;rounded=0;" parent="svwvXT8_LUP5L41M4OUA-48" edge="1">
          <mxGeometry width="50" height="50" relative="1" as="geometry">
            <mxPoint x="17" as="sourcePoint" />
            <mxPoint x="17" as="targetPoint" />
            <Array as="points">
              <mxPoint x="17" />
              <mxPoint x="20" />
            </Array>
          </mxGeometry>
        </mxCell>
        <mxCell id="svwvXT8_LUP5L41M4OUA-52" value="" style="endArrow=none;html=1;rounded=0;" parent="svwvXT8_LUP5L41M4OUA-48" edge="1">
          <mxGeometry width="50" height="50" relative="1" as="geometry">
            <mxPoint x="17" y="40" as="sourcePoint" />
            <mxPoint x="17" y="40" as="targetPoint" />
            <Array as="points">
              <mxPoint x="17" y="40" />
              <mxPoint x="20" y="40" />
            </Array>
          </mxGeometry>
        </mxCell>
        <mxCell id="svwvXT8_LUP5L41M4OUA-53" value="" style="endArrow=none;html=1;rounded=0;" parent="svwvXT8_LUP5L41M4OUA-48" edge="1">
          <mxGeometry width="50" height="50" relative="1" as="geometry">
            <mxPoint y="40" as="sourcePoint" />
            <mxPoint y="40" as="targetPoint" />
            <Array as="points">
              <mxPoint y="40" />
              <mxPoint x="3" y="40" />
            </Array>
          </mxGeometry>
        </mxCell>
        <mxCell id="svwvXT8_LUP5L41M4OUA-54" value="" style="group" parent="svwvXT8_LUP5L41M4OUA-1" vertex="1" connectable="0">
          <mxGeometry x="76.5" y="60" width="20" height="40" as="geometry" />
        </mxCell>
        <mxCell id="svwvXT8_LUP5L41M4OUA-55" value="&lt;div&gt;1&lt;/div&gt;&lt;div&gt;0&lt;/div&gt;&lt;div&gt;1&lt;/div&gt;" style="shape=partialRectangle;whiteSpace=wrap;html=1;bottom=0;top=0;fillColor=none;" parent="svwvXT8_LUP5L41M4OUA-54" vertex="1">
          <mxGeometry width="20" height="40" as="geometry" />
        </mxCell>
        <mxCell id="svwvXT8_LUP5L41M4OUA-56" value="" style="endArrow=none;html=1;rounded=0;" parent="svwvXT8_LUP5L41M4OUA-54" edge="1">
          <mxGeometry width="50" height="50" relative="1" as="geometry">
            <mxPoint as="sourcePoint" />
            <mxPoint as="targetPoint" />
            <Array as="points">
              <mxPoint />
              <mxPoint x="3" />
            </Array>
          </mxGeometry>
        </mxCell>
        <mxCell id="svwvXT8_LUP5L41M4OUA-57" value="" style="endArrow=none;html=1;rounded=0;" parent="svwvXT8_LUP5L41M4OUA-54" edge="1">
          <mxGeometry width="50" height="50" relative="1" as="geometry">
            <mxPoint x="17" as="sourcePoint" />
            <mxPoint x="17" as="targetPoint" />
            <Array as="points">
              <mxPoint x="17" />
              <mxPoint x="20" />
            </Array>
          </mxGeometry>
        </mxCell>
        <mxCell id="svwvXT8_LUP5L41M4OUA-58" value="" style="endArrow=none;html=1;rounded=0;" parent="svwvXT8_LUP5L41M4OUA-54" edge="1">
          <mxGeometry width="50" height="50" relative="1" as="geometry">
            <mxPoint x="17" y="40" as="sourcePoint" />
            <mxPoint x="17" y="40" as="targetPoint" />
            <Array as="points">
              <mxPoint x="17" y="40" />
              <mxPoint x="20" y="40" />
            </Array>
          </mxGeometry>
        </mxCell>
        <mxCell id="svwvXT8_LUP5L41M4OUA-59" value="" style="endArrow=none;html=1;rounded=0;" parent="svwvXT8_LUP5L41M4OUA-54" edge="1">
          <mxGeometry width="50" height="50" relative="1" as="geometry">
            <mxPoint y="40" as="sourcePoint" />
            <mxPoint y="40" as="targetPoint" />
            <Array as="points">
              <mxPoint y="40" />
              <mxPoint x="3" y="40" />
            </Array>
          </mxGeometry>
        </mxCell>
        <mxCell id="svwvXT8_LUP5L41M4OUA-60" value="" style="curved=1;endArrow=classic;html=1;rounded=0;entryX=0.354;entryY=0.021;entryDx=0;entryDy=0;entryPerimeter=0;exitX=0.67;exitY=0.025;exitDx=0;exitDy=0;exitPerimeter=0;endSize=8;" parent="svwvXT8_LUP5L41M4OUA-1" edge="1">
          <mxGeometry width="50" height="50" relative="1" as="geometry">
            <mxPoint x="359" y="121" as="sourcePoint" />
            <mxPoint x="346" y="121" as="targetPoint" />
            <Array as="points">
              <mxPoint x="352" y="40" />
            </Array>
          </mxGeometry>
        </mxCell>
        <mxCell id="svwvXT8_LUP5L41M4OUA-61" value="" style="group" parent="svwvXT8_LUP5L41M4OUA-1" vertex="1" connectable="0">
          <mxGeometry x="368.5" y="60" width="20" height="40" as="geometry" />
        </mxCell>
        <mxCell id="svwvXT8_LUP5L41M4OUA-62" value="&lt;div&gt;0&lt;/div&gt;&lt;div&gt;1&lt;/div&gt;&lt;div&gt;0&lt;/div&gt;" style="shape=partialRectangle;whiteSpace=wrap;html=1;bottom=0;top=0;fillColor=none;" parent="svwvXT8_LUP5L41M4OUA-61" vertex="1">
          <mxGeometry width="20" height="40" as="geometry" />
        </mxCell>
        <mxCell id="svwvXT8_LUP5L41M4OUA-63" value="" style="endArrow=none;html=1;rounded=0;" parent="svwvXT8_LUP5L41M4OUA-61" edge="1">
          <mxGeometry width="50" height="50" relative="1" as="geometry">
            <mxPoint as="sourcePoint" />
            <mxPoint as="targetPoint" />
            <Array as="points">
              <mxPoint />
              <mxPoint x="3" />
            </Array>
          </mxGeometry>
        </mxCell>
        <mxCell id="svwvXT8_LUP5L41M4OUA-64" value="" style="endArrow=none;html=1;rounded=0;" parent="svwvXT8_LUP5L41M4OUA-61" edge="1">
          <mxGeometry width="50" height="50" relative="1" as="geometry">
            <mxPoint x="17" as="sourcePoint" />
            <mxPoint x="17" as="targetPoint" />
            <Array as="points">
              <mxPoint x="17" />
              <mxPoint x="20" />
            </Array>
          </mxGeometry>
        </mxCell>
        <mxCell id="svwvXT8_LUP5L41M4OUA-65" value="" style="endArrow=none;html=1;rounded=0;" parent="svwvXT8_LUP5L41M4OUA-61" edge="1">
          <mxGeometry width="50" height="50" relative="1" as="geometry">
            <mxPoint x="17" y="40" as="sourcePoint" />
            <mxPoint x="17" y="40" as="targetPoint" />
            <Array as="points">
              <mxPoint x="17" y="40" />
              <mxPoint x="20" y="40" />
            </Array>
          </mxGeometry>
        </mxCell>
        <mxCell id="svwvXT8_LUP5L41M4OUA-66" value="" style="endArrow=none;html=1;rounded=0;" parent="svwvXT8_LUP5L41M4OUA-61" edge="1">
          <mxGeometry width="50" height="50" relative="1" as="geometry">
            <mxPoint y="40" as="sourcePoint" />
            <mxPoint y="40" as="targetPoint" />
            <Array as="points">
              <mxPoint y="40" />
              <mxPoint x="3" y="40" />
            </Array>
          </mxGeometry>
        </mxCell>
        <mxCell id="svwvXT8_LUP5L41M4OUA-67" value="" style="group" parent="svwvXT8_LUP5L41M4OUA-1" vertex="1" connectable="0">
          <mxGeometry x="398.5" y="60" width="20" height="40" as="geometry" />
        </mxCell>
        <mxCell id="svwvXT8_LUP5L41M4OUA-68" value="&lt;div&gt;1&lt;/div&gt;&lt;div&gt;0&lt;/div&gt;&lt;div&gt;0&lt;/div&gt;" style="shape=partialRectangle;whiteSpace=wrap;html=1;bottom=0;top=0;fillColor=none;" parent="svwvXT8_LUP5L41M4OUA-67" vertex="1">
          <mxGeometry width="20" height="40" as="geometry" />
        </mxCell>
        <mxCell id="svwvXT8_LUP5L41M4OUA-69" value="" style="endArrow=none;html=1;rounded=0;" parent="svwvXT8_LUP5L41M4OUA-67" edge="1">
          <mxGeometry width="50" height="50" relative="1" as="geometry">
            <mxPoint as="sourcePoint" />
            <mxPoint as="targetPoint" />
            <Array as="points">
              <mxPoint />
              <mxPoint x="3" />
            </Array>
          </mxGeometry>
        </mxCell>
        <mxCell id="svwvXT8_LUP5L41M4OUA-70" value="" style="endArrow=none;html=1;rounded=0;" parent="svwvXT8_LUP5L41M4OUA-67" edge="1">
          <mxGeometry width="50" height="50" relative="1" as="geometry">
            <mxPoint x="17" as="sourcePoint" />
            <mxPoint x="17" as="targetPoint" />
            <Array as="points">
              <mxPoint x="17" />
              <mxPoint x="20" />
            </Array>
          </mxGeometry>
        </mxCell>
        <mxCell id="svwvXT8_LUP5L41M4OUA-71" value="" style="endArrow=none;html=1;rounded=0;" parent="svwvXT8_LUP5L41M4OUA-67" edge="1">
          <mxGeometry width="50" height="50" relative="1" as="geometry">
            <mxPoint x="17" y="40" as="sourcePoint" />
            <mxPoint x="17" y="40" as="targetPoint" />
            <Array as="points">
              <mxPoint x="17" y="40" />
              <mxPoint x="20" y="40" />
            </Array>
          </mxGeometry>
        </mxCell>
        <mxCell id="svwvXT8_LUP5L41M4OUA-72" value="" style="endArrow=none;html=1;rounded=0;" parent="svwvXT8_LUP5L41M4OUA-67" edge="1">
          <mxGeometry width="50" height="50" relative="1" as="geometry">
            <mxPoint y="40" as="sourcePoint" />
            <mxPoint y="40" as="targetPoint" />
            <Array as="points">
              <mxPoint y="40" />
              <mxPoint x="3" y="40" />
            </Array>
          </mxGeometry>
        </mxCell>
        <mxCell id="svwvXT8_LUP5L41M4OUA-73" value="" style="group" parent="svwvXT8_LUP5L41M4OUA-1" vertex="1" connectable="0">
          <mxGeometry x="428.5" y="60" width="20" height="40" as="geometry" />
        </mxCell>
        <mxCell id="svwvXT8_LUP5L41M4OUA-74" value="&lt;div&gt;1&lt;/div&gt;&lt;div&gt;1&lt;/div&gt;&lt;div&gt;1&lt;/div&gt;" style="shape=partialRectangle;whiteSpace=wrap;html=1;bottom=0;top=0;fillColor=none;" parent="svwvXT8_LUP5L41M4OUA-73" vertex="1">
          <mxGeometry width="20" height="40" as="geometry" />
        </mxCell>
        <mxCell id="svwvXT8_LUP5L41M4OUA-75" value="" style="endArrow=none;html=1;rounded=0;" parent="svwvXT8_LUP5L41M4OUA-73" edge="1">
          <mxGeometry width="50" height="50" relative="1" as="geometry">
            <mxPoint as="sourcePoint" />
            <mxPoint as="targetPoint" />
            <Array as="points">
              <mxPoint />
              <mxPoint x="3" />
            </Array>
          </mxGeometry>
        </mxCell>
        <mxCell id="svwvXT8_LUP5L41M4OUA-76" value="" style="endArrow=none;html=1;rounded=0;" parent="svwvXT8_LUP5L41M4OUA-73" edge="1">
          <mxGeometry width="50" height="50" relative="1" as="geometry">
            <mxPoint x="17" as="sourcePoint" />
            <mxPoint x="17" as="targetPoint" />
            <Array as="points">
              <mxPoint x="17" />
              <mxPoint x="20" />
            </Array>
          </mxGeometry>
        </mxCell>
        <mxCell id="svwvXT8_LUP5L41M4OUA-77" value="" style="endArrow=none;html=1;rounded=0;" parent="svwvXT8_LUP5L41M4OUA-73" edge="1">
          <mxGeometry width="50" height="50" relative="1" as="geometry">
            <mxPoint x="17" y="40" as="sourcePoint" />
            <mxPoint x="17" y="40" as="targetPoint" />
            <Array as="points">
              <mxPoint x="17" y="40" />
              <mxPoint x="20" y="40" />
            </Array>
          </mxGeometry>
        </mxCell>
        <mxCell id="svwvXT8_LUP5L41M4OUA-78" value="" style="endArrow=none;html=1;rounded=0;" parent="svwvXT8_LUP5L41M4OUA-73" edge="1">
          <mxGeometry width="50" height="50" relative="1" as="geometry">
            <mxPoint y="40" as="sourcePoint" />
            <mxPoint y="40" as="targetPoint" />
            <Array as="points">
              <mxPoint y="40" />
              <mxPoint x="3" y="40" />
            </Array>
          </mxGeometry>
        </mxCell>
        <mxCell id="svwvXT8_LUP5L41M4OUA-79" value="" style="group" parent="svwvXT8_LUP5L41M4OUA-1" vertex="1" connectable="0">
          <mxGeometry x="381.5" y="240" width="20" height="40" as="geometry" />
        </mxCell>
        <mxCell id="svwvXT8_LUP5L41M4OUA-80" value="&lt;div&gt;1&lt;/div&gt;&lt;div&gt;1&lt;/div&gt;&lt;div&gt;0&lt;/div&gt;" style="shape=partialRectangle;whiteSpace=wrap;html=1;bottom=0;top=0;fillColor=none;" parent="svwvXT8_LUP5L41M4OUA-79" vertex="1">
          <mxGeometry width="20" height="40" as="geometry" />
        </mxCell>
        <mxCell id="svwvXT8_LUP5L41M4OUA-81" value="" style="endArrow=none;html=1;rounded=0;" parent="svwvXT8_LUP5L41M4OUA-79" edge="1">
          <mxGeometry width="50" height="50" relative="1" as="geometry">
            <mxPoint as="sourcePoint" />
            <mxPoint as="targetPoint" />
            <Array as="points">
              <mxPoint />
              <mxPoint x="3" />
            </Array>
          </mxGeometry>
        </mxCell>
        <mxCell id="svwvXT8_LUP5L41M4OUA-82" value="" style="endArrow=none;html=1;rounded=0;" parent="svwvXT8_LUP5L41M4OUA-79" edge="1">
          <mxGeometry width="50" height="50" relative="1" as="geometry">
            <mxPoint x="17" as="sourcePoint" />
            <mxPoint x="17" as="targetPoint" />
            <Array as="points">
              <mxPoint x="17" />
              <mxPoint x="20" />
            </Array>
          </mxGeometry>
        </mxCell>
        <mxCell id="svwvXT8_LUP5L41M4OUA-83" value="" style="endArrow=none;html=1;rounded=0;" parent="svwvXT8_LUP5L41M4OUA-79" edge="1">
          <mxGeometry width="50" height="50" relative="1" as="geometry">
            <mxPoint x="17" y="40" as="sourcePoint" />
            <mxPoint x="17" y="40" as="targetPoint" />
            <Array as="points">
              <mxPoint x="17" y="40" />
              <mxPoint x="20" y="40" />
            </Array>
          </mxGeometry>
        </mxCell>
        <mxCell id="svwvXT8_LUP5L41M4OUA-84" value="" style="endArrow=none;html=1;rounded=0;" parent="svwvXT8_LUP5L41M4OUA-79" edge="1">
          <mxGeometry width="50" height="50" relative="1" as="geometry">
            <mxPoint y="40" as="sourcePoint" />
            <mxPoint y="40" as="targetPoint" />
            <Array as="points">
              <mxPoint y="40" />
              <mxPoint x="3" y="40" />
            </Array>
          </mxGeometry>
        </mxCell>
        <mxCell id="svwvXT8_LUP5L41M4OUA-85" value="" style="group" parent="svwvXT8_LUP5L41M4OUA-1" vertex="1" connectable="0">
          <mxGeometry x="61.5" y="240" width="20" height="40" as="geometry" />
        </mxCell>
        <mxCell id="svwvXT8_LUP5L41M4OUA-86" value="&lt;div&gt;0&lt;/div&gt;&lt;div&gt;0&lt;/div&gt;&lt;div&gt;1&lt;/div&gt;" style="shape=partialRectangle;whiteSpace=wrap;html=1;bottom=0;top=0;fillColor=none;" parent="svwvXT8_LUP5L41M4OUA-85" vertex="1">
          <mxGeometry width="20" height="40" as="geometry" />
        </mxCell>
        <mxCell id="svwvXT8_LUP5L41M4OUA-87" value="" style="endArrow=none;html=1;rounded=0;" parent="svwvXT8_LUP5L41M4OUA-85" edge="1">
          <mxGeometry width="50" height="50" relative="1" as="geometry">
            <mxPoint as="sourcePoint" />
            <mxPoint as="targetPoint" />
            <Array as="points">
              <mxPoint />
              <mxPoint x="3" />
            </Array>
          </mxGeometry>
        </mxCell>
        <mxCell id="svwvXT8_LUP5L41M4OUA-88" value="" style="endArrow=none;html=1;rounded=0;" parent="svwvXT8_LUP5L41M4OUA-85" edge="1">
          <mxGeometry width="50" height="50" relative="1" as="geometry">
            <mxPoint x="17" as="sourcePoint" />
            <mxPoint x="17" as="targetPoint" />
            <Array as="points">
              <mxPoint x="17" />
              <mxPoint x="20" />
            </Array>
          </mxGeometry>
        </mxCell>
        <mxCell id="svwvXT8_LUP5L41M4OUA-89" value="" style="endArrow=none;html=1;rounded=0;" parent="svwvXT8_LUP5L41M4OUA-85" edge="1">
          <mxGeometry width="50" height="50" relative="1" as="geometry">
            <mxPoint x="17" y="40" as="sourcePoint" />
            <mxPoint x="17" y="40" as="targetPoint" />
            <Array as="points">
              <mxPoint x="17" y="40" />
              <mxPoint x="20" y="40" />
            </Array>
          </mxGeometry>
        </mxCell>
        <mxCell id="svwvXT8_LUP5L41M4OUA-90" value="" style="endArrow=none;html=1;rounded=0;" parent="svwvXT8_LUP5L41M4OUA-85" edge="1">
          <mxGeometry width="50" height="50" relative="1" as="geometry">
            <mxPoint y="40" as="sourcePoint" />
            <mxPoint y="40" as="targetPoint" />
            <Array as="points">
              <mxPoint y="40" />
              <mxPoint x="3" y="40" />
            </Array>
          </mxGeometry>
        </mxCell>
        <mxCell id="svwvXT8_LUP5L41M4OUA-91" value="" style="group" parent="svwvXT8_LUP5L41M4OUA-1" vertex="1" connectable="0">
          <mxGeometry x="91.5" y="240" width="20" height="40" as="geometry" />
        </mxCell>
        <mxCell id="svwvXT8_LUP5L41M4OUA-92" value="&lt;div&gt;0&lt;/div&gt;&lt;div&gt;1&lt;/div&gt;&lt;div&gt;0&lt;/div&gt;" style="shape=partialRectangle;whiteSpace=wrap;html=1;bottom=0;top=0;fillColor=none;" parent="svwvXT8_LUP5L41M4OUA-91" vertex="1">
          <mxGeometry width="20" height="40" as="geometry" />
        </mxCell>
        <mxCell id="svwvXT8_LUP5L41M4OUA-93" value="" style="endArrow=none;html=1;rounded=0;" parent="svwvXT8_LUP5L41M4OUA-91" edge="1">
          <mxGeometry width="50" height="50" relative="1" as="geometry">
            <mxPoint as="sourcePoint" />
            <mxPoint as="targetPoint" />
            <Array as="points">
              <mxPoint />
              <mxPoint x="3" />
            </Array>
          </mxGeometry>
        </mxCell>
        <mxCell id="svwvXT8_LUP5L41M4OUA-94" value="" style="endArrow=none;html=1;rounded=0;" parent="svwvXT8_LUP5L41M4OUA-91" edge="1">
          <mxGeometry width="50" height="50" relative="1" as="geometry">
            <mxPoint x="17" as="sourcePoint" />
            <mxPoint x="17" as="targetPoint" />
            <Array as="points">
              <mxPoint x="17" />
              <mxPoint x="20" />
            </Array>
          </mxGeometry>
        </mxCell>
        <mxCell id="svwvXT8_LUP5L41M4OUA-95" value="" style="endArrow=none;html=1;rounded=0;" parent="svwvXT8_LUP5L41M4OUA-91" edge="1">
          <mxGeometry width="50" height="50" relative="1" as="geometry">
            <mxPoint x="17" y="40" as="sourcePoint" />
            <mxPoint x="17" y="40" as="targetPoint" />
            <Array as="points">
              <mxPoint x="17" y="40" />
              <mxPoint x="20" y="40" />
            </Array>
          </mxGeometry>
        </mxCell>
        <mxCell id="svwvXT8_LUP5L41M4OUA-96" value="" style="endArrow=none;html=1;rounded=0;" parent="svwvXT8_LUP5L41M4OUA-91" edge="1">
          <mxGeometry width="50" height="50" relative="1" as="geometry">
            <mxPoint y="40" as="sourcePoint" />
            <mxPoint y="40" as="targetPoint" />
            <Array as="points">
              <mxPoint y="40" />
              <mxPoint x="3" y="40" />
            </Array>
          </mxGeometry>
        </mxCell>
        <mxCell id="svwvXT8_LUP5L41M4OUA-97" value="" style="group" parent="svwvXT8_LUP5L41M4OUA-1" vertex="1" connectable="0">
          <mxGeometry x="121.5" y="240" width="20" height="40" as="geometry" />
        </mxCell>
        <mxCell id="svwvXT8_LUP5L41M4OUA-98" value="&lt;div&gt;1&lt;/div&gt;&lt;div&gt;0&lt;/div&gt;&lt;div&gt;0&lt;/div&gt;" style="shape=partialRectangle;whiteSpace=wrap;html=1;bottom=0;top=0;fillColor=none;" parent="svwvXT8_LUP5L41M4OUA-97" vertex="1">
          <mxGeometry width="20" height="40" as="geometry" />
        </mxCell>
        <mxCell id="svwvXT8_LUP5L41M4OUA-99" value="" style="endArrow=none;html=1;rounded=0;" parent="svwvXT8_LUP5L41M4OUA-97" edge="1">
          <mxGeometry width="50" height="50" relative="1" as="geometry">
            <mxPoint as="sourcePoint" />
            <mxPoint as="targetPoint" />
            <Array as="points">
              <mxPoint />
              <mxPoint x="3" />
            </Array>
          </mxGeometry>
        </mxCell>
        <mxCell id="svwvXT8_LUP5L41M4OUA-100" value="" style="endArrow=none;html=1;rounded=0;" parent="svwvXT8_LUP5L41M4OUA-97" edge="1">
          <mxGeometry width="50" height="50" relative="1" as="geometry">
            <mxPoint x="17" as="sourcePoint" />
            <mxPoint x="17" as="targetPoint" />
            <Array as="points">
              <mxPoint x="17" />
              <mxPoint x="20" />
            </Array>
          </mxGeometry>
        </mxCell>
        <mxCell id="svwvXT8_LUP5L41M4OUA-101" value="" style="endArrow=none;html=1;rounded=0;" parent="svwvXT8_LUP5L41M4OUA-97" edge="1">
          <mxGeometry width="50" height="50" relative="1" as="geometry">
            <mxPoint x="17" y="40" as="sourcePoint" />
            <mxPoint x="17" y="40" as="targetPoint" />
            <Array as="points">
              <mxPoint x="17" y="40" />
              <mxPoint x="20" y="40" />
            </Array>
          </mxGeometry>
        </mxCell>
        <mxCell id="svwvXT8_LUP5L41M4OUA-102" value="" style="endArrow=none;html=1;rounded=0;" parent="svwvXT8_LUP5L41M4OUA-97" edge="1">
          <mxGeometry width="50" height="50" relative="1" as="geometry">
            <mxPoint y="40" as="sourcePoint" />
            <mxPoint y="40" as="targetPoint" />
            <Array as="points">
              <mxPoint y="40" />
              <mxPoint x="3" y="40" />
            </Array>
          </mxGeometry>
        </mxCell>
        <mxCell id="svwvXT8_LUP5L41M4OUA-103" value="" style="group" parent="svwvXT8_LUP5L41M4OUA-1" vertex="1" connectable="0">
          <mxGeometry x="151.5" y="240" width="20" height="40" as="geometry" />
        </mxCell>
        <mxCell id="svwvXT8_LUP5L41M4OUA-104" value="&lt;div&gt;1&lt;/div&gt;&lt;div&gt;1&lt;/div&gt;&lt;div&gt;1&lt;/div&gt;" style="shape=partialRectangle;whiteSpace=wrap;html=1;bottom=0;top=0;fillColor=none;" parent="svwvXT8_LUP5L41M4OUA-103" vertex="1">
          <mxGeometry width="20" height="40" as="geometry" />
        </mxCell>
        <mxCell id="svwvXT8_LUP5L41M4OUA-105" value="" style="endArrow=none;html=1;rounded=0;" parent="svwvXT8_LUP5L41M4OUA-103" edge="1">
          <mxGeometry width="50" height="50" relative="1" as="geometry">
            <mxPoint as="sourcePoint" />
            <mxPoint as="targetPoint" />
            <Array as="points">
              <mxPoint />
              <mxPoint x="3" />
            </Array>
          </mxGeometry>
        </mxCell>
        <mxCell id="svwvXT8_LUP5L41M4OUA-106" value="" style="endArrow=none;html=1;rounded=0;" parent="svwvXT8_LUP5L41M4OUA-103" edge="1">
          <mxGeometry width="50" height="50" relative="1" as="geometry">
            <mxPoint x="17" as="sourcePoint" />
            <mxPoint x="17" as="targetPoint" />
            <Array as="points">
              <mxPoint x="17" />
              <mxPoint x="20" />
            </Array>
          </mxGeometry>
        </mxCell>
        <mxCell id="svwvXT8_LUP5L41M4OUA-107" value="" style="endArrow=none;html=1;rounded=0;" parent="svwvXT8_LUP5L41M4OUA-103" edge="1">
          <mxGeometry width="50" height="50" relative="1" as="geometry">
            <mxPoint x="17" y="40" as="sourcePoint" />
            <mxPoint x="17" y="40" as="targetPoint" />
            <Array as="points">
              <mxPoint x="17" y="40" />
              <mxPoint x="20" y="40" />
            </Array>
          </mxGeometry>
        </mxCell>
        <mxCell id="svwvXT8_LUP5L41M4OUA-108" value="" style="endArrow=none;html=1;rounded=0;" parent="svwvXT8_LUP5L41M4OUA-103" edge="1">
          <mxGeometry width="50" height="50" relative="1" as="geometry">
            <mxPoint y="40" as="sourcePoint" />
            <mxPoint y="40" as="targetPoint" />
            <Array as="points">
              <mxPoint y="40" />
              <mxPoint x="3" y="40" />
            </Array>
          </mxGeometry>
        </mxCell>
        <mxCell id="svwvXT8_LUP5L41M4OUA-109" value="" style="curved=1;endArrow=classic;html=1;rounded=0;endSize=8;" parent="svwvXT8_LUP5L41M4OUA-1" source="svwvXT8_LUP5L41M4OUA-4" target="svwvXT8_LUP5L41M4OUA-2" edge="1">
          <mxGeometry width="50" height="50" relative="1" as="geometry">
            <mxPoint x="261.5" y="110" as="sourcePoint" />
            <mxPoint x="211.5" y="160" as="targetPoint" />
            <Array as="points">
              <mxPoint x="231.5" y="90" />
            </Array>
          </mxGeometry>
        </mxCell>
        <mxCell id="svwvXT8_LUP5L41M4OUA-110" value="" style="curved=1;endArrow=classic;html=1;rounded=0;entryX=0.354;entryY=0.021;entryDx=0;entryDy=0;entryPerimeter=0;exitX=0.67;exitY=0.025;exitDx=0;exitDy=0;exitPerimeter=0;endSize=8;" parent="svwvXT8_LUP5L41M4OUA-1" edge="1">
          <mxGeometry width="50" height="50" relative="1" as="geometry">
            <mxPoint x="238" y="319" as="sourcePoint" />
            <mxPoint x="225" y="319" as="targetPoint" />
            <Array as="points">
              <mxPoint x="231.5" y="398" />
            </Array>
          </mxGeometry>
        </mxCell>
        <mxCell id="svwvXT8_LUP5L41M4OUA-111" value="∑&lt;sub&gt;3&lt;/sub&gt;" style="text;html=1;align=center;verticalAlign=middle;resizable=0;points=[];autosize=1;strokeColor=none;fillColor=none;" parent="svwvXT8_LUP5L41M4OUA-1" vertex="1">
          <mxGeometry x="211.5" y="360" width="40" height="30" as="geometry" />
        </mxCell>
        <mxCell id="svwvXT8_LUP5L41M4OUA-133" value="Problem 1.33" style="swimlane;" parent="1" vertex="1">
          <mxGeometry x="10" y="470" width="630" height="430" as="geometry">
            <mxRectangle x="10" y="470" width="90" height="30" as="alternateBounds" />
          </mxGeometry>
        </mxCell>
        <mxCell id="svwvXT8_LUP5L41M4OUA-112" value="q&lt;sub&gt;1&lt;/sub&gt;" style="ellipse;whiteSpace=wrap;html=1;aspect=fixed;" parent="svwvXT8_LUP5L41M4OUA-133" vertex="1">
          <mxGeometry x="300.25" y="120" width="40" height="40" as="geometry" />
        </mxCell>
        <mxCell id="svwvXT8_LUP5L41M4OUA-113" value="" style="group" parent="svwvXT8_LUP5L41M4OUA-133" vertex="1" connectable="0">
          <mxGeometry x="60.25" y="120" width="40" height="40" as="geometry" />
        </mxCell>
        <mxCell id="svwvXT8_LUP5L41M4OUA-114" value="" style="ellipse;whiteSpace=wrap;html=1;aspect=fixed;" parent="svwvXT8_LUP5L41M4OUA-113" vertex="1">
          <mxGeometry width="40" height="40" as="geometry" />
        </mxCell>
        <mxCell id="svwvXT8_LUP5L41M4OUA-115" value="q&lt;sub&gt;0&lt;/sub&gt;" style="ellipse;whiteSpace=wrap;html=1;aspect=fixed;" parent="svwvXT8_LUP5L41M4OUA-113" vertex="1">
          <mxGeometry x="10" y="10" width="20" height="20" as="geometry" />
        </mxCell>
        <mxCell id="svwvXT8_LUP5L41M4OUA-116" value="" style="curved=1;endArrow=classic;html=1;rounded=0;entryX=0.354;entryY=0.021;entryDx=0;entryDy=0;entryPerimeter=0;exitX=0.67;exitY=0.025;exitDx=0;exitDy=0;exitPerimeter=0;endSize=8;" parent="svwvXT8_LUP5L41M4OUA-113" source="svwvXT8_LUP5L41M4OUA-114" target="svwvXT8_LUP5L41M4OUA-114" edge="1">
          <mxGeometry width="50" height="50" relative="1" as="geometry">
            <mxPoint x="20" y="-50" as="sourcePoint" />
            <mxPoint x="10" y="80" as="targetPoint" />
            <Array as="points">
              <mxPoint x="20" y="-80" />
            </Array>
          </mxGeometry>
        </mxCell>
        <mxCell id="svwvXT8_LUP5L41M4OUA-122" value="" style="curved=1;endArrow=classic;html=1;rounded=0;endSize=8;" parent="svwvXT8_LUP5L41M4OUA-133" edge="1">
          <mxGeometry width="50" height="50" relative="1" as="geometry">
            <mxPoint x="99.25" y="132" as="sourcePoint" />
            <mxPoint x="302.25" y="132" as="targetPoint" />
            <Array as="points">
              <mxPoint x="200.75" y="90" />
            </Array>
          </mxGeometry>
        </mxCell>
        <mxCell id="svwvXT8_LUP5L41M4OUA-123" value="" style="curved=1;endArrow=classic;html=1;rounded=0;endSize=8;" parent="svwvXT8_LUP5L41M4OUA-133" edge="1">
          <mxGeometry width="50" height="50" relative="1" as="geometry">
            <mxPoint x="301.25" y="148" as="sourcePoint" />
            <mxPoint x="98.25" y="148" as="targetPoint" />
            <Array as="points">
              <mxPoint x="199.75" y="190" />
            </Array>
          </mxGeometry>
        </mxCell>
        <mxCell id="svwvXT8_LUP5L41M4OUA-125" value="" style="curved=1;endArrow=classic;html=1;rounded=0;endSize=8;" parent="svwvXT8_LUP5L41M4OUA-133" edge="1">
          <mxGeometry width="50" height="50" relative="1" as="geometry">
            <mxPoint x="339.25" y="132" as="sourcePoint" />
            <mxPoint x="542.25" y="132" as="targetPoint" />
            <Array as="points">
              <mxPoint x="440.75" y="90" />
            </Array>
          </mxGeometry>
        </mxCell>
        <mxCell id="svwvXT8_LUP5L41M4OUA-126" value="" style="curved=1;endArrow=classic;html=1;rounded=0;endSize=8;" parent="svwvXT8_LUP5L41M4OUA-133" edge="1">
          <mxGeometry width="50" height="50" relative="1" as="geometry">
            <mxPoint x="541.25" y="148" as="sourcePoint" />
            <mxPoint x="338.25" y="148" as="targetPoint" />
            <Array as="points">
              <mxPoint x="439.75" y="190" />
            </Array>
          </mxGeometry>
        </mxCell>
        <mxCell id="svwvXT8_LUP5L41M4OUA-127" value="" style="endArrow=classic;html=1;rounded=0;strokeWidth=1;endSize=8;" parent="svwvXT8_LUP5L41M4OUA-133" edge="1">
          <mxGeometry width="50" height="50" relative="1" as="geometry">
            <mxPoint x="19.75" y="139.71000000000004" as="sourcePoint" />
            <mxPoint x="60.25" y="139.71000000000004" as="targetPoint" />
          </mxGeometry>
        </mxCell>
        <mxCell id="svwvXT8_LUP5L41M4OUA-129" value="" style="endArrow=classic;html=1;rounded=0;strokeWidth=1;endSize=8;" parent="svwvXT8_LUP5L41M4OUA-133" source="svwvXT8_LUP5L41M4OUA-112" target="svwvXT8_LUP5L41M4OUA-118" edge="1">
          <mxGeometry width="50" height="50" relative="1" as="geometry">
            <mxPoint x="29.75" y="149.71000000000004" as="sourcePoint" />
            <mxPoint x="70.25" y="149.71000000000004" as="targetPoint" />
          </mxGeometry>
        </mxCell>
        <mxCell id="svwvXT8_LUP5L41M4OUA-131" value="" style="endArrow=classic;html=1;rounded=0;strokeWidth=1;endSize=8;exitX=0.509;exitY=1.003;exitDx=0;exitDy=0;exitPerimeter=0;curved=1;" parent="svwvXT8_LUP5L41M4OUA-133" source="svwvXT8_LUP5L41M4OUA-114" target="svwvXT8_LUP5L41M4OUA-118" edge="1">
          <mxGeometry width="50" height="50" relative="1" as="geometry">
            <mxPoint x="330.25" y="170" as="sourcePoint" />
            <mxPoint x="330.25" y="290" as="targetPoint" />
            <Array as="points">
              <mxPoint x="160" y="270" />
            </Array>
          </mxGeometry>
        </mxCell>
        <mxCell id="svwvXT8_LUP5L41M4OUA-132" value="" style="endArrow=classic;html=1;rounded=0;strokeWidth=1;endSize=8;exitX=0.503;exitY=1;exitDx=0;exitDy=0;exitPerimeter=0;curved=1;" parent="svwvXT8_LUP5L41M4OUA-133" source="svwvXT8_LUP5L41M4OUA-124" target="svwvXT8_LUP5L41M4OUA-118" edge="1">
          <mxGeometry width="50" height="50" relative="1" as="geometry">
            <mxPoint x="90.25" y="170" as="sourcePoint" />
            <mxPoint x="313.25" y="300" as="targetPoint" />
            <Array as="points">
              <mxPoint x="480" y="270" />
            </Array>
          </mxGeometry>
        </mxCell>
        <mxCell id="svwvXT8_LUP5L41M4OUA-140" value="" style="group" parent="svwvXT8_LUP5L41M4OUA-133" vertex="1" connectable="0">
          <mxGeometry x="190" y="60" width="20" height="40" as="geometry" />
        </mxCell>
        <mxCell id="svwvXT8_LUP5L41M4OUA-135" value="&lt;div&gt;1&lt;/div&gt;&lt;div&gt;1&lt;/div&gt;" style="shape=partialRectangle;whiteSpace=wrap;html=1;bottom=0;top=0;fillColor=none;" parent="svwvXT8_LUP5L41M4OUA-140" vertex="1">
          <mxGeometry width="20" height="40" as="geometry" />
        </mxCell>
        <mxCell id="svwvXT8_LUP5L41M4OUA-136" value="" style="endArrow=none;html=1;rounded=0;" parent="svwvXT8_LUP5L41M4OUA-140" edge="1">
          <mxGeometry width="50" height="50" relative="1" as="geometry">
            <mxPoint as="sourcePoint" />
            <mxPoint as="targetPoint" />
            <Array as="points">
              <mxPoint />
              <mxPoint x="3" />
            </Array>
          </mxGeometry>
        </mxCell>
        <mxCell id="svwvXT8_LUP5L41M4OUA-137" value="" style="endArrow=none;html=1;rounded=0;" parent="svwvXT8_LUP5L41M4OUA-140" edge="1">
          <mxGeometry width="50" height="50" relative="1" as="geometry">
            <mxPoint x="17" as="sourcePoint" />
            <mxPoint x="17" as="targetPoint" />
            <Array as="points">
              <mxPoint x="17" />
              <mxPoint x="20" />
            </Array>
          </mxGeometry>
        </mxCell>
        <mxCell id="svwvXT8_LUP5L41M4OUA-138" value="" style="endArrow=none;html=1;rounded=0;" parent="svwvXT8_LUP5L41M4OUA-140" edge="1">
          <mxGeometry width="50" height="50" relative="1" as="geometry">
            <mxPoint x="17" y="40" as="sourcePoint" />
            <mxPoint x="17" y="40" as="targetPoint" />
            <Array as="points">
              <mxPoint x="17" y="40" />
              <mxPoint x="20" y="40" />
            </Array>
          </mxGeometry>
        </mxCell>
        <mxCell id="svwvXT8_LUP5L41M4OUA-139" value="" style="endArrow=none;html=1;rounded=0;" parent="svwvXT8_LUP5L41M4OUA-140" edge="1">
          <mxGeometry width="50" height="50" relative="1" as="geometry">
            <mxPoint y="40" as="sourcePoint" />
            <mxPoint y="40" as="targetPoint" />
            <Array as="points">
              <mxPoint y="40" />
              <mxPoint x="3" y="40" />
            </Array>
          </mxGeometry>
        </mxCell>
        <mxCell id="svwvXT8_LUP5L41M4OUA-141" value="" style="group" parent="svwvXT8_LUP5L41M4OUA-133" vertex="1" connectable="0">
          <mxGeometry x="40.25" y="60" width="20" height="40" as="geometry" />
        </mxCell>
        <mxCell id="svwvXT8_LUP5L41M4OUA-142" value="&lt;div&gt;0&lt;/div&gt;&lt;div&gt;0&lt;/div&gt;" style="shape=partialRectangle;whiteSpace=wrap;html=1;bottom=0;top=0;fillColor=none;" parent="svwvXT8_LUP5L41M4OUA-141" vertex="1">
          <mxGeometry width="20" height="40" as="geometry" />
        </mxCell>
        <mxCell id="svwvXT8_LUP5L41M4OUA-143" value="" style="endArrow=none;html=1;rounded=0;" parent="svwvXT8_LUP5L41M4OUA-141" edge="1">
          <mxGeometry width="50" height="50" relative="1" as="geometry">
            <mxPoint as="sourcePoint" />
            <mxPoint as="targetPoint" />
            <Array as="points">
              <mxPoint />
              <mxPoint x="3" />
            </Array>
          </mxGeometry>
        </mxCell>
        <mxCell id="svwvXT8_LUP5L41M4OUA-144" value="" style="endArrow=none;html=1;rounded=0;" parent="svwvXT8_LUP5L41M4OUA-141" edge="1">
          <mxGeometry width="50" height="50" relative="1" as="geometry">
            <mxPoint x="17" as="sourcePoint" />
            <mxPoint x="17" as="targetPoint" />
            <Array as="points">
              <mxPoint x="17" />
              <mxPoint x="20" />
            </Array>
          </mxGeometry>
        </mxCell>
        <mxCell id="svwvXT8_LUP5L41M4OUA-145" value="" style="endArrow=none;html=1;rounded=0;" parent="svwvXT8_LUP5L41M4OUA-141" edge="1">
          <mxGeometry width="50" height="50" relative="1" as="geometry">
            <mxPoint x="17" y="40" as="sourcePoint" />
            <mxPoint x="17" y="40" as="targetPoint" />
            <Array as="points">
              <mxPoint x="17" y="40" />
              <mxPoint x="20" y="40" />
            </Array>
          </mxGeometry>
        </mxCell>
        <mxCell id="svwvXT8_LUP5L41M4OUA-146" value="" style="endArrow=none;html=1;rounded=0;" parent="svwvXT8_LUP5L41M4OUA-141" edge="1">
          <mxGeometry width="50" height="50" relative="1" as="geometry">
            <mxPoint y="40" as="sourcePoint" />
            <mxPoint y="40" as="targetPoint" />
            <Array as="points">
              <mxPoint y="40" />
              <mxPoint x="3" y="40" />
            </Array>
          </mxGeometry>
        </mxCell>
        <mxCell id="svwvXT8_LUP5L41M4OUA-147" value="" style="group" parent="svwvXT8_LUP5L41M4OUA-133" vertex="1" connectable="0">
          <mxGeometry x="430" y="60" width="20" height="40" as="geometry" />
        </mxCell>
        <mxCell id="svwvXT8_LUP5L41M4OUA-148" value="&lt;div&gt;1&lt;/div&gt;&lt;div&gt;0&lt;/div&gt;" style="shape=partialRectangle;whiteSpace=wrap;html=1;bottom=0;top=0;fillColor=none;" parent="svwvXT8_LUP5L41M4OUA-147" vertex="1">
          <mxGeometry width="20" height="40" as="geometry" />
        </mxCell>
        <mxCell id="svwvXT8_LUP5L41M4OUA-149" value="" style="endArrow=none;html=1;rounded=0;" parent="svwvXT8_LUP5L41M4OUA-147" edge="1">
          <mxGeometry width="50" height="50" relative="1" as="geometry">
            <mxPoint as="sourcePoint" />
            <mxPoint as="targetPoint" />
            <Array as="points">
              <mxPoint />
              <mxPoint x="3" />
            </Array>
          </mxGeometry>
        </mxCell>
        <mxCell id="svwvXT8_LUP5L41M4OUA-150" value="" style="endArrow=none;html=1;rounded=0;" parent="svwvXT8_LUP5L41M4OUA-147" edge="1">
          <mxGeometry width="50" height="50" relative="1" as="geometry">
            <mxPoint x="17" as="sourcePoint" />
            <mxPoint x="17" as="targetPoint" />
            <Array as="points">
              <mxPoint x="17" />
              <mxPoint x="20" />
            </Array>
          </mxGeometry>
        </mxCell>
        <mxCell id="svwvXT8_LUP5L41M4OUA-151" value="" style="endArrow=none;html=1;rounded=0;" parent="svwvXT8_LUP5L41M4OUA-147" edge="1">
          <mxGeometry width="50" height="50" relative="1" as="geometry">
            <mxPoint x="17" y="40" as="sourcePoint" />
            <mxPoint x="17" y="40" as="targetPoint" />
            <Array as="points">
              <mxPoint x="17" y="40" />
              <mxPoint x="20" y="40" />
            </Array>
          </mxGeometry>
        </mxCell>
        <mxCell id="svwvXT8_LUP5L41M4OUA-152" value="" style="endArrow=none;html=1;rounded=0;" parent="svwvXT8_LUP5L41M4OUA-147" edge="1">
          <mxGeometry width="50" height="50" relative="1" as="geometry">
            <mxPoint y="40" as="sourcePoint" />
            <mxPoint y="40" as="targetPoint" />
            <Array as="points">
              <mxPoint y="40" />
              <mxPoint x="3" y="40" />
            </Array>
          </mxGeometry>
        </mxCell>
        <mxCell id="svwvXT8_LUP5L41M4OUA-153" value="" style="group" parent="svwvXT8_LUP5L41M4OUA-133" vertex="1" connectable="0">
          <mxGeometry x="580.25" y="60" width="20" height="40" as="geometry" />
        </mxCell>
        <mxCell id="svwvXT8_LUP5L41M4OUA-154" value="&lt;div&gt;1&lt;/div&gt;&lt;div&gt;1&lt;/div&gt;" style="shape=partialRectangle;whiteSpace=wrap;html=1;bottom=0;top=0;fillColor=none;" parent="svwvXT8_LUP5L41M4OUA-153" vertex="1">
          <mxGeometry width="20" height="40" as="geometry" />
        </mxCell>
        <mxCell id="svwvXT8_LUP5L41M4OUA-155" value="" style="endArrow=none;html=1;rounded=0;" parent="svwvXT8_LUP5L41M4OUA-153" edge="1">
          <mxGeometry width="50" height="50" relative="1" as="geometry">
            <mxPoint as="sourcePoint" />
            <mxPoint as="targetPoint" />
            <Array as="points">
              <mxPoint />
              <mxPoint x="3" />
            </Array>
          </mxGeometry>
        </mxCell>
        <mxCell id="svwvXT8_LUP5L41M4OUA-156" value="" style="endArrow=none;html=1;rounded=0;" parent="svwvXT8_LUP5L41M4OUA-153" edge="1">
          <mxGeometry width="50" height="50" relative="1" as="geometry">
            <mxPoint x="17" as="sourcePoint" />
            <mxPoint x="17" as="targetPoint" />
            <Array as="points">
              <mxPoint x="17" />
              <mxPoint x="20" />
            </Array>
          </mxGeometry>
        </mxCell>
        <mxCell id="svwvXT8_LUP5L41M4OUA-157" value="" style="endArrow=none;html=1;rounded=0;" parent="svwvXT8_LUP5L41M4OUA-153" edge="1">
          <mxGeometry width="50" height="50" relative="1" as="geometry">
            <mxPoint x="17" y="40" as="sourcePoint" />
            <mxPoint x="17" y="40" as="targetPoint" />
            <Array as="points">
              <mxPoint x="17" y="40" />
              <mxPoint x="20" y="40" />
            </Array>
          </mxGeometry>
        </mxCell>
        <mxCell id="svwvXT8_LUP5L41M4OUA-158" value="" style="endArrow=none;html=1;rounded=0;" parent="svwvXT8_LUP5L41M4OUA-153" edge="1">
          <mxGeometry width="50" height="50" relative="1" as="geometry">
            <mxPoint y="40" as="sourcePoint" />
            <mxPoint y="40" as="targetPoint" />
            <Array as="points">
              <mxPoint y="40" />
              <mxPoint x="3" y="40" />
            </Array>
          </mxGeometry>
        </mxCell>
        <mxCell id="svwvXT8_LUP5L41M4OUA-159" value="" style="group" parent="svwvXT8_LUP5L41M4OUA-133" vertex="1" connectable="0">
          <mxGeometry x="190" y="180" width="20" height="40" as="geometry" />
        </mxCell>
        <mxCell id="svwvXT8_LUP5L41M4OUA-160" value="&lt;div&gt;0&lt;/div&gt;&lt;div&gt;1&lt;/div&gt;" style="shape=partialRectangle;whiteSpace=wrap;html=1;bottom=0;top=0;fillColor=none;" parent="svwvXT8_LUP5L41M4OUA-159" vertex="1">
          <mxGeometry width="20" height="40" as="geometry" />
        </mxCell>
        <mxCell id="svwvXT8_LUP5L41M4OUA-161" value="" style="endArrow=none;html=1;rounded=0;" parent="svwvXT8_LUP5L41M4OUA-159" edge="1">
          <mxGeometry width="50" height="50" relative="1" as="geometry">
            <mxPoint as="sourcePoint" />
            <mxPoint as="targetPoint" />
            <Array as="points">
              <mxPoint />
              <mxPoint x="3" />
            </Array>
          </mxGeometry>
        </mxCell>
        <mxCell id="svwvXT8_LUP5L41M4OUA-162" value="" style="endArrow=none;html=1;rounded=0;" parent="svwvXT8_LUP5L41M4OUA-159" edge="1">
          <mxGeometry width="50" height="50" relative="1" as="geometry">
            <mxPoint x="17" as="sourcePoint" />
            <mxPoint x="17" as="targetPoint" />
            <Array as="points">
              <mxPoint x="17" />
              <mxPoint x="20" />
            </Array>
          </mxGeometry>
        </mxCell>
        <mxCell id="svwvXT8_LUP5L41M4OUA-163" value="" style="endArrow=none;html=1;rounded=0;" parent="svwvXT8_LUP5L41M4OUA-159" edge="1">
          <mxGeometry width="50" height="50" relative="1" as="geometry">
            <mxPoint x="17" y="40" as="sourcePoint" />
            <mxPoint x="17" y="40" as="targetPoint" />
            <Array as="points">
              <mxPoint x="17" y="40" />
              <mxPoint x="20" y="40" />
            </Array>
          </mxGeometry>
        </mxCell>
        <mxCell id="svwvXT8_LUP5L41M4OUA-164" value="" style="endArrow=none;html=1;rounded=0;" parent="svwvXT8_LUP5L41M4OUA-159" edge="1">
          <mxGeometry width="50" height="50" relative="1" as="geometry">
            <mxPoint y="40" as="sourcePoint" />
            <mxPoint y="40" as="targetPoint" />
            <Array as="points">
              <mxPoint y="40" />
              <mxPoint x="3" y="40" />
            </Array>
          </mxGeometry>
        </mxCell>
        <mxCell id="svwvXT8_LUP5L41M4OUA-165" value="" style="group" parent="svwvXT8_LUP5L41M4OUA-133" vertex="1" connectable="0">
          <mxGeometry x="430" y="180" width="20" height="40" as="geometry" />
        </mxCell>
        <mxCell id="svwvXT8_LUP5L41M4OUA-166" value="&lt;div&gt;0&lt;/div&gt;&lt;div&gt;0&lt;/div&gt;" style="shape=partialRectangle;whiteSpace=wrap;html=1;bottom=0;top=0;fillColor=none;" parent="svwvXT8_LUP5L41M4OUA-165" vertex="1">
          <mxGeometry width="20" height="40" as="geometry" />
        </mxCell>
        <mxCell id="svwvXT8_LUP5L41M4OUA-167" value="" style="endArrow=none;html=1;rounded=0;" parent="svwvXT8_LUP5L41M4OUA-165" edge="1">
          <mxGeometry width="50" height="50" relative="1" as="geometry">
            <mxPoint as="sourcePoint" />
            <mxPoint as="targetPoint" />
            <Array as="points">
              <mxPoint />
              <mxPoint x="3" />
            </Array>
          </mxGeometry>
        </mxCell>
        <mxCell id="svwvXT8_LUP5L41M4OUA-168" value="" style="endArrow=none;html=1;rounded=0;" parent="svwvXT8_LUP5L41M4OUA-165" edge="1">
          <mxGeometry width="50" height="50" relative="1" as="geometry">
            <mxPoint x="17" as="sourcePoint" />
            <mxPoint x="17" as="targetPoint" />
            <Array as="points">
              <mxPoint x="17" />
              <mxPoint x="20" />
            </Array>
          </mxGeometry>
        </mxCell>
        <mxCell id="svwvXT8_LUP5L41M4OUA-169" value="" style="endArrow=none;html=1;rounded=0;" parent="svwvXT8_LUP5L41M4OUA-165" edge="1">
          <mxGeometry width="50" height="50" relative="1" as="geometry">
            <mxPoint x="17" y="40" as="sourcePoint" />
            <mxPoint x="17" y="40" as="targetPoint" />
            <Array as="points">
              <mxPoint x="17" y="40" />
              <mxPoint x="20" y="40" />
            </Array>
          </mxGeometry>
        </mxCell>
        <mxCell id="svwvXT8_LUP5L41M4OUA-170" value="" style="endArrow=none;html=1;rounded=0;" parent="svwvXT8_LUP5L41M4OUA-165" edge="1">
          <mxGeometry width="50" height="50" relative="1" as="geometry">
            <mxPoint y="40" as="sourcePoint" />
            <mxPoint y="40" as="targetPoint" />
            <Array as="points">
              <mxPoint y="40" />
              <mxPoint x="3" y="40" />
            </Array>
          </mxGeometry>
        </mxCell>
        <mxCell id="svwvXT8_LUP5L41M4OUA-171" value="" style="group" parent="svwvXT8_LUP5L41M4OUA-133" vertex="1" connectable="0">
          <mxGeometry x="290" y="210" width="20" height="40" as="geometry" />
        </mxCell>
        <mxCell id="svwvXT8_LUP5L41M4OUA-172" value="&lt;div&gt;0&lt;/div&gt;&lt;div&gt;0&lt;/div&gt;" style="shape=partialRectangle;whiteSpace=wrap;html=1;bottom=0;top=0;fillColor=none;" parent="svwvXT8_LUP5L41M4OUA-171" vertex="1">
          <mxGeometry width="20" height="40" as="geometry" />
        </mxCell>
        <mxCell id="svwvXT8_LUP5L41M4OUA-173" value="" style="endArrow=none;html=1;rounded=0;" parent="svwvXT8_LUP5L41M4OUA-171" edge="1">
          <mxGeometry width="50" height="50" relative="1" as="geometry">
            <mxPoint as="sourcePoint" />
            <mxPoint as="targetPoint" />
            <Array as="points">
              <mxPoint />
              <mxPoint x="3" />
            </Array>
          </mxGeometry>
        </mxCell>
        <mxCell id="svwvXT8_LUP5L41M4OUA-174" value="" style="endArrow=none;html=1;rounded=0;" parent="svwvXT8_LUP5L41M4OUA-171" edge="1">
          <mxGeometry width="50" height="50" relative="1" as="geometry">
            <mxPoint x="17" as="sourcePoint" />
            <mxPoint x="17" as="targetPoint" />
            <Array as="points">
              <mxPoint x="17" />
              <mxPoint x="20" />
            </Array>
          </mxGeometry>
        </mxCell>
        <mxCell id="svwvXT8_LUP5L41M4OUA-175" value="" style="endArrow=none;html=1;rounded=0;" parent="svwvXT8_LUP5L41M4OUA-171" edge="1">
          <mxGeometry width="50" height="50" relative="1" as="geometry">
            <mxPoint x="17" y="40" as="sourcePoint" />
            <mxPoint x="17" y="40" as="targetPoint" />
            <Array as="points">
              <mxPoint x="17" y="40" />
              <mxPoint x="20" y="40" />
            </Array>
          </mxGeometry>
        </mxCell>
        <mxCell id="svwvXT8_LUP5L41M4OUA-176" value="" style="endArrow=none;html=1;rounded=0;" parent="svwvXT8_LUP5L41M4OUA-171" edge="1">
          <mxGeometry width="50" height="50" relative="1" as="geometry">
            <mxPoint y="40" as="sourcePoint" />
            <mxPoint y="40" as="targetPoint" />
            <Array as="points">
              <mxPoint y="40" />
              <mxPoint x="3" y="40" />
            </Array>
          </mxGeometry>
        </mxCell>
        <mxCell id="svwvXT8_LUP5L41M4OUA-177" value="" style="group" parent="svwvXT8_LUP5L41M4OUA-133" vertex="1" connectable="0">
          <mxGeometry x="330" y="210" width="20" height="40" as="geometry" />
        </mxCell>
        <mxCell id="svwvXT8_LUP5L41M4OUA-178" value="&lt;div&gt;1&lt;/div&gt;&lt;div&gt;1&lt;/div&gt;" style="shape=partialRectangle;whiteSpace=wrap;html=1;bottom=0;top=0;fillColor=none;" parent="svwvXT8_LUP5L41M4OUA-177" vertex="1">
          <mxGeometry width="20" height="40" as="geometry" />
        </mxCell>
        <mxCell id="svwvXT8_LUP5L41M4OUA-179" value="" style="endArrow=none;html=1;rounded=0;" parent="svwvXT8_LUP5L41M4OUA-177" edge="1">
          <mxGeometry width="50" height="50" relative="1" as="geometry">
            <mxPoint as="sourcePoint" />
            <mxPoint as="targetPoint" />
            <Array as="points">
              <mxPoint />
              <mxPoint x="3" />
            </Array>
          </mxGeometry>
        </mxCell>
        <mxCell id="svwvXT8_LUP5L41M4OUA-180" value="" style="endArrow=none;html=1;rounded=0;" parent="svwvXT8_LUP5L41M4OUA-177" edge="1">
          <mxGeometry width="50" height="50" relative="1" as="geometry">
            <mxPoint x="17" as="sourcePoint" />
            <mxPoint x="17" as="targetPoint" />
            <Array as="points">
              <mxPoint x="17" />
              <mxPoint x="20" />
            </Array>
          </mxGeometry>
        </mxCell>
        <mxCell id="svwvXT8_LUP5L41M4OUA-181" value="" style="endArrow=none;html=1;rounded=0;" parent="svwvXT8_LUP5L41M4OUA-177" edge="1">
          <mxGeometry width="50" height="50" relative="1" as="geometry">
            <mxPoint x="17" y="40" as="sourcePoint" />
            <mxPoint x="17" y="40" as="targetPoint" />
            <Array as="points">
              <mxPoint x="17" y="40" />
              <mxPoint x="20" y="40" />
            </Array>
          </mxGeometry>
        </mxCell>
        <mxCell id="svwvXT8_LUP5L41M4OUA-182" value="" style="endArrow=none;html=1;rounded=0;" parent="svwvXT8_LUP5L41M4OUA-177" edge="1">
          <mxGeometry width="50" height="50" relative="1" as="geometry">
            <mxPoint y="40" as="sourcePoint" />
            <mxPoint y="40" as="targetPoint" />
            <Array as="points">
              <mxPoint y="40" />
              <mxPoint x="3" y="40" />
            </Array>
          </mxGeometry>
        </mxCell>
        <mxCell id="svwvXT8_LUP5L41M4OUA-183" value="" style="group" parent="svwvXT8_LUP5L41M4OUA-133" vertex="1" connectable="0">
          <mxGeometry x="100" y="250" width="20" height="40" as="geometry" />
        </mxCell>
        <mxCell id="svwvXT8_LUP5L41M4OUA-184" value="&lt;div&gt;0&lt;/div&gt;&lt;div&gt;1&lt;/div&gt;" style="shape=partialRectangle;whiteSpace=wrap;html=1;bottom=0;top=0;fillColor=none;" parent="svwvXT8_LUP5L41M4OUA-183" vertex="1">
          <mxGeometry width="20" height="40" as="geometry" />
        </mxCell>
        <mxCell id="svwvXT8_LUP5L41M4OUA-185" value="" style="endArrow=none;html=1;rounded=0;" parent="svwvXT8_LUP5L41M4OUA-183" edge="1">
          <mxGeometry width="50" height="50" relative="1" as="geometry">
            <mxPoint as="sourcePoint" />
            <mxPoint as="targetPoint" />
            <Array as="points">
              <mxPoint />
              <mxPoint x="3" />
            </Array>
          </mxGeometry>
        </mxCell>
        <mxCell id="svwvXT8_LUP5L41M4OUA-186" value="" style="endArrow=none;html=1;rounded=0;" parent="svwvXT8_LUP5L41M4OUA-183" edge="1">
          <mxGeometry width="50" height="50" relative="1" as="geometry">
            <mxPoint x="17" as="sourcePoint" />
            <mxPoint x="17" as="targetPoint" />
            <Array as="points">
              <mxPoint x="17" />
              <mxPoint x="20" />
            </Array>
          </mxGeometry>
        </mxCell>
        <mxCell id="svwvXT8_LUP5L41M4OUA-187" value="" style="endArrow=none;html=1;rounded=0;" parent="svwvXT8_LUP5L41M4OUA-183" edge="1">
          <mxGeometry width="50" height="50" relative="1" as="geometry">
            <mxPoint x="17" y="40" as="sourcePoint" />
            <mxPoint x="17" y="40" as="targetPoint" />
            <Array as="points">
              <mxPoint x="17" y="40" />
              <mxPoint x="20" y="40" />
            </Array>
          </mxGeometry>
        </mxCell>
        <mxCell id="svwvXT8_LUP5L41M4OUA-188" value="" style="endArrow=none;html=1;rounded=0;" parent="svwvXT8_LUP5L41M4OUA-183" edge="1">
          <mxGeometry width="50" height="50" relative="1" as="geometry">
            <mxPoint y="40" as="sourcePoint" />
            <mxPoint y="40" as="targetPoint" />
            <Array as="points">
              <mxPoint y="40" />
              <mxPoint x="3" y="40" />
            </Array>
          </mxGeometry>
        </mxCell>
        <mxCell id="svwvXT8_LUP5L41M4OUA-189" value="" style="group" parent="svwvXT8_LUP5L41M4OUA-133" vertex="1" connectable="0">
          <mxGeometry x="130" y="250" width="20" height="40" as="geometry" />
        </mxCell>
        <mxCell id="svwvXT8_LUP5L41M4OUA-190" value="&lt;div&gt;1&lt;/div&gt;&lt;div&gt;0&lt;/div&gt;" style="shape=partialRectangle;whiteSpace=wrap;html=1;bottom=0;top=0;fillColor=none;" parent="svwvXT8_LUP5L41M4OUA-189" vertex="1">
          <mxGeometry width="20" height="40" as="geometry" />
        </mxCell>
        <mxCell id="svwvXT8_LUP5L41M4OUA-191" value="" style="endArrow=none;html=1;rounded=0;" parent="svwvXT8_LUP5L41M4OUA-189" edge="1">
          <mxGeometry width="50" height="50" relative="1" as="geometry">
            <mxPoint as="sourcePoint" />
            <mxPoint as="targetPoint" />
            <Array as="points">
              <mxPoint />
              <mxPoint x="3" />
            </Array>
          </mxGeometry>
        </mxCell>
        <mxCell id="svwvXT8_LUP5L41M4OUA-192" value="" style="endArrow=none;html=1;rounded=0;" parent="svwvXT8_LUP5L41M4OUA-189" edge="1">
          <mxGeometry width="50" height="50" relative="1" as="geometry">
            <mxPoint x="17" as="sourcePoint" />
            <mxPoint x="17" as="targetPoint" />
            <Array as="points">
              <mxPoint x="17" />
              <mxPoint x="20" />
            </Array>
          </mxGeometry>
        </mxCell>
        <mxCell id="svwvXT8_LUP5L41M4OUA-193" value="" style="endArrow=none;html=1;rounded=0;" parent="svwvXT8_LUP5L41M4OUA-189" edge="1">
          <mxGeometry width="50" height="50" relative="1" as="geometry">
            <mxPoint x="17" y="40" as="sourcePoint" />
            <mxPoint x="17" y="40" as="targetPoint" />
            <Array as="points">
              <mxPoint x="17" y="40" />
              <mxPoint x="20" y="40" />
            </Array>
          </mxGeometry>
        </mxCell>
        <mxCell id="svwvXT8_LUP5L41M4OUA-194" value="" style="endArrow=none;html=1;rounded=0;" parent="svwvXT8_LUP5L41M4OUA-189" edge="1">
          <mxGeometry width="50" height="50" relative="1" as="geometry">
            <mxPoint y="40" as="sourcePoint" />
            <mxPoint y="40" as="targetPoint" />
            <Array as="points">
              <mxPoint y="40" />
              <mxPoint x="3" y="40" />
            </Array>
          </mxGeometry>
        </mxCell>
        <mxCell id="svwvXT8_LUP5L41M4OUA-195" value="" style="group" parent="svwvXT8_LUP5L41M4OUA-133" vertex="1" connectable="0">
          <mxGeometry x="490" y="250" width="20" height="40" as="geometry" />
        </mxCell>
        <mxCell id="svwvXT8_LUP5L41M4OUA-196" value="&lt;div&gt;0&lt;/div&gt;&lt;div&gt;1&lt;/div&gt;" style="shape=partialRectangle;whiteSpace=wrap;html=1;bottom=0;top=0;fillColor=none;" parent="svwvXT8_LUP5L41M4OUA-195" vertex="1">
          <mxGeometry width="20" height="40" as="geometry" />
        </mxCell>
        <mxCell id="svwvXT8_LUP5L41M4OUA-197" value="" style="endArrow=none;html=1;rounded=0;" parent="svwvXT8_LUP5L41M4OUA-195" edge="1">
          <mxGeometry width="50" height="50" relative="1" as="geometry">
            <mxPoint as="sourcePoint" />
            <mxPoint as="targetPoint" />
            <Array as="points">
              <mxPoint />
              <mxPoint x="3" />
            </Array>
          </mxGeometry>
        </mxCell>
        <mxCell id="svwvXT8_LUP5L41M4OUA-198" value="" style="endArrow=none;html=1;rounded=0;" parent="svwvXT8_LUP5L41M4OUA-195" edge="1">
          <mxGeometry width="50" height="50" relative="1" as="geometry">
            <mxPoint x="17" as="sourcePoint" />
            <mxPoint x="17" as="targetPoint" />
            <Array as="points">
              <mxPoint x="17" />
              <mxPoint x="20" />
            </Array>
          </mxGeometry>
        </mxCell>
        <mxCell id="svwvXT8_LUP5L41M4OUA-199" value="" style="endArrow=none;html=1;rounded=0;" parent="svwvXT8_LUP5L41M4OUA-195" edge="1">
          <mxGeometry width="50" height="50" relative="1" as="geometry">
            <mxPoint x="17" y="40" as="sourcePoint" />
            <mxPoint x="17" y="40" as="targetPoint" />
            <Array as="points">
              <mxPoint x="17" y="40" />
              <mxPoint x="20" y="40" />
            </Array>
          </mxGeometry>
        </mxCell>
        <mxCell id="svwvXT8_LUP5L41M4OUA-200" value="" style="endArrow=none;html=1;rounded=0;" parent="svwvXT8_LUP5L41M4OUA-195" edge="1">
          <mxGeometry width="50" height="50" relative="1" as="geometry">
            <mxPoint y="40" as="sourcePoint" />
            <mxPoint y="40" as="targetPoint" />
            <Array as="points">
              <mxPoint y="40" />
              <mxPoint x="3" y="40" />
            </Array>
          </mxGeometry>
        </mxCell>
        <mxCell id="svwvXT8_LUP5L41M4OUA-201" value="" style="group" parent="svwvXT8_LUP5L41M4OUA-133" vertex="1" connectable="0">
          <mxGeometry x="520" y="250" width="20" height="40" as="geometry" />
        </mxCell>
        <mxCell id="svwvXT8_LUP5L41M4OUA-202" value="&lt;div&gt;1&lt;/div&gt;&lt;div&gt;0&lt;/div&gt;" style="shape=partialRectangle;whiteSpace=wrap;html=1;bottom=0;top=0;fillColor=none;" parent="svwvXT8_LUP5L41M4OUA-201" vertex="1">
          <mxGeometry width="20" height="40" as="geometry" />
        </mxCell>
        <mxCell id="svwvXT8_LUP5L41M4OUA-203" value="" style="endArrow=none;html=1;rounded=0;" parent="svwvXT8_LUP5L41M4OUA-201" edge="1">
          <mxGeometry width="50" height="50" relative="1" as="geometry">
            <mxPoint as="sourcePoint" />
            <mxPoint as="targetPoint" />
            <Array as="points">
              <mxPoint />
              <mxPoint x="3" />
            </Array>
          </mxGeometry>
        </mxCell>
        <mxCell id="svwvXT8_LUP5L41M4OUA-204" value="" style="endArrow=none;html=1;rounded=0;" parent="svwvXT8_LUP5L41M4OUA-201" edge="1">
          <mxGeometry width="50" height="50" relative="1" as="geometry">
            <mxPoint x="17" as="sourcePoint" />
            <mxPoint x="17" as="targetPoint" />
            <Array as="points">
              <mxPoint x="17" />
              <mxPoint x="20" />
            </Array>
          </mxGeometry>
        </mxCell>
        <mxCell id="svwvXT8_LUP5L41M4OUA-205" value="" style="endArrow=none;html=1;rounded=0;" parent="svwvXT8_LUP5L41M4OUA-201" edge="1">
          <mxGeometry width="50" height="50" relative="1" as="geometry">
            <mxPoint x="17" y="40" as="sourcePoint" />
            <mxPoint x="17" y="40" as="targetPoint" />
            <Array as="points">
              <mxPoint x="17" y="40" />
              <mxPoint x="20" y="40" />
            </Array>
          </mxGeometry>
        </mxCell>
        <mxCell id="svwvXT8_LUP5L41M4OUA-206" value="" style="endArrow=none;html=1;rounded=0;" parent="svwvXT8_LUP5L41M4OUA-201" edge="1">
          <mxGeometry width="50" height="50" relative="1" as="geometry">
            <mxPoint y="40" as="sourcePoint" />
            <mxPoint y="40" as="targetPoint" />
            <Array as="points">
              <mxPoint y="40" />
              <mxPoint x="3" y="40" />
            </Array>
          </mxGeometry>
        </mxCell>
        <mxCell id="svwvXT8_LUP5L41M4OUA-207" value="" style="group" parent="svwvXT8_LUP5L41M4OUA-133" vertex="1" connectable="0">
          <mxGeometry x="265" y="370" width="20" height="40" as="geometry" />
        </mxCell>
        <mxCell id="svwvXT8_LUP5L41M4OUA-208" value="&lt;div&gt;0&lt;/div&gt;&lt;div&gt;0&lt;/div&gt;" style="shape=partialRectangle;whiteSpace=wrap;html=1;bottom=0;top=0;fillColor=none;" parent="svwvXT8_LUP5L41M4OUA-207" vertex="1">
          <mxGeometry width="20" height="40" as="geometry" />
        </mxCell>
        <mxCell id="svwvXT8_LUP5L41M4OUA-209" value="" style="endArrow=none;html=1;rounded=0;" parent="svwvXT8_LUP5L41M4OUA-207" edge="1">
          <mxGeometry width="50" height="50" relative="1" as="geometry">
            <mxPoint as="sourcePoint" />
            <mxPoint as="targetPoint" />
            <Array as="points">
              <mxPoint />
              <mxPoint x="3" />
            </Array>
          </mxGeometry>
        </mxCell>
        <mxCell id="svwvXT8_LUP5L41M4OUA-210" value="" style="endArrow=none;html=1;rounded=0;" parent="svwvXT8_LUP5L41M4OUA-207" edge="1">
          <mxGeometry width="50" height="50" relative="1" as="geometry">
            <mxPoint x="17" as="sourcePoint" />
            <mxPoint x="17" as="targetPoint" />
            <Array as="points">
              <mxPoint x="17" />
              <mxPoint x="20" />
            </Array>
          </mxGeometry>
        </mxCell>
        <mxCell id="svwvXT8_LUP5L41M4OUA-211" value="" style="endArrow=none;html=1;rounded=0;" parent="svwvXT8_LUP5L41M4OUA-207" edge="1">
          <mxGeometry width="50" height="50" relative="1" as="geometry">
            <mxPoint x="17" y="40" as="sourcePoint" />
            <mxPoint x="17" y="40" as="targetPoint" />
            <Array as="points">
              <mxPoint x="17" y="40" />
              <mxPoint x="20" y="40" />
            </Array>
          </mxGeometry>
        </mxCell>
        <mxCell id="svwvXT8_LUP5L41M4OUA-212" value="" style="endArrow=none;html=1;rounded=0;" parent="svwvXT8_LUP5L41M4OUA-207" edge="1">
          <mxGeometry width="50" height="50" relative="1" as="geometry">
            <mxPoint y="40" as="sourcePoint" />
            <mxPoint y="40" as="targetPoint" />
            <Array as="points">
              <mxPoint y="40" />
              <mxPoint x="3" y="40" />
            </Array>
          </mxGeometry>
        </mxCell>
        <mxCell id="svwvXT8_LUP5L41M4OUA-213" value="" style="group" parent="svwvXT8_LUP5L41M4OUA-133" vertex="1" connectable="0">
          <mxGeometry x="295.25" y="370" width="20" height="40" as="geometry" />
        </mxCell>
        <mxCell id="svwvXT8_LUP5L41M4OUA-214" value="&lt;div&gt;0&lt;/div&gt;&lt;div&gt;1&lt;/div&gt;" style="shape=partialRectangle;whiteSpace=wrap;html=1;bottom=0;top=0;fillColor=none;" parent="svwvXT8_LUP5L41M4OUA-213" vertex="1">
          <mxGeometry width="20" height="40" as="geometry" />
        </mxCell>
        <mxCell id="svwvXT8_LUP5L41M4OUA-215" value="" style="endArrow=none;html=1;rounded=0;" parent="svwvXT8_LUP5L41M4OUA-213" edge="1">
          <mxGeometry width="50" height="50" relative="1" as="geometry">
            <mxPoint as="sourcePoint" />
            <mxPoint as="targetPoint" />
            <Array as="points">
              <mxPoint />
              <mxPoint x="3" />
            </Array>
          </mxGeometry>
        </mxCell>
        <mxCell id="svwvXT8_LUP5L41M4OUA-216" value="" style="endArrow=none;html=1;rounded=0;" parent="svwvXT8_LUP5L41M4OUA-213" edge="1">
          <mxGeometry width="50" height="50" relative="1" as="geometry">
            <mxPoint x="17" as="sourcePoint" />
            <mxPoint x="17" as="targetPoint" />
            <Array as="points">
              <mxPoint x="17" />
              <mxPoint x="20" />
            </Array>
          </mxGeometry>
        </mxCell>
        <mxCell id="svwvXT8_LUP5L41M4OUA-217" value="" style="endArrow=none;html=1;rounded=0;" parent="svwvXT8_LUP5L41M4OUA-213" edge="1">
          <mxGeometry width="50" height="50" relative="1" as="geometry">
            <mxPoint x="17" y="40" as="sourcePoint" />
            <mxPoint x="17" y="40" as="targetPoint" />
            <Array as="points">
              <mxPoint x="17" y="40" />
              <mxPoint x="20" y="40" />
            </Array>
          </mxGeometry>
        </mxCell>
        <mxCell id="svwvXT8_LUP5L41M4OUA-218" value="" style="endArrow=none;html=1;rounded=0;" parent="svwvXT8_LUP5L41M4OUA-213" edge="1">
          <mxGeometry width="50" height="50" relative="1" as="geometry">
            <mxPoint y="40" as="sourcePoint" />
            <mxPoint y="40" as="targetPoint" />
            <Array as="points">
              <mxPoint y="40" />
              <mxPoint x="3" y="40" />
            </Array>
          </mxGeometry>
        </mxCell>
        <mxCell id="svwvXT8_LUP5L41M4OUA-219" value="" style="group" parent="svwvXT8_LUP5L41M4OUA-133" vertex="1" connectable="0">
          <mxGeometry x="325" y="370" width="20" height="40" as="geometry" />
        </mxCell>
        <mxCell id="svwvXT8_LUP5L41M4OUA-220" value="&lt;div&gt;1&lt;/div&gt;&lt;div&gt;0&lt;/div&gt;" style="shape=partialRectangle;whiteSpace=wrap;html=1;bottom=0;top=0;fillColor=none;" parent="svwvXT8_LUP5L41M4OUA-219" vertex="1">
          <mxGeometry width="20" height="40" as="geometry" />
        </mxCell>
        <mxCell id="svwvXT8_LUP5L41M4OUA-221" value="" style="endArrow=none;html=1;rounded=0;" parent="svwvXT8_LUP5L41M4OUA-219" edge="1">
          <mxGeometry width="50" height="50" relative="1" as="geometry">
            <mxPoint as="sourcePoint" />
            <mxPoint as="targetPoint" />
            <Array as="points">
              <mxPoint />
              <mxPoint x="3" />
            </Array>
          </mxGeometry>
        </mxCell>
        <mxCell id="svwvXT8_LUP5L41M4OUA-222" value="" style="endArrow=none;html=1;rounded=0;" parent="svwvXT8_LUP5L41M4OUA-219" edge="1">
          <mxGeometry width="50" height="50" relative="1" as="geometry">
            <mxPoint x="17" as="sourcePoint" />
            <mxPoint x="17" as="targetPoint" />
            <Array as="points">
              <mxPoint x="17" />
              <mxPoint x="20" />
            </Array>
          </mxGeometry>
        </mxCell>
        <mxCell id="svwvXT8_LUP5L41M4OUA-223" value="" style="endArrow=none;html=1;rounded=0;" parent="svwvXT8_LUP5L41M4OUA-219" edge="1">
          <mxGeometry width="50" height="50" relative="1" as="geometry">
            <mxPoint x="17" y="40" as="sourcePoint" />
            <mxPoint x="17" y="40" as="targetPoint" />
            <Array as="points">
              <mxPoint x="17" y="40" />
              <mxPoint x="20" y="40" />
            </Array>
          </mxGeometry>
        </mxCell>
        <mxCell id="svwvXT8_LUP5L41M4OUA-224" value="" style="endArrow=none;html=1;rounded=0;" parent="svwvXT8_LUP5L41M4OUA-219" edge="1">
          <mxGeometry width="50" height="50" relative="1" as="geometry">
            <mxPoint y="40" as="sourcePoint" />
            <mxPoint y="40" as="targetPoint" />
            <Array as="points">
              <mxPoint y="40" />
              <mxPoint x="3" y="40" />
            </Array>
          </mxGeometry>
        </mxCell>
        <mxCell id="svwvXT8_LUP5L41M4OUA-225" value="" style="group" parent="svwvXT8_LUP5L41M4OUA-133" vertex="1" connectable="0">
          <mxGeometry x="355" y="370" width="20" height="40" as="geometry" />
        </mxCell>
        <mxCell id="svwvXT8_LUP5L41M4OUA-226" value="&lt;div&gt;1&lt;/div&gt;&lt;div&gt;1&lt;/div&gt;" style="shape=partialRectangle;whiteSpace=wrap;html=1;bottom=0;top=0;fillColor=none;" parent="svwvXT8_LUP5L41M4OUA-225" vertex="1">
          <mxGeometry width="20" height="40" as="geometry" />
        </mxCell>
        <mxCell id="svwvXT8_LUP5L41M4OUA-227" value="" style="endArrow=none;html=1;rounded=0;" parent="svwvXT8_LUP5L41M4OUA-225" edge="1">
          <mxGeometry width="50" height="50" relative="1" as="geometry">
            <mxPoint as="sourcePoint" />
            <mxPoint as="targetPoint" />
            <Array as="points">
              <mxPoint />
              <mxPoint x="3" />
            </Array>
          </mxGeometry>
        </mxCell>
        <mxCell id="svwvXT8_LUP5L41M4OUA-228" value="" style="endArrow=none;html=1;rounded=0;" parent="svwvXT8_LUP5L41M4OUA-225" edge="1">
          <mxGeometry width="50" height="50" relative="1" as="geometry">
            <mxPoint x="17" as="sourcePoint" />
            <mxPoint x="17" as="targetPoint" />
            <Array as="points">
              <mxPoint x="17" />
              <mxPoint x="20" />
            </Array>
          </mxGeometry>
        </mxCell>
        <mxCell id="svwvXT8_LUP5L41M4OUA-229" value="" style="endArrow=none;html=1;rounded=0;" parent="svwvXT8_LUP5L41M4OUA-225" edge="1">
          <mxGeometry width="50" height="50" relative="1" as="geometry">
            <mxPoint x="17" y="40" as="sourcePoint" />
            <mxPoint x="17" y="40" as="targetPoint" />
            <Array as="points">
              <mxPoint x="17" y="40" />
              <mxPoint x="20" y="40" />
            </Array>
          </mxGeometry>
        </mxCell>
        <mxCell id="svwvXT8_LUP5L41M4OUA-230" value="" style="endArrow=none;html=1;rounded=0;" parent="svwvXT8_LUP5L41M4OUA-225" edge="1">
          <mxGeometry width="50" height="50" relative="1" as="geometry">
            <mxPoint y="40" as="sourcePoint" />
            <mxPoint y="40" as="targetPoint" />
            <Array as="points">
              <mxPoint y="40" />
              <mxPoint x="3" y="40" />
            </Array>
          </mxGeometry>
        </mxCell>
        <mxCell id="svwvXT8_LUP5L41M4OUA-237" value="" style="group" parent="svwvXT8_LUP5L41M4OUA-133" vertex="1" connectable="0">
          <mxGeometry x="540.25" y="40" width="40" height="120" as="geometry" />
        </mxCell>
        <mxCell id="svwvXT8_LUP5L41M4OUA-124" value="q&lt;sub&gt;2&lt;/sub&gt;" style="ellipse;whiteSpace=wrap;html=1;aspect=fixed;" parent="svwvXT8_LUP5L41M4OUA-237" vertex="1">
          <mxGeometry y="80" width="40" height="40" as="geometry" />
        </mxCell>
        <mxCell id="svwvXT8_LUP5L41M4OUA-130" value="" style="curved=1;endArrow=classic;html=1;rounded=0;entryX=0.352;entryY=0.021;entryDx=0;entryDy=0;entryPerimeter=0;endSize=8;exitX=0.648;exitY=0.026;exitDx=0;exitDy=0;exitPerimeter=0;" parent="svwvXT8_LUP5L41M4OUA-237" source="svwvXT8_LUP5L41M4OUA-124" target="svwvXT8_LUP5L41M4OUA-124" edge="1">
          <mxGeometry width="50" height="50" relative="1" as="geometry">
            <mxPoint x="26" y="81" as="sourcePoint" />
            <mxPoint x="14" y="81" as="targetPoint" />
            <Array as="points">
              <mxPoint x="19.5" />
            </Array>
          </mxGeometry>
        </mxCell>
        <mxCell id="svwvXT8_LUP5L41M4OUA-290" value="" style="group" parent="svwvXT8_LUP5L41M4OUA-133" vertex="1" connectable="0">
          <mxGeometry x="300.25" y="280" width="40" height="118" as="geometry" />
        </mxCell>
        <mxCell id="svwvXT8_LUP5L41M4OUA-118" value="q&lt;sub&gt;3&lt;/sub&gt;" style="ellipse;whiteSpace=wrap;html=1;aspect=fixed;" parent="svwvXT8_LUP5L41M4OUA-290" vertex="1">
          <mxGeometry width="40" height="40" as="geometry" />
        </mxCell>
        <mxCell id="svwvXT8_LUP5L41M4OUA-120" value="" style="curved=1;endArrow=classic;html=1;rounded=0;entryX=0.354;entryY=0.021;entryDx=0;entryDy=0;entryPerimeter=0;exitX=0.659;exitY=0.976;exitDx=0;exitDy=0;exitPerimeter=0;endSize=8;" parent="svwvXT8_LUP5L41M4OUA-290" source="svwvXT8_LUP5L41M4OUA-118" edge="1">
          <mxGeometry width="50" height="50" relative="1" as="geometry">
            <mxPoint x="26.5" y="39" as="sourcePoint" />
            <mxPoint x="13.5" y="39" as="targetPoint" />
            <Array as="points">
              <mxPoint x="20" y="118" />
            </Array>
          </mxGeometry>
        </mxCell>
        <mxCell id="svwvXT8_LUP5L41M4OUA-231" value="Problem 1.34" style="swimlane;" parent="1" vertex="1">
          <mxGeometry x="520" y="10" width="420" height="358" as="geometry" />
        </mxCell>
        <mxCell id="svwvXT8_LUP5L41M4OUA-232" value="" style="group" parent="svwvXT8_LUP5L41M4OUA-231" vertex="1" connectable="0">
          <mxGeometry x="310" y="130" width="40" height="40" as="geometry" />
        </mxCell>
        <mxCell id="svwvXT8_LUP5L41M4OUA-233" value="" style="ellipse;whiteSpace=wrap;html=1;aspect=fixed;" parent="svwvXT8_LUP5L41M4OUA-232" vertex="1">
          <mxGeometry width="40" height="40" as="geometry" />
        </mxCell>
        <mxCell id="svwvXT8_LUP5L41M4OUA-234" value="" style="ellipse;whiteSpace=wrap;html=1;aspect=fixed;" parent="svwvXT8_LUP5L41M4OUA-232" vertex="1">
          <mxGeometry x="10" y="10" width="20" height="20" as="geometry" />
        </mxCell>
        <mxCell id="svwvXT8_LUP5L41M4OUA-235" value="" style="curved=1;endArrow=classic;html=1;rounded=0;entryX=0.354;entryY=0.021;entryDx=0;entryDy=0;entryPerimeter=0;exitX=0.67;exitY=0.025;exitDx=0;exitDy=0;exitPerimeter=0;endSize=8;" parent="svwvXT8_LUP5L41M4OUA-232" source="svwvXT8_LUP5L41M4OUA-233" target="svwvXT8_LUP5L41M4OUA-233" edge="1">
          <mxGeometry width="50" height="50" relative="1" as="geometry">
            <mxPoint x="20" y="-50" as="sourcePoint" />
            <mxPoint x="10" y="80" as="targetPoint" />
            <Array as="points">
              <mxPoint x="20" y="-80" />
            </Array>
          </mxGeometry>
        </mxCell>
        <mxCell id="svwvXT8_LUP5L41M4OUA-238" value="" style="group" parent="svwvXT8_LUP5L41M4OUA-231" vertex="1" connectable="0">
          <mxGeometry x="110" y="50" width="45" height="120" as="geometry" />
        </mxCell>
        <mxCell id="svwvXT8_LUP5L41M4OUA-239" value="" style="ellipse;whiteSpace=wrap;html=1;aspect=fixed;" parent="svwvXT8_LUP5L41M4OUA-238" vertex="1">
          <mxGeometry y="80" width="40" height="40" as="geometry" />
        </mxCell>
        <mxCell id="svwvXT8_LUP5L41M4OUA-240" value="" style="curved=1;endArrow=classic;html=1;rounded=0;entryX=0.352;entryY=0.021;entryDx=0;entryDy=0;entryPerimeter=0;endSize=8;exitX=0.648;exitY=0.026;exitDx=0;exitDy=0;exitPerimeter=0;" parent="svwvXT8_LUP5L41M4OUA-238" source="svwvXT8_LUP5L41M4OUA-239" target="svwvXT8_LUP5L41M4OUA-239" edge="1">
          <mxGeometry width="50" height="50" relative="1" as="geometry">
            <mxPoint x="26" y="81" as="sourcePoint" />
            <mxPoint x="14" y="81" as="targetPoint" />
            <Array as="points">
              <mxPoint x="19.5" />
            </Array>
          </mxGeometry>
        </mxCell>
        <mxCell id="svwvXT8_LUP5L41M4OUA-282" value="" style="group" parent="svwvXT8_LUP5L41M4OUA-238" vertex="1" connectable="0">
          <mxGeometry x="-5" y="-10" width="50" height="40" as="geometry" />
        </mxCell>
        <mxCell id="svwvXT8_LUP5L41M4OUA-267" value="" style="group" parent="svwvXT8_LUP5L41M4OUA-282" vertex="1" connectable="0">
          <mxGeometry width="20" height="40" as="geometry" />
        </mxCell>
        <mxCell id="svwvXT8_LUP5L41M4OUA-268" value="&lt;div&gt;0&lt;/div&gt;&lt;div&gt;0&lt;/div&gt;" style="shape=partialRectangle;whiteSpace=wrap;html=1;bottom=0;top=0;fillColor=none;" parent="svwvXT8_LUP5L41M4OUA-267" vertex="1">
          <mxGeometry width="20" height="40" as="geometry" />
        </mxCell>
        <mxCell id="svwvXT8_LUP5L41M4OUA-269" value="" style="endArrow=none;html=1;rounded=0;" parent="svwvXT8_LUP5L41M4OUA-267" edge="1">
          <mxGeometry width="50" height="50" relative="1" as="geometry">
            <mxPoint as="sourcePoint" />
            <mxPoint as="targetPoint" />
            <Array as="points">
              <mxPoint />
              <mxPoint x="3" />
            </Array>
          </mxGeometry>
        </mxCell>
        <mxCell id="svwvXT8_LUP5L41M4OUA-270" value="" style="endArrow=none;html=1;rounded=0;" parent="svwvXT8_LUP5L41M4OUA-267" edge="1">
          <mxGeometry width="50" height="50" relative="1" as="geometry">
            <mxPoint x="17" as="sourcePoint" />
            <mxPoint x="17" as="targetPoint" />
            <Array as="points">
              <mxPoint x="17" />
              <mxPoint x="20" />
            </Array>
          </mxGeometry>
        </mxCell>
        <mxCell id="svwvXT8_LUP5L41M4OUA-271" value="" style="endArrow=none;html=1;rounded=0;" parent="svwvXT8_LUP5L41M4OUA-267" edge="1">
          <mxGeometry width="50" height="50" relative="1" as="geometry">
            <mxPoint x="17" y="40" as="sourcePoint" />
            <mxPoint x="17" y="40" as="targetPoint" />
            <Array as="points">
              <mxPoint x="17" y="40" />
              <mxPoint x="20" y="40" />
            </Array>
          </mxGeometry>
        </mxCell>
        <mxCell id="svwvXT8_LUP5L41M4OUA-272" value="" style="endArrow=none;html=1;rounded=0;" parent="svwvXT8_LUP5L41M4OUA-267" edge="1">
          <mxGeometry width="50" height="50" relative="1" as="geometry">
            <mxPoint y="40" as="sourcePoint" />
            <mxPoint y="40" as="targetPoint" />
            <Array as="points">
              <mxPoint y="40" />
              <mxPoint x="3" y="40" />
            </Array>
          </mxGeometry>
        </mxCell>
        <mxCell id="svwvXT8_LUP5L41M4OUA-273" value="" style="group" parent="svwvXT8_LUP5L41M4OUA-282" vertex="1" connectable="0">
          <mxGeometry x="30" width="20" height="40" as="geometry" />
        </mxCell>
        <mxCell id="svwvXT8_LUP5L41M4OUA-274" value="&lt;div&gt;1&lt;/div&gt;&lt;div&gt;1&lt;/div&gt;" style="shape=partialRectangle;whiteSpace=wrap;html=1;bottom=0;top=0;fillColor=none;" parent="svwvXT8_LUP5L41M4OUA-273" vertex="1">
          <mxGeometry width="20" height="40" as="geometry" />
        </mxCell>
        <mxCell id="svwvXT8_LUP5L41M4OUA-275" value="" style="endArrow=none;html=1;rounded=0;" parent="svwvXT8_LUP5L41M4OUA-273" edge="1">
          <mxGeometry width="50" height="50" relative="1" as="geometry">
            <mxPoint as="sourcePoint" />
            <mxPoint as="targetPoint" />
            <Array as="points">
              <mxPoint />
              <mxPoint x="3" />
            </Array>
          </mxGeometry>
        </mxCell>
        <mxCell id="svwvXT8_LUP5L41M4OUA-276" value="" style="endArrow=none;html=1;rounded=0;" parent="svwvXT8_LUP5L41M4OUA-273" edge="1">
          <mxGeometry width="50" height="50" relative="1" as="geometry">
            <mxPoint x="17" as="sourcePoint" />
            <mxPoint x="17" as="targetPoint" />
            <Array as="points">
              <mxPoint x="17" />
              <mxPoint x="20" />
            </Array>
          </mxGeometry>
        </mxCell>
        <mxCell id="svwvXT8_LUP5L41M4OUA-277" value="" style="endArrow=none;html=1;rounded=0;" parent="svwvXT8_LUP5L41M4OUA-273" edge="1">
          <mxGeometry width="50" height="50" relative="1" as="geometry">
            <mxPoint x="17" y="40" as="sourcePoint" />
            <mxPoint x="17" y="40" as="targetPoint" />
            <Array as="points">
              <mxPoint x="17" y="40" />
              <mxPoint x="20" y="40" />
            </Array>
          </mxGeometry>
        </mxCell>
        <mxCell id="svwvXT8_LUP5L41M4OUA-278" value="" style="endArrow=none;html=1;rounded=0;" parent="svwvXT8_LUP5L41M4OUA-273" edge="1">
          <mxGeometry width="50" height="50" relative="1" as="geometry">
            <mxPoint y="40" as="sourcePoint" />
            <mxPoint y="40" as="targetPoint" />
            <Array as="points">
              <mxPoint y="40" />
              <mxPoint x="3" y="40" />
            </Array>
          </mxGeometry>
        </mxCell>
        <mxCell id="svwvXT8_LUP5L41M4OUA-279" value="" style="endArrow=classic;html=1;rounded=0;strokeWidth=1;endSize=8;" parent="svwvXT8_LUP5L41M4OUA-231" edge="1">
          <mxGeometry width="50" height="50" relative="1" as="geometry">
            <mxPoint x="69.5" y="149.70999999999998" as="sourcePoint" />
            <mxPoint x="110" y="149.70999999999998" as="targetPoint" />
          </mxGeometry>
        </mxCell>
        <mxCell id="svwvXT8_LUP5L41M4OUA-280" value="" style="endArrow=classic;html=1;rounded=0;strokeWidth=1;endSize=8;" parent="svwvXT8_LUP5L41M4OUA-231" source="svwvXT8_LUP5L41M4OUA-239" target="svwvXT8_LUP5L41M4OUA-292" edge="1">
          <mxGeometry width="50" height="50" relative="1" as="geometry">
            <mxPoint x="79.5" y="159.70999999999998" as="sourcePoint" />
            <mxPoint x="214.3826238111394" y="217.50609904891155" as="targetPoint" />
          </mxGeometry>
        </mxCell>
        <mxCell id="svwvXT8_LUP5L41M4OUA-281" value="" style="endArrow=classic;html=1;rounded=0;strokeWidth=1;endSize=8;" parent="svwvXT8_LUP5L41M4OUA-231" source="svwvXT8_LUP5L41M4OUA-239" target="svwvXT8_LUP5L41M4OUA-233" edge="1">
          <mxGeometry width="50" height="50" relative="1" as="geometry">
            <mxPoint x="89.5" y="169.70999999999998" as="sourcePoint" />
            <mxPoint x="130" y="169.70999999999998" as="targetPoint" />
          </mxGeometry>
        </mxCell>
        <mxCell id="svwvXT8_LUP5L41M4OUA-266" value="" style="group" parent="svwvXT8_LUP5L41M4OUA-231" vertex="1" connectable="0">
          <mxGeometry x="275" y="40" width="110" height="40" as="geometry" />
        </mxCell>
        <mxCell id="svwvXT8_LUP5L41M4OUA-242" value="" style="group" parent="svwvXT8_LUP5L41M4OUA-266" vertex="1" connectable="0">
          <mxGeometry width="20" height="40" as="geometry" />
        </mxCell>
        <mxCell id="svwvXT8_LUP5L41M4OUA-243" value="&lt;div&gt;0&lt;/div&gt;&lt;div&gt;0&lt;/div&gt;" style="shape=partialRectangle;whiteSpace=wrap;html=1;bottom=0;top=0;fillColor=none;" parent="svwvXT8_LUP5L41M4OUA-242" vertex="1">
          <mxGeometry width="20" height="40" as="geometry" />
        </mxCell>
        <mxCell id="svwvXT8_LUP5L41M4OUA-244" value="" style="endArrow=none;html=1;rounded=0;" parent="svwvXT8_LUP5L41M4OUA-242" edge="1">
          <mxGeometry width="50" height="50" relative="1" as="geometry">
            <mxPoint as="sourcePoint" />
            <mxPoint as="targetPoint" />
            <Array as="points">
              <mxPoint />
              <mxPoint x="3" />
            </Array>
          </mxGeometry>
        </mxCell>
        <mxCell id="svwvXT8_LUP5L41M4OUA-245" value="" style="endArrow=none;html=1;rounded=0;" parent="svwvXT8_LUP5L41M4OUA-242" edge="1">
          <mxGeometry width="50" height="50" relative="1" as="geometry">
            <mxPoint x="17" as="sourcePoint" />
            <mxPoint x="17" as="targetPoint" />
            <Array as="points">
              <mxPoint x="17" />
              <mxPoint x="20" />
            </Array>
          </mxGeometry>
        </mxCell>
        <mxCell id="svwvXT8_LUP5L41M4OUA-246" value="" style="endArrow=none;html=1;rounded=0;" parent="svwvXT8_LUP5L41M4OUA-242" edge="1">
          <mxGeometry width="50" height="50" relative="1" as="geometry">
            <mxPoint x="17" y="40" as="sourcePoint" />
            <mxPoint x="17" y="40" as="targetPoint" />
            <Array as="points">
              <mxPoint x="17" y="40" />
              <mxPoint x="20" y="40" />
            </Array>
          </mxGeometry>
        </mxCell>
        <mxCell id="svwvXT8_LUP5L41M4OUA-247" value="" style="endArrow=none;html=1;rounded=0;" parent="svwvXT8_LUP5L41M4OUA-242" edge="1">
          <mxGeometry width="50" height="50" relative="1" as="geometry">
            <mxPoint y="40" as="sourcePoint" />
            <mxPoint y="40" as="targetPoint" />
            <Array as="points">
              <mxPoint y="40" />
              <mxPoint x="3" y="40" />
            </Array>
          </mxGeometry>
        </mxCell>
        <mxCell id="svwvXT8_LUP5L41M4OUA-248" value="" style="group" parent="svwvXT8_LUP5L41M4OUA-266" vertex="1" connectable="0">
          <mxGeometry x="30.25" width="20" height="40" as="geometry" />
        </mxCell>
        <mxCell id="svwvXT8_LUP5L41M4OUA-249" value="&lt;div&gt;0&lt;/div&gt;&lt;div&gt;1&lt;/div&gt;" style="shape=partialRectangle;whiteSpace=wrap;html=1;bottom=0;top=0;fillColor=none;" parent="svwvXT8_LUP5L41M4OUA-248" vertex="1">
          <mxGeometry width="20" height="40" as="geometry" />
        </mxCell>
        <mxCell id="svwvXT8_LUP5L41M4OUA-250" value="" style="endArrow=none;html=1;rounded=0;" parent="svwvXT8_LUP5L41M4OUA-248" edge="1">
          <mxGeometry width="50" height="50" relative="1" as="geometry">
            <mxPoint as="sourcePoint" />
            <mxPoint as="targetPoint" />
            <Array as="points">
              <mxPoint />
              <mxPoint x="3" />
            </Array>
          </mxGeometry>
        </mxCell>
        <mxCell id="svwvXT8_LUP5L41M4OUA-251" value="" style="endArrow=none;html=1;rounded=0;" parent="svwvXT8_LUP5L41M4OUA-248" edge="1">
          <mxGeometry width="50" height="50" relative="1" as="geometry">
            <mxPoint x="17" as="sourcePoint" />
            <mxPoint x="17" as="targetPoint" />
            <Array as="points">
              <mxPoint x="17" />
              <mxPoint x="20" />
            </Array>
          </mxGeometry>
        </mxCell>
        <mxCell id="svwvXT8_LUP5L41M4OUA-252" value="" style="endArrow=none;html=1;rounded=0;" parent="svwvXT8_LUP5L41M4OUA-248" edge="1">
          <mxGeometry width="50" height="50" relative="1" as="geometry">
            <mxPoint x="17" y="40" as="sourcePoint" />
            <mxPoint x="17" y="40" as="targetPoint" />
            <Array as="points">
              <mxPoint x="17" y="40" />
              <mxPoint x="20" y="40" />
            </Array>
          </mxGeometry>
        </mxCell>
        <mxCell id="svwvXT8_LUP5L41M4OUA-253" value="" style="endArrow=none;html=1;rounded=0;" parent="svwvXT8_LUP5L41M4OUA-248" edge="1">
          <mxGeometry width="50" height="50" relative="1" as="geometry">
            <mxPoint y="40" as="sourcePoint" />
            <mxPoint y="40" as="targetPoint" />
            <Array as="points">
              <mxPoint y="40" />
              <mxPoint x="3" y="40" />
            </Array>
          </mxGeometry>
        </mxCell>
        <mxCell id="svwvXT8_LUP5L41M4OUA-254" value="" style="group" parent="svwvXT8_LUP5L41M4OUA-266" vertex="1" connectable="0">
          <mxGeometry x="60" width="20" height="40" as="geometry" />
        </mxCell>
        <mxCell id="svwvXT8_LUP5L41M4OUA-255" value="&lt;div&gt;1&lt;/div&gt;&lt;div&gt;0&lt;/div&gt;" style="shape=partialRectangle;whiteSpace=wrap;html=1;bottom=0;top=0;fillColor=none;" parent="svwvXT8_LUP5L41M4OUA-254" vertex="1">
          <mxGeometry width="20" height="40" as="geometry" />
        </mxCell>
        <mxCell id="svwvXT8_LUP5L41M4OUA-256" value="" style="endArrow=none;html=1;rounded=0;" parent="svwvXT8_LUP5L41M4OUA-254" edge="1">
          <mxGeometry width="50" height="50" relative="1" as="geometry">
            <mxPoint as="sourcePoint" />
            <mxPoint as="targetPoint" />
            <Array as="points">
              <mxPoint />
              <mxPoint x="3" />
            </Array>
          </mxGeometry>
        </mxCell>
        <mxCell id="svwvXT8_LUP5L41M4OUA-257" value="" style="endArrow=none;html=1;rounded=0;" parent="svwvXT8_LUP5L41M4OUA-254" edge="1">
          <mxGeometry width="50" height="50" relative="1" as="geometry">
            <mxPoint x="17" as="sourcePoint" />
            <mxPoint x="17" as="targetPoint" />
            <Array as="points">
              <mxPoint x="17" />
              <mxPoint x="20" />
            </Array>
          </mxGeometry>
        </mxCell>
        <mxCell id="svwvXT8_LUP5L41M4OUA-258" value="" style="endArrow=none;html=1;rounded=0;" parent="svwvXT8_LUP5L41M4OUA-254" edge="1">
          <mxGeometry width="50" height="50" relative="1" as="geometry">
            <mxPoint x="17" y="40" as="sourcePoint" />
            <mxPoint x="17" y="40" as="targetPoint" />
            <Array as="points">
              <mxPoint x="17" y="40" />
              <mxPoint x="20" y="40" />
            </Array>
          </mxGeometry>
        </mxCell>
        <mxCell id="svwvXT8_LUP5L41M4OUA-259" value="" style="endArrow=none;html=1;rounded=0;" parent="svwvXT8_LUP5L41M4OUA-254" edge="1">
          <mxGeometry width="50" height="50" relative="1" as="geometry">
            <mxPoint y="40" as="sourcePoint" />
            <mxPoint y="40" as="targetPoint" />
            <Array as="points">
              <mxPoint y="40" />
              <mxPoint x="3" y="40" />
            </Array>
          </mxGeometry>
        </mxCell>
        <mxCell id="svwvXT8_LUP5L41M4OUA-260" value="" style="group" parent="svwvXT8_LUP5L41M4OUA-266" vertex="1" connectable="0">
          <mxGeometry x="90" width="20" height="40" as="geometry" />
        </mxCell>
        <mxCell id="svwvXT8_LUP5L41M4OUA-261" value="&lt;div&gt;1&lt;/div&gt;&lt;div&gt;1&lt;/div&gt;" style="shape=partialRectangle;whiteSpace=wrap;html=1;bottom=0;top=0;fillColor=none;" parent="svwvXT8_LUP5L41M4OUA-260" vertex="1">
          <mxGeometry width="20" height="40" as="geometry" />
        </mxCell>
        <mxCell id="svwvXT8_LUP5L41M4OUA-262" value="" style="endArrow=none;html=1;rounded=0;" parent="svwvXT8_LUP5L41M4OUA-260" edge="1">
          <mxGeometry width="50" height="50" relative="1" as="geometry">
            <mxPoint as="sourcePoint" />
            <mxPoint as="targetPoint" />
            <Array as="points">
              <mxPoint />
              <mxPoint x="3" />
            </Array>
          </mxGeometry>
        </mxCell>
        <mxCell id="svwvXT8_LUP5L41M4OUA-263" value="" style="endArrow=none;html=1;rounded=0;" parent="svwvXT8_LUP5L41M4OUA-260" edge="1">
          <mxGeometry width="50" height="50" relative="1" as="geometry">
            <mxPoint x="17" as="sourcePoint" />
            <mxPoint x="17" as="targetPoint" />
            <Array as="points">
              <mxPoint x="17" />
              <mxPoint x="20" />
            </Array>
          </mxGeometry>
        </mxCell>
        <mxCell id="svwvXT8_LUP5L41M4OUA-264" value="" style="endArrow=none;html=1;rounded=0;" parent="svwvXT8_LUP5L41M4OUA-260" edge="1">
          <mxGeometry width="50" height="50" relative="1" as="geometry">
            <mxPoint x="17" y="40" as="sourcePoint" />
            <mxPoint x="17" y="40" as="targetPoint" />
            <Array as="points">
              <mxPoint x="17" y="40" />
              <mxPoint x="20" y="40" />
            </Array>
          </mxGeometry>
        </mxCell>
        <mxCell id="svwvXT8_LUP5L41M4OUA-265" value="" style="endArrow=none;html=1;rounded=0;" parent="svwvXT8_LUP5L41M4OUA-260" edge="1">
          <mxGeometry width="50" height="50" relative="1" as="geometry">
            <mxPoint y="40" as="sourcePoint" />
            <mxPoint y="40" as="targetPoint" />
            <Array as="points">
              <mxPoint y="40" />
              <mxPoint x="3" y="40" />
            </Array>
          </mxGeometry>
        </mxCell>
        <mxCell id="svwvXT8_LUP5L41M4OUA-283" value="" style="group" parent="svwvXT8_LUP5L41M4OUA-231" vertex="1" connectable="0">
          <mxGeometry x="150" y="200" width="20" height="40" as="geometry" />
        </mxCell>
        <mxCell id="svwvXT8_LUP5L41M4OUA-284" value="&lt;div&gt;0&lt;/div&gt;&lt;div&gt;1&lt;/div&gt;" style="shape=partialRectangle;whiteSpace=wrap;html=1;bottom=0;top=0;fillColor=none;" parent="svwvXT8_LUP5L41M4OUA-283" vertex="1">
          <mxGeometry width="20" height="40" as="geometry" />
        </mxCell>
        <mxCell id="svwvXT8_LUP5L41M4OUA-285" value="" style="endArrow=none;html=1;rounded=0;" parent="svwvXT8_LUP5L41M4OUA-283" edge="1">
          <mxGeometry width="50" height="50" relative="1" as="geometry">
            <mxPoint as="sourcePoint" />
            <mxPoint as="targetPoint" />
            <Array as="points">
              <mxPoint />
              <mxPoint x="3" />
            </Array>
          </mxGeometry>
        </mxCell>
        <mxCell id="svwvXT8_LUP5L41M4OUA-286" value="" style="endArrow=none;html=1;rounded=0;" parent="svwvXT8_LUP5L41M4OUA-283" edge="1">
          <mxGeometry width="50" height="50" relative="1" as="geometry">
            <mxPoint x="17" as="sourcePoint" />
            <mxPoint x="17" as="targetPoint" />
            <Array as="points">
              <mxPoint x="17" />
              <mxPoint x="20" />
            </Array>
          </mxGeometry>
        </mxCell>
        <mxCell id="svwvXT8_LUP5L41M4OUA-287" value="" style="endArrow=none;html=1;rounded=0;" parent="svwvXT8_LUP5L41M4OUA-283" edge="1">
          <mxGeometry width="50" height="50" relative="1" as="geometry">
            <mxPoint x="17" y="40" as="sourcePoint" />
            <mxPoint x="17" y="40" as="targetPoint" />
            <Array as="points">
              <mxPoint x="17" y="40" />
              <mxPoint x="20" y="40" />
            </Array>
          </mxGeometry>
        </mxCell>
        <mxCell id="svwvXT8_LUP5L41M4OUA-288" value="" style="endArrow=none;html=1;rounded=0;" parent="svwvXT8_LUP5L41M4OUA-283" edge="1">
          <mxGeometry width="50" height="50" relative="1" as="geometry">
            <mxPoint y="40" as="sourcePoint" />
            <mxPoint y="40" as="targetPoint" />
            <Array as="points">
              <mxPoint y="40" />
              <mxPoint x="3" y="40" />
            </Array>
          </mxGeometry>
        </mxCell>
        <mxCell id="svwvXT8_LUP5L41M4OUA-291" value="" style="group" parent="svwvXT8_LUP5L41M4OUA-231" vertex="1" connectable="0">
          <mxGeometry x="210" y="210" width="75" height="130" as="geometry" />
        </mxCell>
        <mxCell id="svwvXT8_LUP5L41M4OUA-292" value="" style="ellipse;whiteSpace=wrap;html=1;aspect=fixed;" parent="svwvXT8_LUP5L41M4OUA-291" vertex="1">
          <mxGeometry width="40" height="40" as="geometry" />
        </mxCell>
        <mxCell id="svwvXT8_LUP5L41M4OUA-293" value="" style="curved=1;endArrow=classic;html=1;rounded=0;entryX=0.354;entryY=0.021;entryDx=0;entryDy=0;entryPerimeter=0;exitX=0.659;exitY=0.976;exitDx=0;exitDy=0;exitPerimeter=0;endSize=8;" parent="svwvXT8_LUP5L41M4OUA-291" source="svwvXT8_LUP5L41M4OUA-292" edge="1">
          <mxGeometry width="50" height="50" relative="1" as="geometry">
            <mxPoint x="26.5" y="39" as="sourcePoint" />
            <mxPoint x="13.5" y="39" as="targetPoint" />
            <Array as="points">
              <mxPoint x="20" y="118" />
            </Array>
          </mxGeometry>
        </mxCell>
        <mxCell id="svwvXT8_LUP5L41M4OUA-294" value="" style="group" parent="svwvXT8_LUP5L41M4OUA-291" vertex="1" connectable="0">
          <mxGeometry x="-35" y="90" width="110" height="40" as="geometry" />
        </mxCell>
        <mxCell id="svwvXT8_LUP5L41M4OUA-295" value="" style="group" parent="svwvXT8_LUP5L41M4OUA-294" vertex="1" connectable="0">
          <mxGeometry width="20" height="40" as="geometry" />
        </mxCell>
        <mxCell id="svwvXT8_LUP5L41M4OUA-296" value="&lt;div&gt;0&lt;/div&gt;&lt;div&gt;0&lt;/div&gt;" style="shape=partialRectangle;whiteSpace=wrap;html=1;bottom=0;top=0;fillColor=none;" parent="svwvXT8_LUP5L41M4OUA-295" vertex="1">
          <mxGeometry width="20" height="40" as="geometry" />
        </mxCell>
        <mxCell id="svwvXT8_LUP5L41M4OUA-297" value="" style="endArrow=none;html=1;rounded=0;" parent="svwvXT8_LUP5L41M4OUA-295" edge="1">
          <mxGeometry width="50" height="50" relative="1" as="geometry">
            <mxPoint as="sourcePoint" />
            <mxPoint as="targetPoint" />
            <Array as="points">
              <mxPoint />
              <mxPoint x="3" />
            </Array>
          </mxGeometry>
        </mxCell>
        <mxCell id="svwvXT8_LUP5L41M4OUA-298" value="" style="endArrow=none;html=1;rounded=0;" parent="svwvXT8_LUP5L41M4OUA-295" edge="1">
          <mxGeometry width="50" height="50" relative="1" as="geometry">
            <mxPoint x="17" as="sourcePoint" />
            <mxPoint x="17" as="targetPoint" />
            <Array as="points">
              <mxPoint x="17" />
              <mxPoint x="20" />
            </Array>
          </mxGeometry>
        </mxCell>
        <mxCell id="svwvXT8_LUP5L41M4OUA-299" value="" style="endArrow=none;html=1;rounded=0;" parent="svwvXT8_LUP5L41M4OUA-295" edge="1">
          <mxGeometry width="50" height="50" relative="1" as="geometry">
            <mxPoint x="17" y="40" as="sourcePoint" />
            <mxPoint x="17" y="40" as="targetPoint" />
            <Array as="points">
              <mxPoint x="17" y="40" />
              <mxPoint x="20" y="40" />
            </Array>
          </mxGeometry>
        </mxCell>
        <mxCell id="svwvXT8_LUP5L41M4OUA-300" value="" style="endArrow=none;html=1;rounded=0;" parent="svwvXT8_LUP5L41M4OUA-295" edge="1">
          <mxGeometry width="50" height="50" relative="1" as="geometry">
            <mxPoint y="40" as="sourcePoint" />
            <mxPoint y="40" as="targetPoint" />
            <Array as="points">
              <mxPoint y="40" />
              <mxPoint x="3" y="40" />
            </Array>
          </mxGeometry>
        </mxCell>
        <mxCell id="svwvXT8_LUP5L41M4OUA-301" value="" style="group" parent="svwvXT8_LUP5L41M4OUA-294" vertex="1" connectable="0">
          <mxGeometry x="30.25" width="20" height="40" as="geometry" />
        </mxCell>
        <mxCell id="svwvXT8_LUP5L41M4OUA-302" value="&lt;div&gt;0&lt;/div&gt;&lt;div&gt;1&lt;/div&gt;" style="shape=partialRectangle;whiteSpace=wrap;html=1;bottom=0;top=0;fillColor=none;" parent="svwvXT8_LUP5L41M4OUA-301" vertex="1">
          <mxGeometry width="20" height="40" as="geometry" />
        </mxCell>
        <mxCell id="svwvXT8_LUP5L41M4OUA-303" value="" style="endArrow=none;html=1;rounded=0;" parent="svwvXT8_LUP5L41M4OUA-301" edge="1">
          <mxGeometry width="50" height="50" relative="1" as="geometry">
            <mxPoint as="sourcePoint" />
            <mxPoint as="targetPoint" />
            <Array as="points">
              <mxPoint />
              <mxPoint x="3" />
            </Array>
          </mxGeometry>
        </mxCell>
        <mxCell id="svwvXT8_LUP5L41M4OUA-304" value="" style="endArrow=none;html=1;rounded=0;" parent="svwvXT8_LUP5L41M4OUA-301" edge="1">
          <mxGeometry width="50" height="50" relative="1" as="geometry">
            <mxPoint x="17" as="sourcePoint" />
            <mxPoint x="17" as="targetPoint" />
            <Array as="points">
              <mxPoint x="17" />
              <mxPoint x="20" />
            </Array>
          </mxGeometry>
        </mxCell>
        <mxCell id="svwvXT8_LUP5L41M4OUA-305" value="" style="endArrow=none;html=1;rounded=0;" parent="svwvXT8_LUP5L41M4OUA-301" edge="1">
          <mxGeometry width="50" height="50" relative="1" as="geometry">
            <mxPoint x="17" y="40" as="sourcePoint" />
            <mxPoint x="17" y="40" as="targetPoint" />
            <Array as="points">
              <mxPoint x="17" y="40" />
              <mxPoint x="20" y="40" />
            </Array>
          </mxGeometry>
        </mxCell>
        <mxCell id="svwvXT8_LUP5L41M4OUA-306" value="" style="endArrow=none;html=1;rounded=0;" parent="svwvXT8_LUP5L41M4OUA-301" edge="1">
          <mxGeometry width="50" height="50" relative="1" as="geometry">
            <mxPoint y="40" as="sourcePoint" />
            <mxPoint y="40" as="targetPoint" />
            <Array as="points">
              <mxPoint y="40" />
              <mxPoint x="3" y="40" />
            </Array>
          </mxGeometry>
        </mxCell>
        <mxCell id="svwvXT8_LUP5L41M4OUA-307" value="" style="group" parent="svwvXT8_LUP5L41M4OUA-294" vertex="1" connectable="0">
          <mxGeometry x="60" width="20" height="40" as="geometry" />
        </mxCell>
        <mxCell id="svwvXT8_LUP5L41M4OUA-308" value="&lt;div&gt;1&lt;/div&gt;&lt;div&gt;0&lt;/div&gt;" style="shape=partialRectangle;whiteSpace=wrap;html=1;bottom=0;top=0;fillColor=none;" parent="svwvXT8_LUP5L41M4OUA-307" vertex="1">
          <mxGeometry width="20" height="40" as="geometry" />
        </mxCell>
        <mxCell id="svwvXT8_LUP5L41M4OUA-309" value="" style="endArrow=none;html=1;rounded=0;" parent="svwvXT8_LUP5L41M4OUA-307" edge="1">
          <mxGeometry width="50" height="50" relative="1" as="geometry">
            <mxPoint as="sourcePoint" />
            <mxPoint as="targetPoint" />
            <Array as="points">
              <mxPoint />
              <mxPoint x="3" />
            </Array>
          </mxGeometry>
        </mxCell>
        <mxCell id="svwvXT8_LUP5L41M4OUA-310" value="" style="endArrow=none;html=1;rounded=0;" parent="svwvXT8_LUP5L41M4OUA-307" edge="1">
          <mxGeometry width="50" height="50" relative="1" as="geometry">
            <mxPoint x="17" as="sourcePoint" />
            <mxPoint x="17" as="targetPoint" />
            <Array as="points">
              <mxPoint x="17" />
              <mxPoint x="20" />
            </Array>
          </mxGeometry>
        </mxCell>
        <mxCell id="svwvXT8_LUP5L41M4OUA-311" value="" style="endArrow=none;html=1;rounded=0;" parent="svwvXT8_LUP5L41M4OUA-307" edge="1">
          <mxGeometry width="50" height="50" relative="1" as="geometry">
            <mxPoint x="17" y="40" as="sourcePoint" />
            <mxPoint x="17" y="40" as="targetPoint" />
            <Array as="points">
              <mxPoint x="17" y="40" />
              <mxPoint x="20" y="40" />
            </Array>
          </mxGeometry>
        </mxCell>
        <mxCell id="svwvXT8_LUP5L41M4OUA-312" value="" style="endArrow=none;html=1;rounded=0;" parent="svwvXT8_LUP5L41M4OUA-307" edge="1">
          <mxGeometry width="50" height="50" relative="1" as="geometry">
            <mxPoint y="40" as="sourcePoint" />
            <mxPoint y="40" as="targetPoint" />
            <Array as="points">
              <mxPoint y="40" />
              <mxPoint x="3" y="40" />
            </Array>
          </mxGeometry>
        </mxCell>
        <mxCell id="svwvXT8_LUP5L41M4OUA-313" value="" style="group" parent="svwvXT8_LUP5L41M4OUA-294" vertex="1" connectable="0">
          <mxGeometry x="90" width="20" height="40" as="geometry" />
        </mxCell>
        <mxCell id="svwvXT8_LUP5L41M4OUA-314" value="&lt;div&gt;1&lt;/div&gt;&lt;div&gt;1&lt;/div&gt;" style="shape=partialRectangle;whiteSpace=wrap;html=1;bottom=0;top=0;fillColor=none;" parent="svwvXT8_LUP5L41M4OUA-313" vertex="1">
          <mxGeometry width="20" height="40" as="geometry" />
        </mxCell>
        <mxCell id="svwvXT8_LUP5L41M4OUA-315" value="" style="endArrow=none;html=1;rounded=0;" parent="svwvXT8_LUP5L41M4OUA-313" edge="1">
          <mxGeometry width="50" height="50" relative="1" as="geometry">
            <mxPoint as="sourcePoint" />
            <mxPoint as="targetPoint" />
            <Array as="points">
              <mxPoint />
              <mxPoint x="3" />
            </Array>
          </mxGeometry>
        </mxCell>
        <mxCell id="svwvXT8_LUP5L41M4OUA-316" value="" style="endArrow=none;html=1;rounded=0;" parent="svwvXT8_LUP5L41M4OUA-313" edge="1">
          <mxGeometry width="50" height="50" relative="1" as="geometry">
            <mxPoint x="17" as="sourcePoint" />
            <mxPoint x="17" as="targetPoint" />
            <Array as="points">
              <mxPoint x="17" />
              <mxPoint x="20" />
            </Array>
          </mxGeometry>
        </mxCell>
        <mxCell id="svwvXT8_LUP5L41M4OUA-317" value="" style="endArrow=none;html=1;rounded=0;" parent="svwvXT8_LUP5L41M4OUA-313" edge="1">
          <mxGeometry width="50" height="50" relative="1" as="geometry">
            <mxPoint x="17" y="40" as="sourcePoint" />
            <mxPoint x="17" y="40" as="targetPoint" />
            <Array as="points">
              <mxPoint x="17" y="40" />
              <mxPoint x="20" y="40" />
            </Array>
          </mxGeometry>
        </mxCell>
        <mxCell id="svwvXT8_LUP5L41M4OUA-318" value="" style="endArrow=none;html=1;rounded=0;" parent="svwvXT8_LUP5L41M4OUA-313" edge="1">
          <mxGeometry width="50" height="50" relative="1" as="geometry">
            <mxPoint y="40" as="sourcePoint" />
            <mxPoint y="40" as="targetPoint" />
            <Array as="points">
              <mxPoint y="40" />
              <mxPoint x="3" y="40" />
            </Array>
          </mxGeometry>
        </mxCell>
        <mxCell id="svwvXT8_LUP5L41M4OUA-319" value="" style="group" parent="svwvXT8_LUP5L41M4OUA-231" vertex="1" connectable="0">
          <mxGeometry x="220" y="100" width="20" height="40" as="geometry" />
        </mxCell>
        <mxCell id="svwvXT8_LUP5L41M4OUA-320" value="&lt;div&gt;1&lt;/div&gt;&lt;div&gt;0&lt;/div&gt;" style="shape=partialRectangle;whiteSpace=wrap;html=1;bottom=0;top=0;fillColor=none;" parent="svwvXT8_LUP5L41M4OUA-319" vertex="1">
          <mxGeometry width="20" height="40" as="geometry" />
        </mxCell>
        <mxCell id="svwvXT8_LUP5L41M4OUA-321" value="" style="endArrow=none;html=1;rounded=0;" parent="svwvXT8_LUP5L41M4OUA-319" edge="1">
          <mxGeometry width="50" height="50" relative="1" as="geometry">
            <mxPoint as="sourcePoint" />
            <mxPoint as="targetPoint" />
            <Array as="points">
              <mxPoint />
              <mxPoint x="3" />
            </Array>
          </mxGeometry>
        </mxCell>
        <mxCell id="svwvXT8_LUP5L41M4OUA-322" value="" style="endArrow=none;html=1;rounded=0;" parent="svwvXT8_LUP5L41M4OUA-319" edge="1">
          <mxGeometry width="50" height="50" relative="1" as="geometry">
            <mxPoint x="17" as="sourcePoint" />
            <mxPoint x="17" as="targetPoint" />
            <Array as="points">
              <mxPoint x="17" />
              <mxPoint x="20" />
            </Array>
          </mxGeometry>
        </mxCell>
        <mxCell id="svwvXT8_LUP5L41M4OUA-323" value="" style="endArrow=none;html=1;rounded=0;" parent="svwvXT8_LUP5L41M4OUA-319" edge="1">
          <mxGeometry width="50" height="50" relative="1" as="geometry">
            <mxPoint x="17" y="40" as="sourcePoint" />
            <mxPoint x="17" y="40" as="targetPoint" />
            <Array as="points">
              <mxPoint x="17" y="40" />
              <mxPoint x="20" y="40" />
            </Array>
          </mxGeometry>
        </mxCell>
        <mxCell id="svwvXT8_LUP5L41M4OUA-324" value="" style="endArrow=none;html=1;rounded=0;" parent="svwvXT8_LUP5L41M4OUA-319" edge="1">
          <mxGeometry width="50" height="50" relative="1" as="geometry">
            <mxPoint y="40" as="sourcePoint" />
            <mxPoint y="40" as="targetPoint" />
            <Array as="points">
              <mxPoint y="40" />
              <mxPoint x="3" y="40" />
            </Array>
          </mxGeometry>
        </mxCell>
      </root>
    </mxGraphModel>
  </diagram>
  <diagram id="mqZuDwLhb_0OvuuCSJzs" name="P1.71">
    <mxGraphModel dx="1150" dy="703" grid="1" gridSize="10" guides="1" tooltips="1" connect="1" arrows="1" fold="1" page="1" pageScale="1" pageWidth="850" pageHeight="1100" math="0" shadow="0">
      <root>
        <mxCell id="0" />
        <mxCell id="1" parent="0" />
        <mxCell id="IV_pwVjNXVyepCab-POb-1" value="Problem 1.33" style="swimlane;" vertex="1" parent="1">
          <mxGeometry x="40" y="40" width="640" height="240" as="geometry">
            <mxRectangle x="10" y="470" width="90" height="30" as="alternateBounds" />
          </mxGeometry>
        </mxCell>
        <mxCell id="IV_pwVjNXVyepCab-POb-2" value="q&lt;sup&gt;x&lt;/sup&gt;&lt;sub&gt;2&lt;/sub&gt;" style="ellipse;whiteSpace=wrap;html=1;aspect=fixed;" vertex="1" parent="IV_pwVjNXVyepCab-POb-1">
          <mxGeometry x="200" y="120" width="40" height="40" as="geometry" />
        </mxCell>
        <mxCell id="IV_pwVjNXVyepCab-POb-3" value="" style="group" vertex="1" connectable="0" parent="IV_pwVjNXVyepCab-POb-1">
          <mxGeometry x="560" y="120" width="40" height="40" as="geometry" />
        </mxCell>
        <mxCell id="IV_pwVjNXVyepCab-POb-4" value="" style="ellipse;whiteSpace=wrap;html=1;aspect=fixed;" vertex="1" parent="IV_pwVjNXVyepCab-POb-3">
          <mxGeometry width="40" height="40" as="geometry" />
        </mxCell>
        <mxCell id="IV_pwVjNXVyepCab-POb-5" value="q&lt;sup&gt;z&lt;/sup&gt;&lt;sub&gt;2&lt;/sub&gt;" style="ellipse;whiteSpace=wrap;html=1;aspect=fixed;" vertex="1" parent="IV_pwVjNXVyepCab-POb-3">
          <mxGeometry x="10" y="10" width="20" height="20" as="geometry" />
        </mxCell>
        <mxCell id="IV_pwVjNXVyepCab-POb-11" value="" style="endArrow=classic;html=1;rounded=0;strokeWidth=1;endSize=8;" edge="1" parent="IV_pwVjNXVyepCab-POb-1" target="lp_HpHyWQ6E8qKvf8Qju-1">
          <mxGeometry width="50" height="50" relative="1" as="geometry">
            <mxPoint x="40" y="140" as="sourcePoint" />
            <mxPoint x="-39.75" y="139.71000000000004" as="targetPoint" />
          </mxGeometry>
        </mxCell>
        <mxCell id="lp_HpHyWQ6E8qKvf8Qju-1" value="q&lt;sup&gt;x&lt;/sup&gt;&lt;sub&gt;1&lt;/sub&gt;" style="ellipse;whiteSpace=wrap;html=1;aspect=fixed;" vertex="1" parent="IV_pwVjNXVyepCab-POb-1">
          <mxGeometry x="80" y="120" width="40" height="40" as="geometry" />
        </mxCell>
        <mxCell id="lp_HpHyWQ6E8qKvf8Qju-2" value="" style="endArrow=classic;html=1;rounded=0;strokeWidth=1;endSize=8;" edge="1" parent="IV_pwVjNXVyepCab-POb-1" source="lp_HpHyWQ6E8qKvf8Qju-1" target="IV_pwVjNXVyepCab-POb-2">
          <mxGeometry width="50" height="50" relative="1" as="geometry">
            <mxPoint x="-70.25" y="149.71000000000004" as="sourcePoint" />
            <mxPoint x="-29.75" y="149.71000000000004" as="targetPoint" />
          </mxGeometry>
        </mxCell>
        <mxCell id="lp_HpHyWQ6E8qKvf8Qju-3" value="" style="endArrow=classic;html=1;rounded=0;strokeWidth=1;endSize=8;" edge="1" parent="IV_pwVjNXVyepCab-POb-1" source="IV_pwVjNXVyepCab-POb-2" target="AAkjMVoCq_zIWIkunUXw-2">
          <mxGeometry width="50" height="50" relative="1" as="geometry">
            <mxPoint x="130" y="150" as="sourcePoint" />
            <mxPoint x="300" y="160" as="targetPoint" />
          </mxGeometry>
        </mxCell>
        <mxCell id="AAkjMVoCq_zIWIkunUXw-1" value="" style="group" vertex="1" connectable="0" parent="IV_pwVjNXVyepCab-POb-1">
          <mxGeometry x="320" y="40" width="40" height="120" as="geometry" />
        </mxCell>
        <mxCell id="AAkjMVoCq_zIWIkunUXw-2" value="q&lt;sup&gt;y&lt;/sup&gt;&lt;sub&gt;1&lt;/sub&gt;" style="ellipse;whiteSpace=wrap;html=1;aspect=fixed;" vertex="1" parent="AAkjMVoCq_zIWIkunUXw-1">
          <mxGeometry y="80" width="40" height="40" as="geometry" />
        </mxCell>
        <mxCell id="AAkjMVoCq_zIWIkunUXw-3" value="" style="curved=1;endArrow=classic;html=1;rounded=0;entryX=0.352;entryY=0.021;entryDx=0;entryDy=0;entryPerimeter=0;endSize=8;exitX=0.648;exitY=0.026;exitDx=0;exitDy=0;exitPerimeter=0;" edge="1" parent="AAkjMVoCq_zIWIkunUXw-1" source="AAkjMVoCq_zIWIkunUXw-2" target="AAkjMVoCq_zIWIkunUXw-2">
          <mxGeometry width="50" height="50" relative="1" as="geometry">
            <mxPoint x="26" y="81" as="sourcePoint" />
            <mxPoint x="14" y="81" as="targetPoint" />
            <Array as="points">
              <mxPoint x="19.5" />
            </Array>
          </mxGeometry>
        </mxCell>
        <mxCell id="AAkjMVoCq_zIWIkunUXw-12" value="0,1" style="text;html=1;align=center;verticalAlign=middle;whiteSpace=wrap;rounded=0;" vertex="1" parent="AAkjMVoCq_zIWIkunUXw-1">
          <mxGeometry x="5" y="10" width="30" height="20" as="geometry" />
        </mxCell>
        <mxCell id="AAkjMVoCq_zIWIkunUXw-4" value="q&lt;sup&gt;z&lt;/sup&gt;&lt;sub&gt;1&lt;/sub&gt;" style="ellipse;whiteSpace=wrap;html=1;aspect=fixed;" vertex="1" parent="IV_pwVjNXVyepCab-POb-1">
          <mxGeometry x="440" y="120" width="40" height="40" as="geometry" />
        </mxCell>
        <mxCell id="AAkjMVoCq_zIWIkunUXw-6" value="" style="endArrow=classic;html=1;rounded=0;strokeWidth=1;endSize=8;" edge="1" parent="IV_pwVjNXVyepCab-POb-1" source="AAkjMVoCq_zIWIkunUXw-2" target="AAkjMVoCq_zIWIkunUXw-4">
          <mxGeometry width="50" height="50" relative="1" as="geometry">
            <mxPoint x="250" y="150" as="sourcePoint" />
            <mxPoint x="330" y="150" as="targetPoint" />
          </mxGeometry>
        </mxCell>
        <mxCell id="AAkjMVoCq_zIWIkunUXw-7" value="" style="endArrow=classic;html=1;rounded=0;strokeWidth=1;endSize=8;" edge="1" parent="IV_pwVjNXVyepCab-POb-1" source="AAkjMVoCq_zIWIkunUXw-4" target="IV_pwVjNXVyepCab-POb-4">
          <mxGeometry width="50" height="50" relative="1" as="geometry">
            <mxPoint x="370" y="150" as="sourcePoint" />
            <mxPoint x="450" y="150" as="targetPoint" />
          </mxGeometry>
        </mxCell>
        <mxCell id="AAkjMVoCq_zIWIkunUXw-8" value="0" style="text;html=1;align=center;verticalAlign=middle;whiteSpace=wrap;rounded=0;" vertex="1" parent="IV_pwVjNXVyepCab-POb-1">
          <mxGeometry x="150" y="110" width="20" height="20" as="geometry" />
        </mxCell>
        <mxCell id="AAkjMVoCq_zIWIkunUXw-9" value="0" style="text;html=1;align=center;verticalAlign=middle;whiteSpace=wrap;rounded=0;" vertex="1" parent="IV_pwVjNXVyepCab-POb-1">
          <mxGeometry x="270" y="110" width="20" height="20" as="geometry" />
        </mxCell>
        <mxCell id="AAkjMVoCq_zIWIkunUXw-10" value="0" style="text;html=1;align=center;verticalAlign=middle;whiteSpace=wrap;rounded=0;" vertex="1" parent="IV_pwVjNXVyepCab-POb-1">
          <mxGeometry x="390" y="110" width="20" height="20" as="geometry" />
        </mxCell>
        <mxCell id="AAkjMVoCq_zIWIkunUXw-11" value="0" style="text;html=1;align=center;verticalAlign=middle;whiteSpace=wrap;rounded=0;" vertex="1" parent="IV_pwVjNXVyepCab-POb-1">
          <mxGeometry x="510" y="110" width="20" height="20" as="geometry" />
        </mxCell>
      </root>
    </mxGraphModel>
  </diagram>
  <diagram id="hLcbyyUYNSvSyCecNlJY" name="P1.43">
    <mxGraphModel dx="657" dy="1501" grid="1" gridSize="10" guides="1" tooltips="1" connect="1" arrows="1" fold="1" page="1" pageScale="1" pageWidth="850" pageHeight="1100" math="0" shadow="0">
      <root>
        <mxCell id="0" />
        <mxCell id="1" parent="0" />
        <mxCell id="hCbqwfTK2LLTbWLkjOyD-1" value="q&lt;sub&gt;2&lt;/sub&gt;" style="ellipse;whiteSpace=wrap;html=1;aspect=fixed;" vertex="1" parent="1">
          <mxGeometry x="240" y="160" width="40" height="40" as="geometry" />
        </mxCell>
        <mxCell id="hCbqwfTK2LLTbWLkjOyD-2" value="" style="group" vertex="1" connectable="0" parent="1">
          <mxGeometry x="480" y="160" width="40" height="40" as="geometry" />
        </mxCell>
        <mxCell id="hCbqwfTK2LLTbWLkjOyD-3" value="" style="ellipse;whiteSpace=wrap;html=1;aspect=fixed;" vertex="1" parent="hCbqwfTK2LLTbWLkjOyD-2">
          <mxGeometry width="40" height="40" as="geometry" />
        </mxCell>
        <mxCell id="hCbqwfTK2LLTbWLkjOyD-4" value="q&lt;sub&gt;4&lt;/sub&gt;" style="ellipse;whiteSpace=wrap;html=1;aspect=fixed;" vertex="1" parent="hCbqwfTK2LLTbWLkjOyD-2">
          <mxGeometry x="5" y="5" width="30" height="30" as="geometry" />
        </mxCell>
        <mxCell id="hCbqwfTK2LLTbWLkjOyD-6" value="q&lt;sub&gt;1&lt;/sub&gt;" style="ellipse;whiteSpace=wrap;html=1;aspect=fixed;" vertex="1" parent="1">
          <mxGeometry x="120" y="160" width="40" height="40" as="geometry" />
        </mxCell>
        <mxCell id="hCbqwfTK2LLTbWLkjOyD-7" value="" style="endArrow=classic;html=1;rounded=0;strokeWidth=1;endSize=8;" edge="1" parent="1" source="hCbqwfTK2LLTbWLkjOyD-6" target="hCbqwfTK2LLTbWLkjOyD-1">
          <mxGeometry width="50" height="50" relative="1" as="geometry">
            <mxPoint x="-30.25" y="189.71000000000004" as="sourcePoint" />
            <mxPoint x="10.25" y="189.71000000000004" as="targetPoint" />
          </mxGeometry>
        </mxCell>
        <mxCell id="hCbqwfTK2LLTbWLkjOyD-8" value="" style="endArrow=classic;html=1;rounded=0;strokeWidth=1;endSize=8;" edge="1" parent="1" source="hCbqwfTK2LLTbWLkjOyD-1" target="hCbqwfTK2LLTbWLkjOyD-9">
          <mxGeometry width="50" height="50" relative="1" as="geometry">
            <mxPoint x="170" y="190" as="sourcePoint" />
            <mxPoint x="340" y="200" as="targetPoint" />
          </mxGeometry>
        </mxCell>
        <mxCell id="hCbqwfTK2LLTbWLkjOyD-9" value="q&lt;sub&gt;3&lt;/sub&gt;" style="ellipse;whiteSpace=wrap;html=1;aspect=fixed;" vertex="1" parent="1">
          <mxGeometry x="360" y="160" width="40" height="40" as="geometry" />
        </mxCell>
        <mxCell id="hCbqwfTK2LLTbWLkjOyD-12" value="" style="endArrow=classic;html=1;rounded=0;strokeWidth=1;endSize=8;" edge="1" parent="1" source="hCbqwfTK2LLTbWLkjOyD-9" target="hCbqwfTK2LLTbWLkjOyD-3">
          <mxGeometry width="50" height="50" relative="1" as="geometry">
            <mxPoint x="290" y="190" as="sourcePoint" />
            <mxPoint x="480" y="180" as="targetPoint" />
          </mxGeometry>
        </mxCell>
        <mxCell id="hCbqwfTK2LLTbWLkjOyD-14" value="a" style="text;html=1;align=center;verticalAlign=middle;whiteSpace=wrap;rounded=0;" vertex="1" parent="1">
          <mxGeometry x="190" y="160" width="20" height="20" as="geometry" />
        </mxCell>
        <mxCell id="hCbqwfTK2LLTbWLkjOyD-15" value="a" style="text;html=1;align=center;verticalAlign=middle;whiteSpace=wrap;rounded=0;" vertex="1" parent="1">
          <mxGeometry x="310" y="160" width="20" height="20" as="geometry" />
        </mxCell>
        <mxCell id="hCbqwfTK2LLTbWLkjOyD-16" value="b" style="text;html=1;align=center;verticalAlign=middle;whiteSpace=wrap;rounded=0;" vertex="1" parent="1">
          <mxGeometry x="430" y="160" width="20" height="20" as="geometry" />
        </mxCell>
        <mxCell id="cQTZqDebpxYGqNojo61O-1" value="" style="group" vertex="1" connectable="0" parent="1">
          <mxGeometry x="300" y="-20" width="40" height="120" as="geometry" />
        </mxCell>
        <mxCell id="cQTZqDebpxYGqNojo61O-2" value="q&lt;sub&gt;5&lt;/sub&gt;" style="ellipse;whiteSpace=wrap;html=1;aspect=fixed;" vertex="1" parent="cQTZqDebpxYGqNojo61O-1">
          <mxGeometry y="80" width="40" height="40" as="geometry" />
        </mxCell>
        <mxCell id="cQTZqDebpxYGqNojo61O-3" value="" style="curved=1;endArrow=classic;html=1;rounded=0;entryX=0.352;entryY=0.021;entryDx=0;entryDy=0;entryPerimeter=0;endSize=8;exitX=0.648;exitY=0.026;exitDx=0;exitDy=0;exitPerimeter=0;" edge="1" parent="cQTZqDebpxYGqNojo61O-1" source="cQTZqDebpxYGqNojo61O-2" target="cQTZqDebpxYGqNojo61O-2">
          <mxGeometry width="50" height="50" relative="1" as="geometry">
            <mxPoint x="26" y="81" as="sourcePoint" />
            <mxPoint x="14" y="81" as="targetPoint" />
            <Array as="points">
              <mxPoint x="19.5" />
            </Array>
          </mxGeometry>
        </mxCell>
        <mxCell id="cQTZqDebpxYGqNojo61O-4" value="a,b" style="text;html=1;align=center;verticalAlign=middle;whiteSpace=wrap;rounded=0;" vertex="1" parent="cQTZqDebpxYGqNojo61O-1">
          <mxGeometry x="5" y="10" width="30" height="20" as="geometry" />
        </mxCell>
        <mxCell id="cQTZqDebpxYGqNojo61O-5" value="" style="endArrow=classic;html=1;rounded=0;strokeWidth=1;endSize=8;" edge="1" parent="1" source="hCbqwfTK2LLTbWLkjOyD-6" target="cQTZqDebpxYGqNojo61O-2">
          <mxGeometry width="50" height="50" relative="1" as="geometry">
            <mxPoint x="150" y="120" as="sourcePoint" />
            <mxPoint x="230" y="120" as="targetPoint" />
          </mxGeometry>
        </mxCell>
        <mxCell id="cQTZqDebpxYGqNojo61O-6" value="" style="endArrow=classic;html=1;rounded=0;strokeWidth=1;endSize=8;" edge="1" parent="1" source="hCbqwfTK2LLTbWLkjOyD-1" target="cQTZqDebpxYGqNojo61O-2">
          <mxGeometry width="50" height="50" relative="1" as="geometry">
            <mxPoint x="167" y="180" as="sourcePoint" />
            <mxPoint x="313" y="100" as="targetPoint" />
          </mxGeometry>
        </mxCell>
        <mxCell id="cQTZqDebpxYGqNojo61O-7" value="" style="endArrow=classic;html=1;rounded=0;strokeWidth=1;endSize=8;" edge="1" parent="1" source="hCbqwfTK2LLTbWLkjOyD-9" target="cQTZqDebpxYGqNojo61O-2">
          <mxGeometry width="50" height="50" relative="1" as="geometry">
            <mxPoint x="167" y="180" as="sourcePoint" />
            <mxPoint x="313" y="100" as="targetPoint" />
          </mxGeometry>
        </mxCell>
        <mxCell id="cQTZqDebpxYGqNojo61O-8" value="" style="endArrow=classic;html=1;rounded=0;strokeWidth=1;endSize=8;" edge="1" parent="1" source="hCbqwfTK2LLTbWLkjOyD-3" target="cQTZqDebpxYGqNojo61O-2">
          <mxGeometry width="50" height="50" relative="1" as="geometry">
            <mxPoint x="480" y="150" as="sourcePoint" />
            <mxPoint x="323" y="110" as="targetPoint" />
          </mxGeometry>
        </mxCell>
        <mxCell id="cQTZqDebpxYGqNojo61O-9" value="b" style="text;html=1;align=center;verticalAlign=middle;whiteSpace=wrap;rounded=0;" vertex="1" parent="1">
          <mxGeometry x="150" y="140" width="20" height="20" as="geometry" />
        </mxCell>
        <mxCell id="cQTZqDebpxYGqNojo61O-10" value="b" style="text;html=1;align=center;verticalAlign=middle;whiteSpace=wrap;rounded=0;" vertex="1" parent="1">
          <mxGeometry x="260" y="140" width="20" height="20" as="geometry" />
        </mxCell>
        <mxCell id="cQTZqDebpxYGqNojo61O-11" value="a" style="text;html=1;align=center;verticalAlign=middle;whiteSpace=wrap;rounded=0;" vertex="1" parent="1">
          <mxGeometry x="360" y="140" width="20" height="20" as="geometry" />
        </mxCell>
        <mxCell id="cQTZqDebpxYGqNojo61O-12" value="a,b" style="text;html=1;align=center;verticalAlign=middle;whiteSpace=wrap;rounded=0;" vertex="1" parent="1">
          <mxGeometry x="470" y="140" width="20" height="20" as="geometry" />
        </mxCell>
        <mxCell id="cQTZqDebpxYGqNojo61O-13" value="d&lt;sub&gt;2&lt;/sub&gt;" style="ellipse;whiteSpace=wrap;html=1;aspect=fixed;flipV=1;" vertex="1" parent="1">
          <mxGeometry x="240" y="280" width="40" height="40" as="geometry" />
        </mxCell>
        <mxCell id="cQTZqDebpxYGqNojo61O-17" value="" style="endArrow=classic;html=1;rounded=0;strokeWidth=1;endSize=8;" edge="1" parent="1" target="cQTZqDebpxYGqNojo61O-18">
          <mxGeometry width="50" height="50" relative="1" as="geometry">
            <mxPoint x="80" y="300.57142857142844" as="sourcePoint" />
            <mxPoint x="0.25" y="300.8614285714284" as="targetPoint" />
          </mxGeometry>
        </mxCell>
        <mxCell id="cQTZqDebpxYGqNojo61O-18" value="d&lt;sub&gt;1&lt;/sub&gt;" style="ellipse;whiteSpace=wrap;html=1;aspect=fixed;flipV=1;" vertex="1" parent="1">
          <mxGeometry x="120" y="280" width="40" height="40" as="geometry" />
        </mxCell>
        <mxCell id="cQTZqDebpxYGqNojo61O-19" value="" style="endArrow=classic;html=1;rounded=0;strokeWidth=1;endSize=8;" edge="1" parent="1" source="cQTZqDebpxYGqNojo61O-18" target="cQTZqDebpxYGqNojo61O-13">
          <mxGeometry width="50" height="50" relative="1" as="geometry">
            <mxPoint x="-30.25" y="290.8614285714284" as="sourcePoint" />
            <mxPoint x="10.25" y="290.8614285714284" as="targetPoint" />
          </mxGeometry>
        </mxCell>
        <mxCell id="cQTZqDebpxYGqNojo61O-20" value="" style="endArrow=classic;html=1;rounded=0;strokeWidth=1;endSize=8;" edge="1" parent="1" source="cQTZqDebpxYGqNojo61O-13" target="cQTZqDebpxYGqNojo61O-21">
          <mxGeometry width="50" height="50" relative="1" as="geometry">
            <mxPoint x="170" y="290.57142857142844" as="sourcePoint" />
            <mxPoint x="340" y="280.57142857142844" as="targetPoint" />
          </mxGeometry>
        </mxCell>
        <mxCell id="cQTZqDebpxYGqNojo61O-21" value="d&lt;sub&gt;3&lt;/sub&gt;" style="ellipse;whiteSpace=wrap;html=1;aspect=fixed;flipV=1;" vertex="1" parent="1">
          <mxGeometry x="360" y="280" width="40" height="40" as="geometry" />
        </mxCell>
        <mxCell id="cQTZqDebpxYGqNojo61O-22" value="" style="endArrow=classic;html=1;rounded=0;strokeWidth=1;endSize=8;" edge="1" parent="1" source="cQTZqDebpxYGqNojo61O-21">
          <mxGeometry width="50" height="50" relative="1" as="geometry">
            <mxPoint x="290" y="290.57142857142844" as="sourcePoint" />
            <mxPoint x="480" y="300" as="targetPoint" />
          </mxGeometry>
        </mxCell>
        <mxCell id="cQTZqDebpxYGqNojo61O-23" value="a" style="text;html=1;align=center;verticalAlign=middle;whiteSpace=wrap;rounded=0;flipV=1;" vertex="1" parent="1">
          <mxGeometry x="190" y="280" width="20" height="20" as="geometry" />
        </mxCell>
        <mxCell id="cQTZqDebpxYGqNojo61O-24" value="a" style="text;html=1;align=center;verticalAlign=middle;whiteSpace=wrap;rounded=0;flipV=1;" vertex="1" parent="1">
          <mxGeometry x="310" y="280" width="20" height="20" as="geometry" />
        </mxCell>
        <mxCell id="cQTZqDebpxYGqNojo61O-25" value="b" style="text;html=1;align=center;verticalAlign=middle;whiteSpace=wrap;rounded=0;flipV=1;" vertex="1" parent="1">
          <mxGeometry x="430" y="280" width="20" height="20" as="geometry" />
        </mxCell>
        <mxCell id="cQTZqDebpxYGqNojo61O-30" value="" style="endArrow=classic;html=1;rounded=0;strokeWidth=1;endSize=8;" edge="1" parent="1" source="cQTZqDebpxYGqNojo61O-18" target="cQTZqDebpxYGqNojo61O-27">
          <mxGeometry width="50" height="50" relative="1" as="geometry">
            <mxPoint x="150" y="259.98955156032434" as="sourcePoint" />
            <mxPoint x="230" y="259.98955156032434" as="targetPoint" />
          </mxGeometry>
        </mxCell>
        <mxCell id="cQTZqDebpxYGqNojo61O-31" value="" style="endArrow=classic;html=1;rounded=0;strokeWidth=1;endSize=8;" edge="1" parent="1" source="cQTZqDebpxYGqNojo61O-13" target="cQTZqDebpxYGqNojo61O-27">
          <mxGeometry width="50" height="50" relative="1" as="geometry">
            <mxPoint x="167" y="199.9789931329019" as="sourcePoint" />
            <mxPoint x="313" y="279.9789931329019" as="targetPoint" />
          </mxGeometry>
        </mxCell>
        <mxCell id="cQTZqDebpxYGqNojo61O-32" value="" style="endArrow=classic;html=1;rounded=0;strokeWidth=1;endSize=8;" edge="1" parent="1" source="cQTZqDebpxYGqNojo61O-21" target="cQTZqDebpxYGqNojo61O-27">
          <mxGeometry width="50" height="50" relative="1" as="geometry">
            <mxPoint x="167" y="199.9789931328828" as="sourcePoint" />
            <mxPoint x="313" y="279.9789931328828" as="targetPoint" />
          </mxGeometry>
        </mxCell>
        <mxCell id="cQTZqDebpxYGqNojo61O-33" value="" style="endArrow=classic;html=1;rounded=0;strokeWidth=1;endSize=8;" edge="1" parent="1" target="cQTZqDebpxYGqNojo61O-27">
          <mxGeometry width="50" height="50" relative="1" as="geometry">
            <mxPoint x="482.92992322255236" y="310.42173108517864" as="sourcePoint" />
            <mxPoint x="323" y="269.9895515603266" as="targetPoint" />
          </mxGeometry>
        </mxCell>
        <mxCell id="cQTZqDebpxYGqNojo61O-34" value="b" style="text;html=1;align=center;verticalAlign=middle;whiteSpace=wrap;rounded=0;flipV=1;" vertex="1" parent="1">
          <mxGeometry x="150" y="320" width="20" height="20" as="geometry" />
        </mxCell>
        <mxCell id="cQTZqDebpxYGqNojo61O-35" value="b" style="text;html=1;align=center;verticalAlign=middle;whiteSpace=wrap;rounded=0;flipV=1;" vertex="1" parent="1">
          <mxGeometry x="280" y="320" width="20" height="20" as="geometry" />
        </mxCell>
        <mxCell id="cQTZqDebpxYGqNojo61O-36" value="a" style="text;html=1;align=center;verticalAlign=middle;whiteSpace=wrap;rounded=0;flipV=1;" vertex="1" parent="1">
          <mxGeometry x="340" y="320" width="20" height="20" as="geometry" />
        </mxCell>
        <mxCell id="cQTZqDebpxYGqNojo61O-37" value="a,b" style="text;html=1;align=center;verticalAlign=middle;whiteSpace=wrap;rounded=0;flipV=1;" vertex="1" parent="1">
          <mxGeometry x="470" y="320" width="20" height="20" as="geometry" />
        </mxCell>
        <mxCell id="cQTZqDebpxYGqNojo61O-27" value="d&lt;sub&gt;5&lt;/sub&gt;" style="ellipse;whiteSpace=wrap;html=1;aspect=fixed;" vertex="1" parent="1">
          <mxGeometry x="300" y="390" width="40" height="40" as="geometry" />
        </mxCell>
        <mxCell id="cQTZqDebpxYGqNojo61O-28" value="" style="curved=1;endArrow=classic;html=1;rounded=0;entryX=0.344;entryY=0.973;entryDx=0;entryDy=0;entryPerimeter=0;endSize=8;exitX=0.647;exitY=0.979;exitDx=0;exitDy=0;exitPerimeter=0;" edge="1" parent="1" source="cQTZqDebpxYGqNojo61O-27" target="cQTZqDebpxYGqNojo61O-27">
          <mxGeometry width="50" height="50" relative="1" as="geometry">
            <mxPoint x="325.91999999999996" y="449.1999999999997" as="sourcePoint" />
            <mxPoint x="314.0799999999999" y="448.9999999999999" as="targetPoint" />
            <Array as="points">
              <mxPoint x="319.5" y="568.16" />
            </Array>
          </mxGeometry>
        </mxCell>
        <mxCell id="cQTZqDebpxYGqNojo61O-29" value="a,b" style="text;html=1;align=center;verticalAlign=middle;whiteSpace=wrap;rounded=0;" vertex="1" parent="1">
          <mxGeometry x="305" y="510" width="30" height="20" as="geometry" />
        </mxCell>
        <mxCell id="cQTZqDebpxYGqNojo61O-38" value="q&lt;sub&gt;2&lt;/sub&gt;" style="ellipse;whiteSpace=wrap;html=1;aspect=fixed;" vertex="1" parent="1">
          <mxGeometry x="240" y="-110" width="40" height="40" as="geometry" />
        </mxCell>
        <mxCell id="cQTZqDebpxYGqNojo61O-39" value="" style="group" vertex="1" connectable="0" parent="1">
          <mxGeometry x="480" y="-110" width="40" height="40" as="geometry" />
        </mxCell>
        <mxCell id="cQTZqDebpxYGqNojo61O-40" value="" style="ellipse;whiteSpace=wrap;html=1;aspect=fixed;" vertex="1" parent="cQTZqDebpxYGqNojo61O-39">
          <mxGeometry width="40" height="40" as="geometry" />
        </mxCell>
        <mxCell id="cQTZqDebpxYGqNojo61O-41" value="q&lt;sub&gt;4&lt;/sub&gt;" style="ellipse;whiteSpace=wrap;html=1;aspect=fixed;" vertex="1" parent="cQTZqDebpxYGqNojo61O-39">
          <mxGeometry x="5" y="5" width="30" height="30" as="geometry" />
        </mxCell>
        <mxCell id="cQTZqDebpxYGqNojo61O-42" value="" style="endArrow=classic;html=1;rounded=0;strokeWidth=1;endSize=8;" edge="1" parent="1" target="cQTZqDebpxYGqNojo61O-43">
          <mxGeometry width="50" height="50" relative="1" as="geometry">
            <mxPoint x="80" y="-90" as="sourcePoint" />
            <mxPoint x="0.25" y="-90.28999999999996" as="targetPoint" />
          </mxGeometry>
        </mxCell>
        <mxCell id="cQTZqDebpxYGqNojo61O-43" value="q&lt;sub&gt;1&lt;/sub&gt;" style="ellipse;whiteSpace=wrap;html=1;aspect=fixed;" vertex="1" parent="1">
          <mxGeometry x="120" y="-110" width="40" height="40" as="geometry" />
        </mxCell>
        <mxCell id="cQTZqDebpxYGqNojo61O-44" value="" style="endArrow=classic;html=1;rounded=0;strokeWidth=1;endSize=8;" edge="1" parent="1" source="cQTZqDebpxYGqNojo61O-43" target="cQTZqDebpxYGqNojo61O-38">
          <mxGeometry width="50" height="50" relative="1" as="geometry">
            <mxPoint x="-30.25" y="-80.28999999999996" as="sourcePoint" />
            <mxPoint x="10.25" y="-80.28999999999996" as="targetPoint" />
          </mxGeometry>
        </mxCell>
        <mxCell id="cQTZqDebpxYGqNojo61O-45" value="" style="endArrow=classic;html=1;rounded=0;strokeWidth=1;endSize=8;" edge="1" parent="1" source="cQTZqDebpxYGqNojo61O-38" target="cQTZqDebpxYGqNojo61O-46">
          <mxGeometry width="50" height="50" relative="1" as="geometry">
            <mxPoint x="170" y="-80" as="sourcePoint" />
            <mxPoint x="340" y="-70" as="targetPoint" />
          </mxGeometry>
        </mxCell>
        <mxCell id="cQTZqDebpxYGqNojo61O-46" value="q&lt;sub&gt;3&lt;/sub&gt;" style="ellipse;whiteSpace=wrap;html=1;aspect=fixed;" vertex="1" parent="1">
          <mxGeometry x="360" y="-110" width="40" height="40" as="geometry" />
        </mxCell>
        <mxCell id="cQTZqDebpxYGqNojo61O-47" value="" style="endArrow=classic;html=1;rounded=0;strokeWidth=1;endSize=8;" edge="1" parent="1" source="cQTZqDebpxYGqNojo61O-46" target="cQTZqDebpxYGqNojo61O-40">
          <mxGeometry width="50" height="50" relative="1" as="geometry">
            <mxPoint x="290" y="-80" as="sourcePoint" />
            <mxPoint x="480" y="-90" as="targetPoint" />
          </mxGeometry>
        </mxCell>
        <mxCell id="cQTZqDebpxYGqNojo61O-48" value="a" style="text;html=1;align=center;verticalAlign=middle;whiteSpace=wrap;rounded=0;" vertex="1" parent="1">
          <mxGeometry x="190" y="-110" width="20" height="20" as="geometry" />
        </mxCell>
        <mxCell id="cQTZqDebpxYGqNojo61O-49" value="a" style="text;html=1;align=center;verticalAlign=middle;whiteSpace=wrap;rounded=0;" vertex="1" parent="1">
          <mxGeometry x="310" y="-110" width="20" height="20" as="geometry" />
        </mxCell>
        <mxCell id="cQTZqDebpxYGqNojo61O-50" value="b" style="text;html=1;align=center;verticalAlign=middle;whiteSpace=wrap;rounded=0;" vertex="1" parent="1">
          <mxGeometry x="430" y="-110" width="20" height="20" as="geometry" />
        </mxCell>
        <mxCell id="cQTZqDebpxYGqNojo61O-51" value="" style="group" vertex="1" connectable="0" parent="1">
          <mxGeometry x="300" y="-290" width="40" height="120" as="geometry" />
        </mxCell>
        <mxCell id="cQTZqDebpxYGqNojo61O-52" value="q&lt;sub&gt;5&lt;/sub&gt;" style="ellipse;whiteSpace=wrap;html=1;aspect=fixed;" vertex="1" parent="cQTZqDebpxYGqNojo61O-51">
          <mxGeometry y="80" width="40" height="40" as="geometry" />
        </mxCell>
        <mxCell id="cQTZqDebpxYGqNojo61O-53" value="" style="curved=1;endArrow=classic;html=1;rounded=0;entryX=0.352;entryY=0.021;entryDx=0;entryDy=0;entryPerimeter=0;endSize=8;exitX=0.648;exitY=0.026;exitDx=0;exitDy=0;exitPerimeter=0;" edge="1" parent="cQTZqDebpxYGqNojo61O-51" source="cQTZqDebpxYGqNojo61O-52" target="cQTZqDebpxYGqNojo61O-52">
          <mxGeometry width="50" height="50" relative="1" as="geometry">
            <mxPoint x="26" y="81" as="sourcePoint" />
            <mxPoint x="14" y="81" as="targetPoint" />
            <Array as="points">
              <mxPoint x="19.5" />
            </Array>
          </mxGeometry>
        </mxCell>
        <mxCell id="cQTZqDebpxYGqNojo61O-54" value="a,b" style="text;html=1;align=center;verticalAlign=middle;whiteSpace=wrap;rounded=0;" vertex="1" parent="cQTZqDebpxYGqNojo61O-51">
          <mxGeometry x="5" y="10" width="30" height="20" as="geometry" />
        </mxCell>
        <mxCell id="cQTZqDebpxYGqNojo61O-55" value="" style="endArrow=classic;html=1;rounded=0;strokeWidth=1;endSize=8;" edge="1" parent="1" source="cQTZqDebpxYGqNojo61O-43" target="cQTZqDebpxYGqNojo61O-52">
          <mxGeometry width="50" height="50" relative="1" as="geometry">
            <mxPoint x="150" y="-150" as="sourcePoint" />
            <mxPoint x="230" y="-150" as="targetPoint" />
          </mxGeometry>
        </mxCell>
        <mxCell id="cQTZqDebpxYGqNojo61O-56" value="" style="endArrow=classic;html=1;rounded=0;strokeWidth=1;endSize=8;" edge="1" parent="1" source="cQTZqDebpxYGqNojo61O-38" target="cQTZqDebpxYGqNojo61O-52">
          <mxGeometry width="50" height="50" relative="1" as="geometry">
            <mxPoint x="167" y="-90" as="sourcePoint" />
            <mxPoint x="313" y="-170" as="targetPoint" />
          </mxGeometry>
        </mxCell>
        <mxCell id="cQTZqDebpxYGqNojo61O-57" value="" style="endArrow=classic;html=1;rounded=0;strokeWidth=1;endSize=8;" edge="1" parent="1" source="cQTZqDebpxYGqNojo61O-46" target="cQTZqDebpxYGqNojo61O-52">
          <mxGeometry width="50" height="50" relative="1" as="geometry">
            <mxPoint x="167" y="-90" as="sourcePoint" />
            <mxPoint x="313" y="-170" as="targetPoint" />
          </mxGeometry>
        </mxCell>
        <mxCell id="cQTZqDebpxYGqNojo61O-58" value="" style="endArrow=classic;html=1;rounded=0;strokeWidth=1;endSize=8;" edge="1" parent="1" source="cQTZqDebpxYGqNojo61O-40" target="cQTZqDebpxYGqNojo61O-52">
          <mxGeometry width="50" height="50" relative="1" as="geometry">
            <mxPoint x="480" y="-120" as="sourcePoint" />
            <mxPoint x="323" y="-160" as="targetPoint" />
          </mxGeometry>
        </mxCell>
        <mxCell id="cQTZqDebpxYGqNojo61O-59" value="b" style="text;html=1;align=center;verticalAlign=middle;whiteSpace=wrap;rounded=0;" vertex="1" parent="1">
          <mxGeometry x="150" y="-130" width="20" height="20" as="geometry" />
        </mxCell>
        <mxCell id="cQTZqDebpxYGqNojo61O-60" value="b" style="text;html=1;align=center;verticalAlign=middle;whiteSpace=wrap;rounded=0;" vertex="1" parent="1">
          <mxGeometry x="260" y="-130" width="20" height="20" as="geometry" />
        </mxCell>
        <mxCell id="cQTZqDebpxYGqNojo61O-61" value="a" style="text;html=1;align=center;verticalAlign=middle;whiteSpace=wrap;rounded=0;" vertex="1" parent="1">
          <mxGeometry x="360" y="-130" width="20" height="20" as="geometry" />
        </mxCell>
        <mxCell id="cQTZqDebpxYGqNojo61O-62" value="a,b" style="text;html=1;align=center;verticalAlign=middle;whiteSpace=wrap;rounded=0;" vertex="1" parent="1">
          <mxGeometry x="470" y="-130" width="20" height="20" as="geometry" />
        </mxCell>
        <mxCell id="cQTZqDebpxYGqNojo61O-63" value="d&lt;sub&gt;4&lt;/sub&gt;" style="ellipse;whiteSpace=wrap;html=1;aspect=fixed;flipV=1;" vertex="1" parent="1">
          <mxGeometry x="480" y="280" width="40" height="40" as="geometry" />
        </mxCell>
        <mxCell id="cQTZqDebpxYGqNojo61O-64" value="" style="endArrow=classic;html=1;rounded=0;strokeWidth=1;endSize=8;strokeColor=#969696;" edge="1" parent="1" source="cQTZqDebpxYGqNojo61O-18" target="hCbqwfTK2LLTbWLkjOyD-1">
          <mxGeometry width="50" height="50" relative="1" as="geometry">
            <mxPoint x="167" y="340" as="sourcePoint" />
            <mxPoint x="313" y="430" as="targetPoint" />
          </mxGeometry>
        </mxCell>
        <mxCell id="cQTZqDebpxYGqNojo61O-65" value="" style="endArrow=classic;html=1;rounded=0;strokeWidth=1;endSize=8;strokeColor=#969696;" edge="1" parent="1" source="cQTZqDebpxYGqNojo61O-13" target="hCbqwfTK2LLTbWLkjOyD-9">
          <mxGeometry width="50" height="50" relative="1" as="geometry">
            <mxPoint x="163" y="315" as="sourcePoint" />
            <mxPoint x="257" y="205" as="targetPoint" />
          </mxGeometry>
        </mxCell>
        <mxCell id="cQTZqDebpxYGqNojo61O-66" value="" style="endArrow=classic;html=1;rounded=0;strokeWidth=1;endSize=8;strokeColor=#969696;" edge="1" parent="1" source="cQTZqDebpxYGqNojo61O-21" target="hCbqwfTK2LLTbWLkjOyD-3">
          <mxGeometry width="50" height="50" relative="1" as="geometry">
            <mxPoint x="283" y="315" as="sourcePoint" />
            <mxPoint x="377" y="205" as="targetPoint" />
          </mxGeometry>
        </mxCell>
        <mxCell id="cQTZqDebpxYGqNojo61O-72" value="&lt;font style=&quot;font-size: 15px;&quot;&gt;ε&lt;/font&gt;" style="text;html=1;align=center;verticalAlign=bottom;whiteSpace=wrap;rounded=0;" vertex="1" parent="1">
          <mxGeometry x="180" y="220" width="20" height="20" as="geometry" />
        </mxCell>
        <mxCell id="cQTZqDebpxYGqNojo61O-73" value="&lt;font style=&quot;font-size: 15px;&quot;&gt;ε&lt;/font&gt;" style="text;html=1;align=center;verticalAlign=bottom;whiteSpace=wrap;rounded=0;" vertex="1" parent="1">
          <mxGeometry x="300" y="220" width="20" height="20" as="geometry" />
        </mxCell>
        <mxCell id="cQTZqDebpxYGqNojo61O-74" value="&lt;font style=&quot;font-size: 15px;&quot;&gt;ε&lt;/font&gt;" style="text;html=1;align=center;verticalAlign=bottom;whiteSpace=wrap;rounded=0;" vertex="1" parent="1">
          <mxGeometry x="420" y="220" width="20" height="20" as="geometry" />
        </mxCell>
        <mxCell id="IQN6etTGuEAO5WIfsH60-6" value="" style="curved=1;endArrow=classic;html=1;rounded=0;endSize=8;" edge="1" parent="1">
          <mxGeometry width="50" height="50" relative="1" as="geometry">
            <mxPoint x="961.5196633515623" y="-182.35296414547406" as="sourcePoint" />
            <mxPoint x="758.480336648438" y="-182.35296414547406" as="targetPoint" />
            <Array as="points">
              <mxPoint x="860" y="-140" />
            </Array>
          </mxGeometry>
        </mxCell>
        <mxCell id="IQN6etTGuEAO5WIfsH60-17" value="" style="curved=1;endArrow=classic;html=1;rounded=0;endSize=8;" edge="1" parent="1">
          <mxGeometry width="50" height="50" relative="1" as="geometry">
            <mxPoint x="758.480336648438" y="-197.64703585452617" as="sourcePoint" />
            <mxPoint x="961.5196633515623" y="-197.64703585452617" as="targetPoint" />
            <Array as="points">
              <mxPoint x="860" y="-240" />
            </Array>
          </mxGeometry>
        </mxCell>
        <mxCell id="IQN6etTGuEAO5WIfsH60-19" value="" style="group" vertex="1" connectable="0" parent="1">
          <mxGeometry x="960" y="-210" width="40" height="40" as="geometry" />
        </mxCell>
        <mxCell id="IQN6etTGuEAO5WIfsH60-20" value="" style="ellipse;whiteSpace=wrap;html=1;aspect=fixed;" vertex="1" parent="IQN6etTGuEAO5WIfsH60-19">
          <mxGeometry width="40" height="40" as="geometry" />
        </mxCell>
        <mxCell id="IQN6etTGuEAO5WIfsH60-21" value="q&lt;sub&gt;2&lt;/sub&gt;" style="ellipse;whiteSpace=wrap;html=1;aspect=fixed;" vertex="1" parent="IQN6etTGuEAO5WIfsH60-19">
          <mxGeometry x="5" y="5" width="30" height="30" as="geometry" />
        </mxCell>
        <mxCell id="IQN6etTGuEAO5WIfsH60-22" value="q&lt;sub&gt;1&lt;/sub&gt;" style="ellipse;whiteSpace=wrap;html=1;aspect=fixed;" vertex="1" parent="1">
          <mxGeometry x="720" y="-210" width="40" height="40" as="geometry" />
        </mxCell>
        <mxCell id="IQN6etTGuEAO5WIfsH60-23" value="" style="endArrow=classic;html=1;rounded=0;strokeWidth=1;endSize=8;" edge="1" parent="1" target="IQN6etTGuEAO5WIfsH60-22">
          <mxGeometry width="50" height="50" relative="1" as="geometry">
            <mxPoint x="680" y="-190" as="sourcePoint" />
            <mxPoint x="210" y="-210" as="targetPoint" />
          </mxGeometry>
        </mxCell>
        <mxCell id="IQN6etTGuEAO5WIfsH60-24" value="a,b" style="text;html=1;align=center;verticalAlign=middle;whiteSpace=wrap;rounded=0;" vertex="1" parent="1">
          <mxGeometry x="850" y="-240" width="20" height="20" as="geometry" />
        </mxCell>
        <mxCell id="IQN6etTGuEAO5WIfsH60-25" value="a,b" style="text;html=1;align=center;verticalAlign=middle;whiteSpace=wrap;rounded=0;" vertex="1" parent="1">
          <mxGeometry x="850" y="-160" width="20" height="20" as="geometry" />
        </mxCell>
        <mxCell id="IQN6etTGuEAO5WIfsH60-35" value="" style="curved=1;endArrow=classic;html=1;rounded=0;endSize=8;" edge="1" parent="1">
          <mxGeometry width="50" height="50" relative="1" as="geometry">
            <mxPoint x="961.5196633515623" y="-12.352964145474061" as="sourcePoint" />
            <mxPoint x="758.480336648438" y="-12.352964145474061" as="targetPoint" />
            <Array as="points">
              <mxPoint x="860" y="30" />
            </Array>
          </mxGeometry>
        </mxCell>
        <mxCell id="IQN6etTGuEAO5WIfsH60-36" value="" style="curved=1;endArrow=classic;html=1;rounded=0;endSize=8;" edge="1" parent="1">
          <mxGeometry width="50" height="50" relative="1" as="geometry">
            <mxPoint x="758.480336648438" y="-27.647035854526166" as="sourcePoint" />
            <mxPoint x="961.5196633515623" y="-27.647035854526166" as="targetPoint" />
            <Array as="points">
              <mxPoint x="860" y="-70" />
            </Array>
          </mxGeometry>
        </mxCell>
        <mxCell id="IQN6etTGuEAO5WIfsH60-37" value="" style="group" vertex="1" connectable="0" parent="1">
          <mxGeometry x="960" y="-40" width="40" height="40" as="geometry" />
        </mxCell>
        <mxCell id="IQN6etTGuEAO5WIfsH60-38" value="" style="ellipse;whiteSpace=wrap;html=1;aspect=fixed;" vertex="1" parent="IQN6etTGuEAO5WIfsH60-37">
          <mxGeometry width="40" height="40" as="geometry" />
        </mxCell>
        <mxCell id="IQN6etTGuEAO5WIfsH60-39" value="q&lt;sub&gt;2&lt;/sub&gt;" style="ellipse;whiteSpace=wrap;html=1;aspect=fixed;" vertex="1" parent="IQN6etTGuEAO5WIfsH60-37">
          <mxGeometry x="5" y="5" width="30" height="30" as="geometry" />
        </mxCell>
        <mxCell id="IQN6etTGuEAO5WIfsH60-40" value="q&lt;sub&gt;1&lt;/sub&gt;" style="ellipse;whiteSpace=wrap;html=1;aspect=fixed;" vertex="1" parent="1">
          <mxGeometry x="720" y="-40" width="40" height="40" as="geometry" />
        </mxCell>
        <mxCell id="IQN6etTGuEAO5WIfsH60-42" value="a,b" style="text;html=1;align=center;verticalAlign=middle;whiteSpace=wrap;rounded=0;" vertex="1" parent="1">
          <mxGeometry x="850" y="-70" width="20" height="20" as="geometry" />
        </mxCell>
        <mxCell id="IQN6etTGuEAO5WIfsH60-43" value="a,b" style="text;html=1;align=center;verticalAlign=middle;whiteSpace=wrap;rounded=0;" vertex="1" parent="1">
          <mxGeometry x="850" y="10" width="20" height="20" as="geometry" />
        </mxCell>
        <mxCell id="IQN6etTGuEAO5WIfsH60-44" value="" style="curved=1;endArrow=classic;html=1;rounded=0;endSize=8;" edge="1" parent="1">
          <mxGeometry width="50" height="50" relative="1" as="geometry">
            <mxPoint x="961.5196633515623" y="177.64703585452594" as="sourcePoint" />
            <mxPoint x="758.480336648438" y="177.64703585452594" as="targetPoint" />
            <Array as="points">
              <mxPoint x="860" y="220" />
            </Array>
          </mxGeometry>
        </mxCell>
        <mxCell id="IQN6etTGuEAO5WIfsH60-45" value="" style="curved=1;endArrow=classic;html=1;rounded=0;endSize=8;" edge="1" parent="1">
          <mxGeometry width="50" height="50" relative="1" as="geometry">
            <mxPoint x="758.480336648438" y="162.35296414547383" as="sourcePoint" />
            <mxPoint x="961.5196633515623" y="162.35296414547383" as="targetPoint" />
            <Array as="points">
              <mxPoint x="860" y="120" />
            </Array>
          </mxGeometry>
        </mxCell>
        <mxCell id="IQN6etTGuEAO5WIfsH60-49" value="d&lt;sub&gt;1&lt;/sub&gt;" style="ellipse;whiteSpace=wrap;html=1;aspect=fixed;" vertex="1" parent="1">
          <mxGeometry x="720" y="150" width="40" height="40" as="geometry" />
        </mxCell>
        <mxCell id="IQN6etTGuEAO5WIfsH60-50" value="" style="endArrow=classic;html=1;rounded=0;strokeWidth=1;endSize=8;" edge="1" parent="1" target="IQN6etTGuEAO5WIfsH60-49">
          <mxGeometry width="50" height="50" relative="1" as="geometry">
            <mxPoint x="680" y="170" as="sourcePoint" />
            <mxPoint x="210" y="150" as="targetPoint" />
          </mxGeometry>
        </mxCell>
        <mxCell id="IQN6etTGuEAO5WIfsH60-51" value="a,b" style="text;html=1;align=center;verticalAlign=middle;whiteSpace=wrap;rounded=0;" vertex="1" parent="1">
          <mxGeometry x="850" y="120" width="20" height="20" as="geometry" />
        </mxCell>
        <mxCell id="IQN6etTGuEAO5WIfsH60-52" value="a,b" style="text;html=1;align=center;verticalAlign=middle;whiteSpace=wrap;rounded=0;" vertex="1" parent="1">
          <mxGeometry x="850" y="200" width="20" height="20" as="geometry" />
        </mxCell>
        <mxCell id="IQN6etTGuEAO5WIfsH60-53" value="d&lt;sub&gt;2&lt;/sub&gt;" style="ellipse;whiteSpace=wrap;html=1;aspect=fixed;" vertex="1" parent="1">
          <mxGeometry x="960" y="150" width="40" height="40" as="geometry" />
        </mxCell>
        <mxCell id="IQN6etTGuEAO5WIfsH60-56" value="" style="curved=1;endArrow=classic;html=1;rounded=0;dashed=1;dashPattern=1 1;strokeColor=#CC0000;" edge="1" parent="1" source="IQN6etTGuEAO5WIfsH60-49" target="IQN6etTGuEAO5WIfsH60-38">
          <mxGeometry width="50" height="50" relative="1" as="geometry">
            <mxPoint x="850" y="100" as="sourcePoint" />
            <mxPoint x="900" y="50" as="targetPoint" />
            <Array as="points">
              <mxPoint x="740" y="80" />
              <mxPoint x="980" y="80" />
            </Array>
          </mxGeometry>
        </mxCell>
        <mxCell id="IQN6etTGuEAO5WIfsH60-57" value="" style="curved=1;endArrow=classic;html=1;rounded=0;textShadow=0;shadow=0;flowAnimation=0;dashed=1;dashPattern=1 1;strokeColor=#0000CC;" edge="1" parent="1" source="IQN6etTGuEAO5WIfsH60-53" target="IQN6etTGuEAO5WIfsH60-40">
          <mxGeometry width="50" height="50" relative="1" as="geometry">
            <mxPoint x="790" y="90" as="sourcePoint" />
            <mxPoint x="840" y="40" as="targetPoint" />
            <Array as="points">
              <mxPoint x="980" y="80" />
              <mxPoint x="740" y="80" />
            </Array>
          </mxGeometry>
        </mxCell>
        <mxCell id="IQN6etTGuEAO5WIfsH60-58" value="&lt;font style=&quot;font-size: 15px;&quot;&gt;ε&lt;/font&gt;" style="text;html=1;align=center;verticalAlign=bottom;whiteSpace=wrap;rounded=0;" vertex="1" parent="1">
          <mxGeometry x="730" y="100" width="20" height="20" as="geometry" />
        </mxCell>
        <mxCell id="IQN6etTGuEAO5WIfsH60-60" value="&lt;font style=&quot;font-size: 15px;&quot;&gt;ε&lt;/font&gt;" style="text;html=1;align=center;verticalAlign=bottom;whiteSpace=wrap;rounded=0;" vertex="1" parent="1">
          <mxGeometry x="970" y="100" width="20" height="20" as="geometry" />
        </mxCell>
        <mxCell id="IQN6etTGuEAO5WIfsH60-63" value="" style="labelPosition=right;align=left;strokeWidth=1;shape=mxgraph.mockup.markup.curlyBrace;html=1;shadow=0;dashed=0;strokeColor=#969696;direction=north;flipH=1;" vertex="1" parent="1">
          <mxGeometry x="1020" y="120" width="20" height="100" as="geometry" />
        </mxCell>
        <mxCell id="IQN6etTGuEAO5WIfsH60-64" value="" style="labelPosition=right;align=left;strokeWidth=1;shape=mxgraph.mockup.markup.curlyBrace;html=1;shadow=0;dashed=0;strokeColor=#969696;direction=north;flipH=1;fontColor=#969696;" vertex="1" parent="1">
          <mxGeometry x="1020" y="-70" width="20" height="100" as="geometry" />
        </mxCell>
        <mxCell id="IQN6etTGuEAO5WIfsH60-65" value="Drop symbol" style="text;html=1;align=left;verticalAlign=middle;whiteSpace=wrap;rounded=0;" vertex="1" parent="1">
          <mxGeometry x="1050" y="155" width="70" height="30" as="geometry" />
        </mxCell>
        <mxCell id="IQN6etTGuEAO5WIfsH60-66" value="Continue processing" style="text;html=1;align=left;verticalAlign=middle;whiteSpace=wrap;rounded=0;" vertex="1" parent="1">
          <mxGeometry x="1050" y="-35" width="70" height="30" as="geometry" />
        </mxCell>
      </root>
    </mxGraphModel>
  </diagram>
</mxfile>
